Rasa-Light.ufo
<glyph name="exclam" format="1">
  <advance width="233"/>
  <unicode hex="0021"/>
  <outline>
    <contour>
      <point x="81" y="568" type="line"/>
      <point x="99" y="163" type="line"/>
      <point x="134" y="163" type="line"/>
      <point x="151" y="568" type="line"/>
      <point x="151" y="623" type="line"/>
      <point x="81" y="623" type="line"/>
    </contour>
    <contour>
      <point x="159" y="35" type="curve" smooth="yes"/>
      <point x="159" y="60"/>
      <point x="142" y="78"/>
      <point x="116" y="78" type="curve" smooth="yes"/>
      <point x="91" y="78"/>
      <point x="73" y="60"/>
      <point x="73" y="35" type="curve" smooth="yes"/>
      <point x="73" y="10"/>
      <point x="91" y="-8"/>
      <point x="116" y="-8" type="curve" smooth="yes"/>
      <point x="142" y="-8"/>
      <point x="159" y="10"/>
    </contour>
  </outline>
</glyph>
<glyph name="numbersign" format="1">
  <advance width="520"/>
  <unicode hex="0023"/>
  <outline>
    <contour>
      <point x="116" y="0" type="line"/>
      <point x="166" y="0" type="line"/>
      <point x="178" y="132" type="line"/>
      <point x="313" y="132" type="line"/>
      <point x="302" y="0" type="line"/>
      <point x="351" y="0" type="line"/>
      <point x="363" y="132" type="line"/>
      <point x="458" y="132" type="line"/>
      <point x="458" y="171" type="line"/>
      <point x="367" y="171" type="line"/>
      <point x="381" y="335" type="line"/>
      <point x="474" y="335" type="line"/>
      <point x="474" y="373" type="line"/>
      <point x="385" y="373" type="line"/>
      <point x="396" y="499" type="line"/>
      <point x="347" y="499" type="line"/>
      <point x="336" y="373" type="line"/>
      <point x="201" y="373" type="line"/>
      <point x="212" y="499" type="line"/>
      <point x="163" y="499" type="line"/>
      <point x="152" y="373" type="line"/>
      <point x="59" y="373" type="line"/>
      <point x="59" y="335" type="line"/>
      <point x="148" y="335" type="line"/>
      <point x="133" y="171" type="line"/>
      <point x="47" y="171" type="line"/>
      <point x="47" y="132" type="line"/>
      <point x="128" y="132" type="line"/>
    </contour>
    <contour>
      <point x="182" y="171" type="line"/>
      <point x="197" y="335" type="line"/>
      <point x="332" y="335" type="line"/>
      <point x="316" y="171" type="line"/>
    </contour>
  </outline>
</glyph>
<glyph name="dollar" format="1">
  <advance width="416"/>
  <unicode hex="0024"/>
  <outline>
    <contour>
      <point x="176" y="18" type="line"/>
      <point x="176" y="-76" type="line"/>
      <point x="223" y="-76" type="line"/>
      <point x="223" y="18" type="line"/>
    </contour>
    <contour>
      <point x="198" y="481" type="line"/>
      <point x="245" y="481" type="line"/>
      <point x="245" y="576" type="line"/>
      <point x="198" y="576" type="line"/>
    </contour>
    <contour>
      <point x="378" y="142" type="curve" smooth="yes"/>
      <point x="378" y="210"/>
      <point x="317" y="244"/>
      <point x="234" y="283" type="curve" smooth="yes"/>
      <point x="156" y="318"/>
      <point x="113" y="338"/>
      <point x="113" y="388" type="curve" smooth="yes"/>
      <point x="113" y="428"/>
      <point x="141" y="459"/>
      <point x="203" y="459" type="curve" smooth="yes"/>
      <point x="241" y="459"/>
      <point x="268" y="447"/>
      <point x="282" y="435" type="curve" smooth="yes"/>
      <point x="292" y="427"/>
      <point x="295" y="420"/>
      <point x="296" y="415" type="curve" smooth="yes"/>
      <point x="308" y="356" type="line"/>
      <point x="346" y="357" type="line"/>
      <point x="352" y="392"/>
      <point x="353" y="427"/>
      <point x="350" y="469" type="curve"/>
      <point x="317" y="485"/>
      <point x="266" y="495"/>
      <point x="220" y="495" type="curve" smooth="yes"/>
      <point x="113" y="495"/>
      <point x="56" y="442"/>
      <point x="56" y="372" type="curve" smooth="yes"/>
      <point x="56" y="293"/>
      <point x="131" y="259"/>
      <point x="200" y="229" type="curve" smooth="yes"/>
      <point x="276" y="194"/>
      <point x="315" y="173"/>
      <point x="315" y="125" type="curve" smooth="yes"/>
      <point x="315" y="78"/>
      <point x="279" y="42"/>
      <point x="213" y="42" type="curve" smooth="yes"/>
      <point x="165" y="42"/>
      <point x="129" y="61"/>
      <point x="113" y="79" type="curve" smooth="yes"/>
      <point x="106" y="86"/>
      <point x="103" y="93"/>
      <point x="102" y="99" type="curve" smooth="yes"/>
      <point x="91" y="165" type="line"/>
      <point x="51" y="165" type="line"/>
      <point x="46" y="124"/>
      <point x="44" y="86"/>
      <point x="45" y="48" type="curve"/>
      <point x="74" y="29"/>
      <point x="133" y="6"/>
      <point x="201" y="6" type="curve" smooth="yes"/>
      <point x="319" y="6"/>
      <point x="378" y="75"/>
    </contour>
  </outline>
</glyph>
<glyph name="percent" format="1">
  <advance width="1889"/>
  <unicode hex="0025"/>
  <outline>
    <contour>
      <point x="549" y="0" type="line"/>
      <point x="1492" y="1562" type="line"/>
      <point x="1340" y="1562" type="line"/>
      <point x="397" y="0" type="line"/>
    </contour>
    <contour>
      <point x="830" y="1163" type="curve" smooth="yes"/>
      <point x="830" y="1393"/>
      <point x="689" y="1562"/>
      <point x="463" y="1562" type="curve" smooth="yes"/>
      <point x="277" y="1562"/>
      <point x="86" y="1409"/>
      <point x="86" y="1124" type="curve" smooth="yes"/>
      <point x="86" y="894"/>
      <point x="227" y="725"/>
      <point x="453" y="725" type="curve" smooth="yes"/>
      <point x="639" y="725"/>
      <point x="830" y="878"/>
    </contour>
    <contour>
      <point x="241" y="1156" type="curve" smooth="yes"/>
      <point x="241" y="1335"/>
      <point x="313" y="1458"/>
      <point x="442" y="1458" type="curve" smooth="yes"/>
      <point x="586" y="1458"/>
      <point x="670" y="1314"/>
      <point x="670" y="1130" type="curve" smooth="yes"/>
      <point x="670" y="952"/>
      <point x="598" y="829"/>
      <point x="469" y="829" type="curve" smooth="yes"/>
      <point x="328" y="829"/>
      <point x="241" y="967"/>
    </contour>
    <contour>
      <point x="1803" y="438" type="curve" smooth="yes"/>
      <point x="1803" y="668"/>
      <point x="1662" y="837"/>
      <point x="1436" y="837" type="curve" smooth="yes"/>
      <point x="1250" y="837"/>
      <point x="1059" y="684"/>
      <point x="1059" y="399" type="curve" smooth="yes"/>
      <point x="1059" y="169"/>
      <point x="1200" y="0"/>
      <point x="1426" y="0" type="curve" smooth="yes"/>
      <point x="1612" y="0"/>
      <point x="1803" y="153"/>
    </contour>
    <contour>
      <point x="1214" y="431" type="curve" smooth="yes"/>
      <point x="1214" y="610"/>
      <point x="1286" y="733"/>
      <point x="1415" y="733" type="curve" smooth="yes"/>
      <point x="1559" y="733"/>
      <point x="1643" y="589"/>
      <point x="1643" y="405" type="curve" smooth="yes"/>
      <point x="1643" y="227"/>
      <point x="1571" y="104"/>
      <point x="1442" y="104" type="curve" smooth="yes"/>
      <point x="1301" y="104"/>
      <point x="1214" y="242"/>
    </contour>
  </outline>
</glyph>
<glyph name="ampersand" format="1">
  <advance width="575"/>
  <unicode hex="0026"/>
  <outline>
    <contour>
      <point x="533" y="277" type="line"/>
      <point x="533" y="309" type="line"/>
      <point x="352" y="309" type="line"/>
      <point x="352" y="277" type="line"/>
      <point x="410" y="266" type="line" smooth="yes"/>
      <point x="426" y="263"/>
      <point x="427" y="250"/>
      <point x="427" y="243" type="curve" smooth="yes"/>
      <point x="427" y="192"/>
      <point x="416" y="134"/>
      <point x="378" y="95" type="curve"/>
      <point x="361" y="82" type="line"/>
      <point x="325" y="47"/>
      <point x="275" y="28"/>
      <point x="223" y="28" type="curve" smooth="yes"/>
      <point x="147" y="28"/>
      <point x="104" y="74"/>
      <point x="104" y="138" type="curve" smooth="yes"/>
      <point x="104" y="208"/>
      <point x="155" y="243"/>
      <point x="199" y="275" type="curve"/>
      <point x="217" y="286" type="line"/>
      <point x="301" y="325"/>
      <point x="359" y="377"/>
      <point x="359" y="455" type="curve" smooth="yes"/>
      <point x="359" y="531"/>
      <point x="304" y="575"/>
      <point x="230" y="575" type="curve" smooth="yes"/>
      <point x="140" y="575"/>
      <point x="90" y="511"/>
      <point x="90" y="439" type="curve" smooth="yes"/>
      <point x="90" y="384"/>
      <point x="120" y="331"/>
      <point x="173" y="262" type="curve" smooth="yes"/>
      <point x="213" y="209"/>
      <point x="286" y="123"/>
      <point x="343" y="67" type="curve" smooth="yes"/>
      <point x="397" y="13"/>
      <point x="431" y="-5"/>
      <point x="468" y="-5" type="curve" smooth="yes"/>
      <point x="492" y="-5"/>
      <point x="514" y="2"/>
      <point x="533" y="9" type="curve"/>
      <point x="533" y="41" type="line"/>
      <point x="465" y="41"/>
      <point x="450" y="47"/>
      <point x="406" y="91" type="curve" smooth="yes"/>
      <point x="351" y="145"/>
      <point x="272" y="229"/>
      <point x="218" y="300" type="curve" smooth="yes"/>
      <point x="161" y="376"/>
      <point x="149" y="417"/>
      <point x="149" y="448" type="curve" smooth="yes"/>
      <point x="149" y="495"/>
      <point x="176" y="545"/>
      <point x="231" y="545" type="curve" smooth="yes"/>
      <point x="284" y="545"/>
      <point x="303" y="499"/>
      <point x="303" y="457" type="curve" smooth="yes"/>
      <point x="303" y="390"/>
      <point x="256" y="347"/>
      <point x="203" y="310" type="curve" smooth="yes"/>
      <point x="178" y="292" type="line"/>
      <point x="116" y="268"/>
      <point x="44" y="225"/>
      <point x="44" y="131" type="curve" smooth="yes"/>
      <point x="44" y="34"/>
      <point x="122" y="-9"/>
      <point x="213" y="-9" type="curve" smooth="yes"/>
      <point x="273" y="-9"/>
      <point x="341" y="9"/>
      <point x="388" y="60" type="curve"/>
      <point x="403" y="73" type="line"/>
      <point x="455" y="122"/>
      <point x="470" y="179"/>
      <point x="478" y="242" type="curve" smooth="yes"/>
      <point x="480" y="255"/>
      <point x="482" y="261"/>
      <point x="496" y="266" type="curve" smooth="yes"/>
    </contour>
  </outline>
</glyph>
<glyph name="quotesingle" format="1">
  <advance width="503"/>
  <unicode hex="0027"/>
  <outline>
    <contour>
      <point x="198" y="961" type="line"/>
      <point x="305" y="961" type="line"/>
      <point x="344" y="1684" type="line"/>
      <point x="160" y="1684" type="line"/>
    </contour>
  </outline>
</glyph>
<glyph name="parenleft" format="1">
  <advance width="255"/>
  <unicode hex="0028"/>
  <outline>
    <contour>
      <point x="237" y="-140" type="line"/>
      <point x="207" y="-102"/>
      <point x="102" y="50"/>
      <point x="107" y="309" type="curve" smooth="yes"/>
      <point x="110" y="533"/>
      <point x="197" y="669"/>
      <point x="237" y="718" type="curve"/>
      <point x="212" y="743" type="line"/>
      <point x="172" y="704"/>
      <point x="45" y="545"/>
      <point x="45" y="295" type="curve" smooth="yes"/>
      <point x="45" y="13"/>
      <point x="181" y="-136"/>
      <point x="212" y="-164" type="curve"/>
    </contour>
  </outline>
</glyph>
<glyph name="parenright" format="1">
  <advance width="255"/>
  <unicode hex="0029"/>
  <outline>
    <contour>
      <point x="211" y="283" type="curve" smooth="yes"/>
      <point x="211" y="565"/>
      <point x="74" y="715"/>
      <point x="44" y="743" type="curve"/>
      <point x="18" y="718" type="line"/>
      <point x="48" y="680"/>
      <point x="153" y="528"/>
      <point x="149" y="269" type="curve" smooth="yes"/>
      <point x="145" y="45"/>
      <point x="58" y="-91"/>
      <point x="18" y="-140" type="curve"/>
      <point x="44" y="-164" type="line"/>
      <point x="83" y="-126"/>
      <point x="211" y="33"/>
    </contour>
  </outline>
</glyph>
<glyph name="asterisk" format="1">
  <advance width="437"/>
  <unicode hex="002A"/>
  <outline>
    <contour>
      <point x="227" y="495" type="line"/>
      <point x="239" y="547" type="line"/>
      <point x="249" y="653" type="line"/>
      <point x="188" y="653" type="line"/>
      <point x="199" y="547" type="line"/>
      <point x="210" y="495" type="line"/>
      <point x="210" y="465" type="line"/>
      <point x="199" y="413" type="line"/>
      <point x="188" y="306" type="line"/>
      <point x="249" y="306" type="line"/>
      <point x="239" y="413" type="line"/>
      <point x="227" y="465" type="line"/>
    </contour>
    <contour>
      <point x="210" y="495" type="line"/>
      <point x="171" y="531" type="line"/>
      <point x="84" y="593" type="line"/>
      <point x="53" y="540" type="line"/>
      <point x="151" y="496" type="line"/>
      <point x="201" y="480" type="line"/>
      <point x="227" y="465" type="line"/>
      <point x="267" y="429" type="line"/>
      <point x="353" y="366" type="line"/>
      <point x="384" y="420" type="line"/>
      <point x="286" y="464" type="line"/>
      <point x="236" y="480" type="line"/>
    </contour>
    <contour>
      <point x="236" y="480" type="line"/>
      <point x="286" y="496" type="line"/>
      <point x="384" y="540" type="line"/>
      <point x="353" y="593" type="line"/>
      <point x="267" y="531" type="line"/>
      <point x="227" y="495" type="line"/>
      <point x="201" y="480" type="line"/>
      <point x="151" y="464" type="line"/>
      <point x="53" y="420" type="line"/>
      <point x="84" y="366" type="line"/>
      <point x="171" y="429" type="line"/>
      <point x="210" y="465" type="line"/>
    </contour>
  </outline>
</glyph>
<glyph name="plus" format="1">
  <advance width="418"/>
  <unicode hex="002B"/>
  <outline>
    <contour>
      <point x="233" y="56" type="line"/>
      <point x="233" y="139" type="line"/>
      <point x="231" y="203" type="line"/>
      <point x="295" y="200" type="line"/>
      <point x="373" y="200" type="line"/>
      <point x="373" y="247" type="line"/>
      <point x="295" y="247" type="line"/>
      <point x="231" y="244" type="line"/>
      <point x="233" y="308" type="line"/>
      <point x="233" y="391" type="line"/>
      <point x="184" y="391" type="line"/>
      <point x="184" y="308" type="line"/>
      <point x="187" y="244" type="line"/>
      <point x="123" y="247" type="line"/>
      <point x="44" y="247" type="line"/>
      <point x="44" y="200" type="line"/>
      <point x="123" y="200" type="line"/>
      <point x="187" y="203" type="line"/>
      <point x="184" y="139" type="line"/>
      <point x="184" y="56" type="line"/>
    </contour>
  </outline>
</glyph>
<glyph name="comma" format="1">
  <advance width="220"/>
  <unicode hex="002C"/>
  <outline>
    <contour>
      <point x="121" y="-102"/>
      <point x="161" y="-42"/>
      <point x="161" y="24" type="curve" smooth="yes"/>
      <point x="161" y="77"/>
      <point x="133" y="101"/>
      <point x="105" y="101" type="curve" smooth="yes"/>
      <point x="78" y="101"/>
      <point x="60" y="80"/>
      <point x="60" y="56" type="curve" smooth="yes"/>
      <point x="60" y="32"/>
      <point x="75" y="19"/>
      <point x="88" y="11" type="curve" smooth="yes"/>
      <point x="98" y="6"/>
      <point x="105" y="2"/>
      <point x="105" y="-15" type="curve" smooth="yes"/>
      <point x="105" y="-47"/>
      <point x="85" y="-84"/>
      <point x="45" y="-118" type="curve"/>
      <point x="60" y="-138" type="line"/>
    </contour>
  </outline>
</glyph>
<glyph name="hyphen" format="1">
  <advance width="396"/>
  <unicode hex="002D"/>
  <outline>
    <contour>
      <point x="63" y="194" type="line"/>
      <point x="333" y="194" type="line"/>
      <point x="333" y="239" type="line"/>
      <point x="63" y="239" type="line"/>
    </contour>
  </outline>
</glyph>
<glyph name="period" format="1">
  <advance width="206"/>
  <unicode hex="002E"/>
  <outline>
    <contour>
      <point x="150" y="39" type="curve" smooth="yes"/>
      <point x="150" y="67"/>
      <point x="131" y="87"/>
      <point x="103" y="87" type="curve" smooth="yes"/>
      <point x="75" y="87"/>
      <point x="56" y="67"/>
      <point x="56" y="39" type="curve" smooth="yes"/>
      <point x="56" y="12"/>
      <point x="75" y="-8"/>
      <point x="103" y="-8" type="curve" smooth="yes"/>
      <point x="131" y="-8"/>
      <point x="150" y="12"/>
    </contour>
  </outline>
</glyph>
<glyph name="slash" format="1">
  <advance width="343"/>
  <unicode hex="002F"/>
  <outline>
    <contour>
      <point x="85" y="-105" type="line"/>
      <point x="315" y="633" type="line"/>
      <point x="259" y="633" type="line"/>
      <point x="29" y="-105" type="line"/>
    </contour>
  </outline>
</glyph>
<glyph name="zero" format="1">
  <advance width="471"/>
  <unicode hex="0030"/>
  <outline>
    <contour>
      <point x="121" y="261" type="curve" smooth="yes"/>
      <point x="121" y="135"/>
      <point x="145" y="32"/>
      <point x="240" y="32" type="curve" smooth="yes"/>
      <point x="323" y="32"/>
      <point x="349" y="111"/>
      <point x="349" y="239" type="curve" smooth="yes"/>
      <point x="349" y="366"/>
      <point x="325" y="469"/>
      <point x="231" y="469" type="curve" smooth="yes"/>
      <point x="147" y="469"/>
      <point x="121" y="390"/>
    </contour>
    <contour>
      <point x="53" y="246" type="curve" smooth="yes"/>
      <point x="53" y="417"/>
      <point x="124" y="508"/>
      <point x="240" y="508" type="curve" smooth="yes"/>
      <point x="379" y="508"/>
      <point x="417" y="387"/>
      <point x="417" y="255" type="curve" smooth="yes"/>
      <point x="417" y="80"/>
      <point x="347" y="-7"/>
      <point x="231" y="-7" type="curve" smooth="yes"/>
      <point x="92" y="-7"/>
      <point x="53" y="114"/>
    </contour>
  </outline>
</glyph>
<glyph name="one" format="1">
  <advance width="335"/>
  <unicode hex="0031"/>
  <outline>
    <contour>
      <point x="219" y="501" type="line"/>
      <point x="183" y="509" type="line"/>
      <point x="147" y="479"/>
      <point x="94" y="452"/>
      <point x="44" y="441" type="curve"/>
      <point x="52" y="406" type="line"/>
      <point x="84" y="410"/>
      <point x="139" y="425"/>
      <point x="159" y="435" type="curve"/>
      <point x="159" y="66" type="line" smooth="yes"/>
      <point x="159" y="52"/>
      <point x="148" y="46"/>
      <point x="134" y="44" type="curve" smooth="yes"/>
      <point x="52" y="32" type="line"/>
      <point x="52" y="0" type="line"/>
      <point x="316" y="0" type="line"/>
      <point x="316" y="32" type="line"/>
      <point x="240" y="44" type="line" smooth="yes"/>
      <point x="226" y="46"/>
      <point x="219" y="52"/>
      <point x="219" y="66" type="curve" smooth="yes"/>
    </contour>
  </outline>
</glyph>
<glyph name="two" format="1">
  <advance width="429"/>
  <unicode hex="0032"/>
  <outline>
    <contour>
      <point x="87" y="49" type="line"/>
      <point x="89" y="37" type="line"/>
      <point x="260" y="180"/>
      <point x="358" y="259"/>
      <point x="358" y="369" type="curve" smooth="yes"/>
      <point x="358" y="457"/>
      <point x="295" y="508"/>
      <point x="212" y="508" type="curve" smooth="yes"/>
      <point x="124" y="508"/>
      <point x="70" y="449"/>
      <point x="56" y="397" type="curve"/>
      <point x="82" y="380" type="line"/>
      <point x="109" y="427"/>
      <point x="143" y="453"/>
      <point x="191" y="453" type="curve" smooth="yes"/>
      <point x="245" y="453"/>
      <point x="289" y="419"/>
      <point x="289" y="356" type="curve" smooth="yes"/>
      <point x="289" y="281"/>
      <point x="232" y="220"/>
      <point x="37" y="40" type="curve"/>
      <point x="52" y="0" type="line"/>
      <point x="367" y="0" type="line"/>
      <point x="375" y="44"/>
      <point x="380" y="91"/>
      <point x="380" y="131" type="curve"/>
      <point x="347" y="135" type="line"/>
      <point x="325" y="76" type="line" smooth="yes"/>
      <point x="321" y="64"/>
      <point x="317" y="58"/>
      <point x="295" y="54" type="curve" smooth="yes"/>
      <point x="277" y="50"/>
      <point x="248" y="49"/>
      <point x="204" y="49" type="curve" smooth="yes"/>
    </contour>
  </outline>
</glyph>
<glyph name="three" format="1">
  <advance width="417"/>
  <unicode hex="0033"/>
  <outline>
    <contour>
      <point x="369" y="143" type="curve" smooth="yes"/>
      <point x="369" y="228"/>
      <point x="296" y="267"/>
      <point x="240" y="267" type="curve"/>
      <point x="289" y="284"/>
      <point x="342" y="332"/>
      <point x="342" y="399" type="curve" smooth="yes"/>
      <point x="342" y="463"/>
      <point x="284" y="508"/>
      <point x="209" y="508" type="curve" smooth="yes"/>
      <point x="145" y="508"/>
      <point x="86" y="476"/>
      <point x="60" y="425" type="curve"/>
      <point x="80" y="405" type="line"/>
      <point x="110" y="436"/>
      <point x="147" y="461"/>
      <point x="192" y="461" type="curve" smooth="yes"/>
      <point x="245" y="461"/>
      <point x="278" y="429"/>
      <point x="278" y="388" type="curve" smooth="yes"/>
      <point x="278" y="325"/>
      <point x="220" y="287"/>
      <point x="132" y="268" type="curve"/>
      <point x="142" y="234" type="line"/>
      <point x="160" y="236"/>
      <point x="180" y="240"/>
      <point x="198" y="246" type="curve"/>
      <point x="260" y="239"/>
      <point x="301" y="202"/>
      <point x="299" y="137" type="curve" smooth="yes"/>
      <point x="297" y="61"/>
      <point x="240" y="36"/>
      <point x="176" y="36" type="curve" smooth="yes"/>
      <point x="131" y="36"/>
      <point x="89" y="49"/>
      <point x="55" y="69" type="curve"/>
      <point x="38" y="44" type="line"/>
      <point x="71" y="13"/>
      <point x="129" y="-8"/>
      <point x="188" y="-8" type="curve" smooth="yes"/>
      <point x="290" y="-8"/>
      <point x="369" y="57"/>
    </contour>
  </outline>
</glyph>
<glyph name="four" format="1">
  <advance width="1194"/>
  <unicode hex="0034"/>
  <outline>
    <contour>
      <point x="117" y="272" type="line"/>
      <point x="1112" y="272" type="line"/>
      <point x="1112" y="405" type="line"/>
      <point x="119" y="373" type="line"/>
      <point x="155" y="320" type="line"/>
      <point x="332" y="516"/>
      <point x="506" y="807"/>
      <point x="813" y="1342" type="curve"/>
      <point x="791" y="1396" type="line"/>
      <point x="623" y="1396" type="line"/>
      <point x="447" y="1045"/>
      <point x="250" y="706"/>
      <point x="52" y="380" type="curve"/>
    </contour>
    <contour>
      <point x="719" y="0" type="line"/>
      <point x="889" y="0" type="line"/>
      <point x="889" y="743" type="line"/>
      <point x="739" y="733" type="line"/>
      <point x="719" y="323" type="line"/>
    </contour>
  </outline>
</glyph>
<glyph name="five" format="1">
  <advance width="423"/>
  <unicode hex="0035"/>
  <outline>
    <contour>
      <point x="59" y="79" type="curve"/>
      <point x="40" y="52" type="line"/>
      <point x="69" y="20"/>
      <point x="121" y="-8"/>
      <point x="191" y="-8" type="curve" smooth="yes"/>
      <point x="303" y="-8"/>
      <point x="375" y="63"/>
      <point x="375" y="167" type="curve" smooth="yes"/>
      <point x="375" y="261"/>
      <point x="316" y="320"/>
      <point x="217" y="320" type="curve" smooth="yes"/>
      <point x="185" y="320"/>
      <point x="152" y="313"/>
      <point x="122" y="293" type="curve"/>
      <point x="134" y="448" type="line"/>
      <point x="344" y="448" type="line"/>
      <point x="351" y="499" type="line"/>
      <point x="88" y="499" type="line"/>
      <point x="74" y="270" type="line"/>
      <point x="100" y="251" type="line"/>
      <point x="132" y="268"/>
      <point x="165" y="275"/>
      <point x="191" y="275" type="curve" smooth="yes"/>
      <point x="265" y="275"/>
      <point x="305" y="227"/>
      <point x="305" y="159" type="curve" smooth="yes"/>
      <point x="305" y="79"/>
      <point x="252" y="36"/>
      <point x="179" y="36" type="curve" smooth="yes"/>
      <point x="128" y="36"/>
      <point x="88" y="56"/>
    </contour>
  </outline>
</glyph>
<glyph name="six" format="1">
  <advance width="1246"/>
  <unicode hex="0036"/>
  <outline>
    <contour>
      <point x="633" y="-23" type="curve" smooth="yes"/>
      <point x="920" y="-23"/>
      <point x="1118" y="181"/>
      <point x="1118" y="458" type="curve" smooth="yes"/>
      <point x="1118" y="705"/>
      <point x="953" y="883"/>
      <point x="692" y="883" type="curve" smooth="yes"/>
      <point x="526" y="883"/>
      <point x="336" y="821"/>
      <point x="282" y="657" type="curve"/>
      <point x="291" y="616" type="line"/>
      <point x="362" y="709"/>
      <point x="520" y="758"/>
      <point x="642" y="758" type="curve" smooth="yes"/>
      <point x="826" y="758"/>
      <point x="935" y="624"/>
      <point x="935" y="428" type="curve" smooth="yes"/>
      <point x="935" y="240"/>
      <point x="840" y="83"/>
      <point x="648" y="83" type="curve" smooth="yes"/>
      <point x="430" y="83"/>
      <point x="331" y="296"/>
      <point x="331" y="566" type="curve" smooth="yes"/>
      <point x="331" y="627" type="line" smooth="yes"/>
      <point x="331" y="991"/>
      <point x="491" y="1280"/>
      <point x="800" y="1280" type="curve" smooth="yes"/>
      <point x="865" y="1280"/>
      <point x="937" y="1266"/>
      <point x="1019" y="1229" type="curve"/>
      <point x="1050" y="1318" type="line"/>
      <point x="975" y="1366"/>
      <point x="879" y="1396"/>
      <point x="762" y="1396" type="curve" smooth="yes"/>
      <point x="367" y="1396"/>
      <point x="141" y="1062"/>
      <point x="141" y="607" type="curve" smooth="yes"/>
      <point x="141" y="202"/>
      <point x="332" y="-23"/>
    </contour>
  </outline>
</glyph>
<glyph name="seven" format="1">
  <advance width="405"/>
  <unicode hex="0037"/>
  <outline>
    <contour>
      <point x="331" y="448" type="line"/>
      <point x="234" y="347"/>
      <point x="159" y="178"/>
      <point x="137" y="16" type="curve"/>
      <point x="148" y="0" type="line"/>
      <point x="207" y="0" type="line"/>
      <point x="224" y="198"/>
      <point x="295" y="352"/>
      <point x="382" y="457" type="curve"/>
      <point x="364" y="499" type="line"/>
      <point x="52" y="499" type="line"/>
      <point x="43" y="455"/>
      <point x="38" y="400"/>
      <point x="39" y="344" type="curve"/>
      <point x="74" y="345" type="line"/>
      <point x="96" y="421" type="line" smooth="yes"/>
      <point x="100" y="436"/>
      <point x="109" y="440"/>
      <point x="124" y="443" type="curve" smooth="yes"/>
      <point x="144" y="446"/>
      <point x="174" y="448"/>
      <point x="217" y="448" type="curve" smooth="yes"/>
    </contour>
  </outline>
</glyph>
<glyph name="eight" format="1">
  <advance width="458"/>
  <unicode hex="0038"/>
  <outline>
    <contour>
      <point x="48" y="126" type="curve" smooth="yes"/>
      <point x="48" y="41"/>
      <point x="128" y="-8"/>
      <point x="227" y="-8" type="curve" smooth="yes"/>
      <point x="331" y="-8"/>
      <point x="409" y="46"/>
      <point x="409" y="129" type="curve" smooth="yes"/>
      <point x="409" y="210"/>
      <point x="334" y="244"/>
      <point x="249" y="284" type="curve" smooth="yes"/>
      <point x="185" y="314"/>
      <point x="133" y="340"/>
      <point x="133" y="394" type="curve" smooth="yes"/>
      <point x="133" y="437"/>
      <point x="167" y="472"/>
      <point x="229" y="472" type="curve" smooth="yes"/>
      <point x="289" y="472"/>
      <point x="328" y="439"/>
      <point x="328" y="385" type="curve" smooth="yes"/>
      <point x="328" y="335"/>
      <point x="294" y="299"/>
      <point x="232" y="274" type="curve"/>
      <point x="263" y="258" type="line"/>
      <point x="332" y="272"/>
      <point x="389" y="329"/>
      <point x="389" y="392" type="curve" smooth="yes"/>
      <point x="389" y="460"/>
      <point x="323" y="508"/>
      <point x="234" y="508" type="curve" smooth="yes"/>
      <point x="143" y="508"/>
      <point x="75" y="456"/>
      <point x="75" y="381" type="curve" smooth="yes"/>
      <point x="75" y="298"/>
      <point x="158" y="256"/>
      <point x="227" y="226" type="curve" smooth="yes"/>
      <point x="287" y="200"/>
      <point x="343" y="179"/>
      <point x="343" y="117" type="curve" smooth="yes"/>
      <point x="343" y="63"/>
      <point x="300" y="29"/>
      <point x="233" y="29" type="curve" smooth="yes"/>
      <point x="168" y="29"/>
      <point x="113" y="62"/>
      <point x="113" y="132" type="curve" smooth="yes"/>
      <point x="113" y="184"/>
      <point x="143" y="229"/>
      <point x="215" y="255" type="curve"/>
      <point x="183" y="268" type="line"/>
      <point x="100" y="250"/>
      <point x="48" y="195"/>
    </contour>
  </outline>
</glyph>
<glyph name="nine" format="1">
  <advance width="452"/>
  <unicode hex="0039"/>
  <outline>
    <contour>
      <point x="222" y="508" type="curve" smooth="yes"/>
      <point x="116" y="508"/>
      <point x="45" y="433"/>
      <point x="45" y="332" type="curve" smooth="yes"/>
      <point x="45" y="243"/>
      <point x="104" y="178"/>
      <point x="202" y="178" type="curve" smooth="yes"/>
      <point x="265" y="178"/>
      <point x="328" y="205"/>
      <point x="349" y="253" type="curve"/>
      <point x="346" y="272" type="line"/>
      <point x="319" y="244"/>
      <point x="265" y="224"/>
      <point x="220" y="224" type="curve" smooth="yes"/>
      <point x="150" y="224"/>
      <point x="112" y="272"/>
      <point x="112" y="343" type="curve" smooth="yes"/>
      <point x="112" y="412"/>
      <point x="146" y="469"/>
      <point x="215" y="469" type="curve" smooth="yes"/>
      <point x="296" y="469"/>
      <point x="332" y="384"/>
      <point x="332" y="293" type="curve" smooth="yes"/>
      <point x="332" y="269" type="line" smooth="yes"/>
      <point x="332" y="129"/>
      <point x="275" y="34"/>
      <point x="173" y="34" type="curve" smooth="yes"/>
      <point x="136" y="34"/>
      <point x="104" y="47"/>
      <point x="83" y="59" type="curve"/>
      <point x="68" y="28" type="line"/>
      <point x="92" y="7"/>
      <point x="136" y="-8"/>
      <point x="186" y="-8" type="curve" smooth="yes"/>
      <point x="320" y="-8"/>
      <point x="400" y="106"/>
      <point x="400" y="276" type="curve" smooth="yes"/>
      <point x="400" y="426"/>
      <point x="331" y="508"/>
    </contour>
  </outline>
</glyph>
<glyph name="colon" format="1">
  <advance width="604"/>
  <unicode hex="003A"/>
  <outline>
    <contour>
      <point x="432" y="959" type="curve" smooth="yes"/>
      <point x="432" y="1036"/>
      <point x="379" y="1089"/>
      <point x="302" y="1089" type="curve" smooth="yes"/>
      <point x="225" y="1089"/>
      <point x="172" y="1036"/>
      <point x="172" y="959" type="curve" smooth="yes"/>
      <point x="172" y="883"/>
      <point x="225" y="829"/>
      <point x="302" y="829" type="curve" smooth="yes"/>
      <point x="379" y="829"/>
      <point x="432" y="883"/>
    </contour>
    <contour>
      <point x="432" y="108" type="curve" smooth="yes"/>
      <point x="432" y="185"/>
      <point x="379" y="238"/>
      <point x="302" y="238" type="curve" smooth="yes"/>
      <point x="225" y="238"/>
      <point x="172" y="185"/>
      <point x="172" y="108" type="curve" smooth="yes"/>
      <point x="172" y="32"/>
      <point x="225" y="-22"/>
      <point x="302" y="-22" type="curve" smooth="yes"/>
      <point x="379" y="-22"/>
      <point x="432" y="32"/>
    </contour>
  </outline>
</glyph>
<glyph name="semicolon" format="1">
  <advance width="241"/>
  <unicode hex="003B"/>
  <outline>
    <contour>
      <point x="134" y="-102"/>
      <point x="175" y="-42"/>
      <point x="175" y="24" type="curve" smooth="yes"/>
      <point x="175" y="77"/>
      <point x="147" y="101"/>
      <point x="118" y="101" type="curve" smooth="yes"/>
      <point x="92" y="101"/>
      <point x="73" y="80"/>
      <point x="73" y="56" type="curve" smooth="yes"/>
      <point x="73" y="32"/>
      <point x="88" y="19"/>
      <point x="101" y="11" type="curve" smooth="yes"/>
      <point x="112" y="6"/>
      <point x="118" y="2"/>
      <point x="118" y="-15" type="curve" smooth="yes"/>
      <point x="118" y="-47"/>
      <point x="99" y="-84"/>
      <point x="59" y="-118" type="curve"/>
      <point x="74" y="-138" type="line"/>
    </contour>
    <contour>
      <point x="167" y="349" type="curve" smooth="yes"/>
      <point x="167" y="377"/>
      <point x="148" y="396"/>
      <point x="120" y="396" type="curve" smooth="yes"/>
      <point x="92" y="396"/>
      <point x="73" y="377"/>
      <point x="73" y="349" type="curve" smooth="yes"/>
      <point x="73" y="321"/>
      <point x="92" y="301"/>
      <point x="120" y="301" type="curve" smooth="yes"/>
      <point x="148" y="301"/>
      <point x="167" y="321"/>
    </contour>
  </outline>
</glyph>
<glyph name="less" format="1">
  <advance width="424"/>
  <unicode hex="003C"/>
  <outline>
    <contour>
      <point x="368" y="97" type="line"/>
      <point x="84" y="231" type="line"/>
      <point x="84" y="218" type="line"/>
      <point x="368" y="349" type="line"/>
      <point x="347" y="393" type="line"/>
      <point x="39" y="242" type="line"/>
      <point x="39" y="205" type="line"/>
      <point x="347" y="53" type="line"/>
    </contour>
  </outline>
</glyph>
<glyph name="equal" format="1">
  <advance width="456"/>
  <unicode hex="003D"/>
  <outline>
    <contour>
      <point x="393" y="268" type="line"/>
      <point x="393" y="314" type="line"/>
      <point x="64" y="314" type="line"/>
      <point x="64" y="268" type="line"/>
    </contour>
    <contour>
      <point x="393" y="133" type="line"/>
      <point x="393" y="179" type="line"/>
      <point x="64" y="179" type="line"/>
      <point x="64" y="133" type="line"/>
    </contour>
  </outline>
</glyph>
<glyph name="greater" format="1">
  <advance width="424"/>
  <unicode hex="003E"/>
  <outline>
    <contour>
      <point x="385" y="205" type="line"/>
      <point x="385" y="242" type="line"/>
      <point x="76" y="393" type="line"/>
      <point x="56" y="349" type="line"/>
      <point x="340" y="216" type="line"/>
      <point x="340" y="229" type="line"/>
      <point x="56" y="97" type="line"/>
      <point x="76" y="53" type="line"/>
    </contour>
  </outline>
</glyph>
<glyph name="question" format="1">
  <advance width="379"/>
  <unicode hex="003F"/>
  <outline>
    <contour>
      <point x="176" y="163" type="line"/>
      <point x="183" y="227" type="line" smooth="yes"/>
      <point x="187" y="268"/>
      <point x="198" y="278"/>
      <point x="240" y="314" type="curve" smooth="yes"/>
      <point x="296" y="361"/>
      <point x="351" y="405"/>
      <point x="351" y="478" type="curve" smooth="yes"/>
      <point x="351" y="558"/>
      <point x="285" y="635"/>
      <point x="177" y="635" type="curve" smooth="yes"/>
      <point x="116" y="635"/>
      <point x="62" y="610"/>
      <point x="31" y="584" type="curve"/>
      <point x="31" y="544"/>
      <point x="37" y="499"/>
      <point x="48" y="463" type="curve"/>
      <point x="84" y="463" type="line"/>
      <point x="91" y="531" type="line" smooth="yes"/>
      <point x="92" y="545"/>
      <point x="95" y="556"/>
      <point x="106" y="567" type="curve" smooth="yes"/>
      <point x="121" y="581"/>
      <point x="152" y="595"/>
      <point x="187" y="595" type="curve" smooth="yes"/>
      <point x="250" y="595"/>
      <point x="282" y="551"/>
      <point x="282" y="492" type="curve" smooth="yes"/>
      <point x="282" y="435"/>
      <point x="253" y="404"/>
      <point x="188" y="344" type="curve" smooth="yes"/>
      <point x="150" y="309"/>
      <point x="129" y="292"/>
      <point x="129" y="251" type="curve" smooth="yes"/>
      <point x="129" y="227"/>
      <point x="137" y="191"/>
      <point x="144" y="163" type="curve"/>
    </contour>
    <contour>
      <point x="191" y="-8"/>
      <point x="208" y="10"/>
      <point x="208" y="35" type="curve" smooth="yes"/>
      <point x="208" y="60"/>
      <point x="191" y="78"/>
      <point x="165" y="78" type="curve" smooth="yes"/>
      <point x="140" y="78"/>
      <point x="123" y="60"/>
      <point x="123" y="35" type="curve" smooth="yes"/>
      <point x="123" y="10"/>
      <point x="140" y="-8"/>
      <point x="165" y="-8" type="curve" smooth="yes"/>
    </contour>
  </outline>
</glyph>
<glyph name="at" format="1">
  <advance width="2117"/>
  <unicode hex="0040"/>
  <outline>
    <contour>
      <point x="1256" y="611" type="curve" smooth="yes"/>
      <point x="1170" y="361"/>
      <point x="1025" y="122"/>
      <point x="886" y="122" type="curve" smooth="yes"/>
      <point x="778" y="122"/>
      <point x="733" y="265"/>
      <point x="733" y="427" type="curve" smooth="yes"/>
      <point x="733" y="688"/>
      <point x="850" y="919"/>
      <point x="1069" y="919" type="curve" smooth="yes"/>
      <point x="1149" y="919"/>
      <point x="1266" y="886"/>
      <point x="1342" y="800" type="curve"/>
      <point x="1374" y="959" type="line"/>
      <point x="1286" y="1013"/>
      <point x="1188" y="1040"/>
      <point x="1101" y="1040" type="curve" smooth="yes"/>
      <point x="770" y="1040"/>
      <point x="572" y="674"/>
      <point x="572" y="373" type="curve" smooth="yes"/>
      <point x="572" y="145"/>
      <point x="685" y="-26"/>
      <point x="847" y="-26" type="curve" smooth="yes"/>
      <point x="1054" y="-26"/>
      <point x="1223" y="256"/>
      <point x="1306" y="516" type="curve"/>
      <point x="1302" y="516"/>
      <point x="1299" y="517"/>
      <point x="1295" y="517" type="curve"/>
      <point x="1269" y="385"/>
      <point x="1258" y="284"/>
      <point x="1258" y="214" type="curve" smooth="yes"/>
      <point x="1258" y="82"/>
      <point x="1297" y="-26"/>
      <point x="1419" y="-26" type="curve" smooth="yes"/>
      <point x="1610" y="-26"/>
      <point x="1983" y="240"/>
      <point x="1983" y="779" type="curve" smooth="yes"/>
      <point x="1983" y="1283"/>
      <point x="1656" y="1540"/>
      <point x="1217" y="1540" type="curve" smooth="yes"/>
      <point x="641" y="1540"/>
      <point x="124" y="1097"/>
      <point x="124" y="386" type="curve" smooth="yes"/>
      <point x="124" y="-146"/>
      <point x="413" y="-512"/>
      <point x="929" y="-512" type="curve" smooth="yes"/>
      <point x="1147" y="-512"/>
      <point x="1335" y="-447"/>
      <point x="1437" y="-366" type="curve"/>
      <point x="1402" y="-296" type="line"/>
      <point x="1316" y="-352"/>
      <point x="1117" y="-396"/>
      <point x="960" y="-396" type="curve" smooth="yes"/>
      <point x="558" y="-396"/>
      <point x="262" y="-106"/>
      <point x="262" y="420" type="curve" smooth="yes"/>
      <point x="262" y="1047"/>
      <point x="684" y="1423"/>
      <point x="1167" y="1423" type="curve" smooth="yes"/>
      <point x="1523" y="1423"/>
      <point x="1860" y="1219"/>
      <point x="1860" y="747" type="curve" smooth="yes"/>
      <point x="1860" y="333"/>
      <point x="1601" y="104"/>
      <point x="1475" y="104" type="curve" smooth="yes"/>
      <point x="1431" y="104"/>
      <point x="1407" y="132"/>
      <point x="1407" y="257" type="curve" smooth="yes"/>
      <point x="1407" y="444"/>
      <point x="1461" y="766"/>
      <point x="1507" y="996" type="curve"/>
      <point x="1395" y="1033" type="line"/>
      <point x="1338" y="939" type="line"/>
      <point x="1326" y="862"/>
      <point x="1303" y="748"/>
    </contour>
  </outline>
</glyph>
<glyph name="A" format="1">
  <advance width="555"/>
  <unicode hex="0041"/>
  <outline>
    <contour>
      <point x="128" y="176" type="line"/>
      <point x="405" y="176" type="line"/>
      <point x="390" y="214" type="line"/>
      <point x="140" y="214" type="line"/>
    </contour>
    <contour>
      <point x="305" y="570" type="line"/>
      <point x="244" y="570" type="line"/>
      <point x="68" y="62" type="line" smooth="yes"/>
      <point x="65" y="51"/>
      <point x="57" y="45"/>
      <point x="46" y="42" type="curve" smooth="yes"/>
      <point x="3" y="32" type="line"/>
      <point x="3" y="0" type="line"/>
      <point x="184" y="0" type="line"/>
      <point x="184" y="32" type="line"/>
      <point x="112" y="46" type="line"/>
      <point x="278" y="543" type="line"/>
      <point x="252" y="543" type="line"/>
      <point x="431" y="46" type="line"/>
      <point x="358" y="32" type="line"/>
      <point x="358" y="0" type="line"/>
      <point x="554" y="0" type="line"/>
      <point x="554" y="32" type="line"/>
      <point x="513" y="42" type="line" smooth="yes"/>
      <point x="502" y="45"/>
      <point x="495" y="51"/>
      <point x="491" y="62" type="curve" smooth="yes"/>
    </contour>
    <contour>
      <point x="267" y="0" type="move" name="btm"/>
    </contour>
    <contour>
      <point x="277" y="568" type="move" name="top"/>
    </contour>
  </outline>
</glyph>
<glyph name="B" format="1">
  <advance width="1477"/>
  <unicode hex="0042"/>
  <outline>
    <contour>
      <point x="1246" y="1214" type="curve" smooth="yes"/>
      <point x="1246" y="1448"/>
      <point x="1101" y="1578"/>
      <point x="744" y="1578" type="curve" smooth="yes"/>
      <point x="633" y="1578"/>
      <point x="538" y="1562"/>
      <point x="416" y="1562" type="curve" smooth="yes"/>
      <point x="116" y="1562" type="line"/>
      <point x="116" y="1474" type="line"/>
      <point x="285" y="1440" type="line" smooth="yes"/>
      <point x="313" y="1434"/>
      <point x="331" y="1412"/>
      <point x="331" y="1384" type="curve" smooth="yes"/>
      <point x="331" y="175" type="line" smooth="yes"/>
      <point x="331" y="146"/>
      <point x="311" y="123"/>
      <point x="283" y="118" type="curve" smooth="yes"/>
      <point x="116" y="88" type="line"/>
      <point x="116" y="0" type="line"/>
      <point x="408" y="0" type="line" smooth="yes"/>
      <point x="564" y="0"/>
      <point x="633" y="-12"/>
      <point x="732" y="-12" type="curve" smooth="yes"/>
      <point x="1207" y="-12"/>
      <point x="1355" y="195"/>
      <point x="1355" y="458" type="curve" smooth="yes"/>
      <point x="1355" y="702"/>
      <point x="1182" y="854"/>
      <point x="900" y="827" type="curve"/>
      <point x="900" y="818" type="line"/>
      <point x="1131" y="844"/>
      <point x="1246" y="1008"/>
    </contour>
    <contour>
      <point x="441" y="753" type="line"/>
      <point x="543" y="757"/>
      <point x="715" y="758"/>
      <point x="793" y="758" type="curve" smooth="yes"/>
      <point x="1057" y="758"/>
      <point x="1172" y="662"/>
      <point x="1172" y="429" type="curve" smooth="yes"/>
      <point x="1172" y="196"/>
      <point x="1049" y="84"/>
      <point x="731" y="84" type="curve" smooth="yes"/>
      <point x="661" y="84"/>
      <point x="559" y="93"/>
      <point x="499" y="101" type="curve"/>
      <point x="499" y="1471" type="line"/>
      <point x="540" y="1472"/>
      <point x="613" y="1484"/>
      <point x="713" y="1484" type="curve" smooth="yes"/>
      <point x="984" y="1484"/>
      <point x="1077" y="1386"/>
      <point x="1077" y="1187" type="curve" smooth="yes"/>
      <point x="1077" y="965"/>
      <point x="959" y="863"/>
      <point x="752" y="863" type="curve" smooth="yes"/>
      <point x="695" y="863"/>
      <point x="544" y="862"/>
      <point x="439" y="867" type="curve"/>
    </contour>
    <contour>
      <point x="790" y="0" type="move" name="btm"/>
    </contour>
    <contour>
      <point x="790" y="1562" type="move" name="top"/>
    </contour>
  </outline>
</glyph>
<glyph name="C" format="1">
  <advance width="1431"/>
  <unicode hex="0043"/>
  <outline>
    <contour>
      <point x="847" y="-26" type="curve" smooth="yes"/>
      <point x="1003" y="-26"/>
      <point x="1167" y="5"/>
      <point x="1275" y="52" type="curve"/>
      <point x="1294" y="160"/>
      <point x="1306" y="285"/>
      <point x="1304" y="391" type="curve"/>
      <point x="1204" y="401" type="line"/>
      <point x="1136" y="204" type="line" smooth="yes"/>
      <point x="1125" y="173"/>
      <point x="1112" y="153"/>
      <point x="1083" y="136" type="curve" smooth="yes"/>
      <point x="1021" y="100"/>
      <point x="921" y="73"/>
      <point x="824" y="73" type="curve" smooth="yes"/>
      <point x="468" y="73"/>
      <point x="328" y="382"/>
      <point x="328" y="792" type="curve" smooth="yes"/>
      <point x="328" y="1272"/>
      <point x="520" y="1485"/>
      <point x="823" y="1485" type="curve" smooth="yes"/>
      <point x="933" y="1485"/>
      <point x="1040" y="1457"/>
      <point x="1086" y="1431" type="curve" smooth="yes"/>
      <point x="1114" y="1415"/>
      <point x="1128" y="1397"/>
      <point x="1135" y="1365" type="curve" smooth="yes"/>
      <point x="1179" y="1153" type="line"/>
      <point x="1279" y="1153" type="line"/>
      <point x="1295" y="1270"/>
      <point x="1304" y="1402"/>
      <point x="1300" y="1513" type="curve"/>
      <point x="1166" y="1565"/>
      <point x="999" y="1585"/>
      <point x="879" y="1585" type="curve" smooth="yes"/>
      <point x="424" y="1585"/>
      <point x="135" y="1300"/>
      <point x="135" y="755" type="curve" smooth="yes"/>
      <point x="135" y="271"/>
      <point x="363" y="-26"/>
    </contour>
    <contour>
      <point x="826" y="0" type="move" name="btm"/>
    </contour>
    <contour>
      <point x="835" y="1562" type="move" name="top"/>
    </contour>
  </outline>
</glyph>
<glyph name="D" format="1">
  <advance width="605"/>
  <unicode hex="0044"/>
  <outline>
    <contour>
      <point x="151" y="568" type="curve" smooth="yes"/>
      <point x="42" y="568" type="line"/>
      <point x="42" y="536" type="line"/>
      <point x="104" y="524" type="line" smooth="yes"/>
      <point x="114" y="521"/>
      <point x="120" y="513"/>
      <point x="120" y="503" type="curve" smooth="yes"/>
      <point x="120" y="65" type="line" smooth="yes"/>
      <point x="120" y="53"/>
      <point x="113" y="45"/>
      <point x="101" y="43" type="curve" smooth="yes"/>
      <point x="42" y="32" type="line"/>
      <point x="42" y="0" type="line"/>
      <point x="152" y="0" type="line" smooth="yes"/>
      <point x="195" y="0"/>
      <point x="241" y="-5"/>
      <point x="273" y="-5" type="curve" smooth="yes"/>
      <point x="445" y="-9"/>
      <point x="556" y="96"/>
      <point x="556" y="300" type="curve" smooth="yes"/>
      <point x="556" y="475"/>
      <point x="473" y="574"/>
      <point x="284" y="574" type="curve" smooth="yes"/>
      <point x="238" y="574"/>
      <point x="197" y="568"/>
    </contour>
    <contour>
      <point x="182" y="37" type="curve"/>
      <point x="182" y="533" type="line"/>
      <point x="202" y="534"/>
      <point x="231" y="537"/>
      <point x="264" y="537" type="curve" smooth="yes"/>
      <point x="415" y="537"/>
      <point x="490" y="464"/>
      <point x="490" y="288" type="curve" smooth="yes"/>
      <point x="490" y="113"/>
      <point x="415" y="35"/>
      <point x="283" y="31" type="curve" smooth="yes"/>
      <point x="252" y="30"/>
      <point x="206" y="33"/>
    </contour>
    <contour>
      <point x="312" y="0" type="move" name="btm"/>
    </contour>
    <contour>
      <point x="291" y="568" type="move" name="top"/>
    </contour>
  </outline>
</glyph>
<glyph name="E" format="1">
  <advance width="505"/>
  <unicode hex="0045"/>
  <outline>
    <contour>
      <point x="433" y="433" type="line"/>
      <point x="437" y="482"/>
      <point x="437" y="524"/>
      <point x="435" y="568" type="curve"/>
      <point x="42" y="568" type="line"/>
      <point x="42" y="536" type="line"/>
      <point x="101" y="524" type="line" smooth="yes"/>
      <point x="113" y="522"/>
      <point x="120" y="513"/>
      <point x="120" y="501" type="curve" smooth="yes"/>
      <point x="120" y="66" type="line" smooth="yes"/>
      <point x="120" y="53"/>
      <point x="114" y="45"/>
      <point x="101" y="43" type="curve" smooth="yes"/>
      <point x="42" y="32" type="line"/>
      <point x="42" y="0" type="line"/>
      <point x="453" y="0" type="line"/>
      <point x="462" y="47"/>
      <point x="468" y="96"/>
      <point x="469" y="140" type="curve"/>
      <point x="437" y="144" type="line"/>
      <point x="411" y="69" type="line" smooth="yes"/>
      <point x="407" y="59"/>
      <point x="402" y="52"/>
      <point x="390" y="48" type="curve" smooth="yes"/>
      <point x="372" y="41"/>
      <point x="340" y="39"/>
      <point x="305" y="39" type="curve" smooth="yes"/>
      <point x="182" y="39" type="line"/>
      <point x="182" y="272" type="line"/>
      <point x="366" y="268" type="line"/>
      <point x="366" y="317" type="line"/>
      <point x="182" y="311" type="line"/>
      <point x="182" y="532" type="line"/>
      <point x="283" y="532" type="line" smooth="yes"/>
      <point x="317" y="532"/>
      <point x="346" y="530"/>
      <point x="364" y="524" type="curve" smooth="yes"/>
      <point x="376" y="519"/>
      <point x="382" y="513"/>
      <point x="385" y="503" type="curve" smooth="yes"/>
      <point x="400" y="433" type="line"/>
    </contour>
    <contour>
      <point x="273" y="0" type="move" name="btm"/>
    </contour>
    <contour>
      <point x="265" y="568" type="move" name="top"/>
    </contour>
  </outline>
</glyph>
<glyph name="F" format="1">
  <advance width="464"/>
  <unicode hex="0046"/>
  <outline>
    <contour>
      <point x="366" y="260" type="line"/>
      <point x="366" y="310" type="line"/>
      <point x="182" y="304" type="line"/>
      <point x="182" y="532" type="line"/>
      <point x="283" y="532" type="line" smooth="yes"/>
      <point x="317" y="532"/>
      <point x="346" y="530"/>
      <point x="364" y="524" type="curve" smooth="yes"/>
      <point x="376" y="519"/>
      <point x="382" y="513"/>
      <point x="385" y="503" type="curve" smooth="yes"/>
      <point x="400" y="433" type="line"/>
      <point x="433" y="433" type="line"/>
      <point x="437" y="482"/>
      <point x="437" y="524"/>
      <point x="435" y="568" type="curve"/>
      <point x="42" y="568" type="line"/>
      <point x="42" y="536" type="line"/>
      <point x="101" y="524" type="line" smooth="yes"/>
      <point x="113" y="522"/>
      <point x="120" y="513"/>
      <point x="120" y="501" type="curve" smooth="yes"/>
      <point x="120" y="66" type="line" smooth="yes"/>
      <point x="120" y="53"/>
      <point x="114" y="45"/>
      <point x="101" y="43" type="curve" smooth="yes"/>
      <point x="42" y="32" type="line"/>
      <point x="42" y="0" type="line"/>
      <point x="293" y="0" type="line"/>
      <point x="293" y="32" type="line"/>
      <point x="201" y="44" type="line" smooth="yes"/>
      <point x="190" y="45"/>
      <point x="182" y="54"/>
      <point x="182" y="65" type="curve" smooth="yes"/>
      <point x="182" y="265" type="line"/>
    </contour>
    <contour>
      <point x="254" y="0" type="move" name="btm"/>
    </contour>
    <contour>
      <point x="254" y="568" type="move" name="top"/>
    </contour>
  </outline>
</glyph>
<glyph name="G" format="1">
  <advance width="579"/>
  <unicode hex="0047"/>
  <outline>
    <contour>
      <point x="472" y="79" type="curve"/>
      <point x="464" y="114" type="line"/>
      <point x="431" y="55"/>
      <point x="373" y="37"/>
      <point x="315" y="37" type="curve" smooth="yes"/>
      <point x="174" y="37"/>
      <point x="118" y="150"/>
      <point x="118" y="289" type="curve" smooth="yes"/>
      <point x="118" y="461"/>
      <point x="201" y="541"/>
      <point x="312" y="541" type="curve" smooth="yes"/>
      <point x="356" y="541"/>
      <point x="393" y="531"/>
      <point x="415" y="518" type="curve" smooth="yes"/>
      <point x="427" y="512"/>
      <point x="431" y="504"/>
      <point x="434" y="490" type="curve" smooth="yes"/>
      <point x="450" y="420" type="line"/>
      <point x="486" y="420" type="line"/>
      <point x="492" y="461"/>
      <point x="496" y="499"/>
      <point x="494" y="540" type="curve"/>
      <point x="445" y="567"/>
      <point x="387" y="576"/>
      <point x="329" y="576" type="curve" smooth="yes"/>
      <point x="165" y="576"/>
      <point x="48" y="475"/>
      <point x="48" y="277" type="curve" smooth="yes"/>
      <point x="48" y="110"/>
      <point x="133" y="-8"/>
      <point x="296" y="-8" type="curve" smooth="yes"/>
      <point x="375" y="-8"/>
      <point x="432" y="20"/>
    </contour>
    <contour>
      <point x="498" y="4" type="line"/>
      <point x="498" y="239" type="line"/>
      <point x="544" y="246" type="line"/>
      <point x="544" y="285" type="line"/>
      <point x="325" y="285" type="line"/>
      <point x="325" y="246" type="line"/>
      <point x="435" y="239" type="line"/>
      <point x="435" y="47" type="line"/>
      <point x="439" y="47" type="line"/>
      <point x="481" y="-3" type="line"/>
    </contour>
    <contour>
      <point x="294" y="0" type="move" name="btm"/>
    </contour>
    <contour>
      <point x="307" y="568" type="move" name="top"/>
    </contour>
  </outline>
</glyph>
<glyph name="H" format="1">
  <advance width="655"/>
  <unicode hex="0048"/>
  <outline>
    <contour>
      <point x="613" y="568" type="line"/>
      <point x="400" y="568" type="line"/>
      <point x="400" y="536" type="line"/>
      <point x="454" y="524" type="line" smooth="yes"/>
      <point x="467" y="521"/>
      <point x="473" y="514"/>
      <point x="473" y="501" type="curve" smooth="yes"/>
      <point x="473" y="311" type="line"/>
      <point x="182" y="311" type="line"/>
      <point x="182" y="501" type="line" smooth="yes"/>
      <point x="182" y="514"/>
      <point x="189" y="522"/>
      <point x="201" y="524" type="curve" smooth="yes"/>
      <point x="258" y="536" type="line"/>
      <point x="258" y="568" type="line"/>
      <point x="42" y="568" type="line"/>
      <point x="42" y="536" type="line"/>
      <point x="101" y="524" type="line" smooth="yes"/>
      <point x="113" y="522"/>
      <point x="120" y="513"/>
      <point x="120" y="500" type="curve" smooth="yes"/>
      <point x="120" y="67" type="line" smooth="yes"/>
      <point x="120" y="53"/>
      <point x="114" y="45"/>
      <point x="101" y="43" type="curve" smooth="yes"/>
      <point x="42" y="32" type="line"/>
      <point x="42" y="0" type="line"/>
      <point x="258" y="0" type="line"/>
      <point x="258" y="32" type="line"/>
      <point x="202" y="43" type="line" smooth="yes"/>
      <point x="189" y="45"/>
      <point x="182" y="53"/>
      <point x="182" y="66" type="curve" smooth="yes"/>
      <point x="182" y="272" type="line"/>
      <point x="473" y="272" type="line"/>
      <point x="473" y="67" type="line" smooth="yes"/>
      <point x="473" y="53"/>
      <point x="466" y="45"/>
      <point x="453" y="43" type="curve" smooth="yes"/>
      <point x="400" y="32" type="line"/>
      <point x="400" y="0" type="line"/>
      <point x="613" y="0" type="line"/>
      <point x="613" y="32" type="line"/>
      <point x="555" y="43" type="line" smooth="yes"/>
      <point x="541" y="45"/>
      <point x="535" y="53"/>
      <point x="535" y="67" type="curve" smooth="yes"/>
      <point x="535" y="500" type="line" smooth="yes"/>
      <point x="535" y="513"/>
      <point x="542" y="522"/>
      <point x="555" y="524" type="curve" smooth="yes"/>
      <point x="613" y="536" type="line"/>
    </contour>
    <contour>
      <point x="322" y="0" type="move" name="btm"/>
    </contour>
    <contour>
      <point x="329" y="568" type="move" name="top"/>
    </contour>
  </outline>
</glyph>
<glyph name="I" format="1">
  <advance width="303"/>
  <unicode hex="0049"/>
  <outline>
    <contour>
      <point x="260" y="568" type="line"/>
      <point x="42" y="568" type="line"/>
      <point x="42" y="536" type="line"/>
      <point x="101" y="524" type="line" smooth="yes"/>
      <point x="113" y="522"/>
      <point x="120" y="513"/>
      <point x="120" y="501" type="curve" smooth="yes"/>
      <point x="120" y="66" type="line" smooth="yes"/>
      <point x="120" y="53"/>
      <point x="114" y="45"/>
      <point x="101" y="43" type="curve" smooth="yes"/>
      <point x="42" y="32" type="line"/>
      <point x="42" y="0" type="line"/>
      <point x="260" y="0" type="line"/>
      <point x="260" y="32" type="line"/>
      <point x="202" y="43" type="line" smooth="yes"/>
      <point x="189" y="45"/>
      <point x="182" y="53"/>
      <point x="182" y="66" type="curve" smooth="yes"/>
      <point x="182" y="501" type="line" smooth="yes"/>
      <point x="182" y="514"/>
      <point x="189" y="522"/>
      <point x="202" y="524" type="curve" smooth="yes"/>
      <point x="260" y="536" type="line"/>
    </contour>
    <contour>
      <point x="152" y="0" type="move" name="btm"/>
    </contour>
    <contour>
      <point x="151" y="568" type="move" name="top"/>
    </contour>
  </outline>
</glyph>
<glyph name="J" format="1">
  <advance width="283"/>
  <unicode hex="004A"/>
  <outline>
    <contour>
      <point x="194" y="524" type="curve" smooth="yes"/>
      <point x="245" y="536" type="line"/>
      <point x="245" y="568" type="line"/>
      <point x="34" y="568" type="line"/>
      <point x="34" y="536" type="line"/>
      <point x="93" y="524" type="line" smooth="yes"/>
      <point x="105" y="522"/>
      <point x="112" y="513"/>
      <point x="112" y="501" type="curve" smooth="yes"/>
      <point x="112" y="149" type="line" smooth="yes"/>
      <point x="112" y="13"/>
      <point x="91" y="-32"/>
      <point x="1" y="-102" type="curve"/>
      <point x="19" y="-132" type="line"/>
      <point x="160" y="-60"/>
      <point x="174" y="-5"/>
      <point x="174" y="163" type="curve" smooth="yes"/>
      <point x="174" y="501" type="line" smooth="yes"/>
      <point x="174" y="514"/>
      <point x="181" y="521"/>
    </contour>
    <contour>
      <point x="106" y="0" type="move" name="btm"/>
    </contour>
    <contour>
      <point x="140" y="568" type="move" name="top"/>
    </contour>
  </outline>
</glyph>
<glyph name="K" format="1">
  <advance width="567"/>
  <unicode hex="004B"/>
  <outline>
    <contour>
      <point x="266" y="0" type="line"/>
      <point x="266" y="32" type="line"/>
      <point x="203" y="43" type="line" smooth="yes"/>
      <point x="189" y="46"/>
      <point x="182" y="52"/>
      <point x="182" y="66" type="curve" smooth="yes"/>
      <point x="182" y="501" type="line" smooth="yes"/>
      <point x="182" y="514"/>
      <point x="189" y="522"/>
      <point x="202" y="524" type="curve" smooth="yes"/>
      <point x="260" y="536" type="line"/>
      <point x="260" y="568" type="line"/>
      <point x="42" y="568" type="line"/>
      <point x="42" y="536" type="line"/>
      <point x="100" y="524" type="line" smooth="yes"/>
      <point x="113" y="522"/>
      <point x="120" y="515"/>
      <point x="120" y="501" type="curve" smooth="yes"/>
      <point x="120" y="66" type="line" smooth="yes"/>
      <point x="120" y="52"/>
      <point x="113" y="45"/>
      <point x="100" y="43" type="curve" smooth="yes"/>
      <point x="42" y="32" type="line"/>
      <point x="42" y="0" type="line"/>
    </contour>
    <contour>
      <point x="286" y="310" type="line"/>
      <point x="469" y="511" type="line" smooth="yes"/>
      <point x="477" y="519"/>
      <point x="484" y="522"/>
      <point x="495" y="524" type="curve" smooth="yes"/>
      <point x="544" y="536" type="line"/>
      <point x="544" y="568" type="line"/>
      <point x="356" y="568" type="line"/>
      <point x="356" y="536" type="line"/>
      <point x="422" y="522" type="line"/>
      <point x="164" y="231" type="line"/>
      <point x="164" y="177" type="line"/>
    </contour>
    <contour>
      <point x="561" y="0" type="line"/>
      <point x="561" y="32" type="line"/>
      <point x="519" y="42" type="line" smooth="yes"/>
      <point x="502" y="46"/>
      <point x="495" y="51"/>
      <point x="481" y="72" type="curve" smooth="yes"/>
      <point x="386" y="222" type="line" smooth="yes"/>
      <point x="348" y="283"/>
      <point x="324" y="319"/>
      <point x="297" y="347" type="curve"/>
      <point x="257" y="304" type="line"/>
      <point x="278" y="275"/>
      <point x="299" y="242"/>
      <point x="324" y="200" type="curve" smooth="yes"/>
      <point x="392" y="83" type="line" smooth="yes"/>
      <point x="423" y="31"/>
      <point x="445" y="0"/>
      <point x="460" y="0" type="curve" smooth="yes"/>
    </contour>
    <contour>
      <point x="317" y="0" type="move" name="btm"/>
    </contour>
    <contour>
      <point x="296" y="568" type="move" name="top"/>
    </contour>
  </outline>
</glyph>
<glyph name="L" format="1">
  <advance width="491"/>
  <unicode hex="004C"/>
  <outline>
    <contour>
      <point x="405" y="69" type="line" smooth="yes"/>
      <point x="401" y="58"/>
      <point x="395" y="52"/>
      <point x="384" y="48" type="curve" smooth="yes"/>
      <point x="365" y="41"/>
      <point x="335" y="39"/>
      <point x="299" y="39" type="curve" smooth="yes"/>
      <point x="182" y="39" type="line"/>
      <point x="182" y="501" type="line" smooth="yes"/>
      <point x="182" y="514"/>
      <point x="189" y="522"/>
      <point x="202" y="524" type="curve" smooth="yes"/>
      <point x="278" y="536" type="line"/>
      <point x="278" y="568" type="line"/>
      <point x="42" y="568" type="line"/>
      <point x="42" y="536" type="line"/>
      <point x="101" y="525" type="line" smooth="yes"/>
      <point x="114" y="522"/>
      <point x="120" y="514"/>
      <point x="120" y="501" type="curve" smooth="yes"/>
      <point x="120" y="65" type="line" smooth="yes"/>
      <point x="120" y="52"/>
      <point x="114" y="44"/>
      <point x="101" y="42" type="curve" smooth="yes"/>
      <point x="42" y="32" type="line"/>
      <point x="42" y="0" type="line"/>
      <point x="451" y="0" type="line"/>
      <point x="461" y="48"/>
      <point x="466" y="108"/>
      <point x="467" y="157" type="curve"/>
      <point x="435" y="161" type="line"/>
    </contour>
    <contour>
      <point x="270" y="0" type="move" name="btm"/>
    </contour>
    <contour>
      <point x="176" y="568" type="move" name="top"/>
    </contour>
    <contour>
      <point x="264" y="333" type="move" name="topright"/>
    </contour>
  </outline>
</glyph>
<glyph name="M" format="1">
  <advance width="779"/>
  <unicode hex="004D"/>
  <outline>
    <contour>
      <point x="616" y="499" type="line" smooth="yes"/>
      <point x="614" y="513"/>
      <point x="620" y="522"/>
      <point x="634" y="524" type="curve" smooth="yes"/>
      <point x="701" y="536" type="line"/>
      <point x="701" y="568" type="line"/>
      <point x="525" y="568" type="line"/>
      <point x="380" y="82" type="line"/>
      <point x="409" y="82" type="line"/>
      <point x="243" y="568" type="line"/>
      <point x="68" y="568" type="line"/>
      <point x="68" y="536" type="line"/>
      <point x="135" y="524" type="line" smooth="yes"/>
      <point x="148" y="522"/>
      <point x="155" y="513"/>
      <point x="153" y="500" type="curve" smooth="yes"/>
      <point x="100" y="65" type="line" smooth="yes"/>
      <point x="99" y="52"/>
      <point x="92" y="44"/>
      <point x="80" y="42" type="curve" smooth="yes"/>
      <point x="25" y="32" type="line"/>
      <point x="25" y="0" type="line"/>
      <point x="220" y="0" type="line"/>
      <point x="220" y="32" type="line"/>
      <point x="147" y="44" type="line"/>
      <point x="205" y="547" type="line"/>
      <point x="184" y="547" type="line"/>
      <point x="368" y="25" type="line"/>
      <point x="408" y="25" type="line"/>
      <point x="566" y="547" type="line"/>
      <point x="544" y="547" type="line"/>
      <point x="627" y="44" type="line"/>
      <point x="558" y="32" type="line"/>
      <point x="558" y="0" type="line"/>
      <point x="762" y="0" type="line"/>
      <point x="762" y="32" type="line"/>
      <point x="708" y="42" type="line" smooth="yes"/>
      <point x="696" y="44"/>
      <point x="688" y="52"/>
      <point x="687" y="64" type="curve" smooth="yes"/>
    </contour>
    <contour>
      <point x="389" y="0" type="move" name="btm"/>
    </contour>
    <contour>
      <point x="392" y="568" type="move" name="top"/>
    </contour>
  </outline>
</glyph>
<glyph name="N" format="1">
  <advance width="644"/>
  <unicode hex="004E"/>
  <outline>
    <contour>
      <point x="553" y="524" type="curve" smooth="yes"/>
      <point x="605" y="536" type="line"/>
      <point x="605" y="568" type="line"/>
      <point x="407" y="568" type="line"/>
      <point x="407" y="536" type="line"/>
      <point x="469" y="524" type="line" smooth="yes"/>
      <point x="482" y="522"/>
      <point x="489" y="513"/>
      <point x="489" y="501" type="curve" smooth="yes"/>
      <point x="489" y="70" type="line"/>
      <point x="510" y="75" type="line"/>
      <point x="181" y="568" type="line"/>
      <point x="42" y="568" type="line"/>
      <point x="42" y="536" type="line"/>
      <point x="101" y="524" type="line" smooth="yes"/>
      <point x="113" y="522"/>
      <point x="120" y="513"/>
      <point x="120" y="501" type="curve" smooth="yes"/>
      <point x="120" y="66" type="line" smooth="yes"/>
      <point x="120" y="53"/>
      <point x="114" y="45"/>
      <point x="101" y="43" type="curve" smooth="yes"/>
      <point x="42" y="32" type="line"/>
      <point x="42" y="0" type="line"/>
      <point x="251" y="0" type="line"/>
      <point x="251" y="32" type="line"/>
      <point x="185" y="43" type="line" smooth="yes"/>
      <point x="172" y="45"/>
      <point x="165" y="53"/>
      <point x="165" y="66" type="curve" smooth="yes"/>
      <point x="165" y="513" type="line"/>
      <point x="144" y="510" type="line"/>
      <point x="485" y="0" type="line"/>
      <point x="534" y="0" type="line"/>
      <point x="534" y="501" type="line" smooth="yes"/>
      <point x="534" y="514"/>
      <point x="541" y="521"/>
    </contour>
    <contour>
      <point x="337" y="0" type="move" name="btm"/>
    </contour>
    <contour>
      <point x="316" y="568" type="move" name="top"/>
    </contour>
  </outline>
</glyph>
<glyph name="O" format="1">
  <advance width="583"/>
  <unicode hex="004F"/>
  <outline>
    <contour>
      <point x="282" y="-8" type="curve" smooth="yes"/>
      <point x="432" y="-8"/>
      <point x="534" y="101"/>
      <point x="534" y="293" type="curve" smooth="yes"/>
      <point x="534" y="468"/>
      <point x="454" y="576"/>
      <point x="301" y="576" type="curve" smooth="yes"/>
      <point x="153" y="576"/>
      <point x="49" y="470"/>
      <point x="49" y="275" type="curve" smooth="yes"/>
      <point x="49" y="100"/>
      <point x="130" y="-8"/>
    </contour>
    <contour>
      <point x="292" y="538" type="curve" smooth="yes"/>
      <point x="408" y="538"/>
      <point x="464" y="447"/>
      <point x="464" y="285" type="curve" smooth="yes"/>
      <point x="464" y="116"/>
      <point x="399" y="31"/>
      <point x="290" y="31" type="curve" smooth="yes"/>
      <point x="175" y="31"/>
      <point x="118" y="122"/>
      <point x="118" y="284" type="curve" smooth="yes"/>
      <point x="118" y="453"/>
      <point x="183" y="538"/>
    </contour>
    <contour>
      <point x="288" y="0" type="move" name="btm"/>
    </contour>
    <contour>
      <point x="292" y="568" type="move" name="top"/>
    </contour>
  </outline>
</glyph>
<glyph name="P" format="1">
  <advance width="506"/>
  <unicode hex="0050"/>
  <outline>
    <contour>
      <point x="182" y="533" type="line"/>
      <point x="203" y="533"/>
      <point x="227" y="537"/>
      <point x="263" y="537" type="curve" smooth="yes"/>
      <point x="361" y="537"/>
      <point x="407" y="505"/>
      <point x="407" y="415" type="curve" smooth="yes"/>
      <point x="407" y="296"/>
      <point x="337" y="260"/>
      <point x="262" y="260" type="curve" smooth="yes"/>
      <point x="223" y="260"/>
      <point x="200" y="262"/>
      <point x="163" y="264" type="curve"/>
      <point x="164" y="227" type="line"/>
      <point x="197" y="225"/>
      <point x="229" y="223"/>
      <point x="261" y="223" type="curve" smooth="yes"/>
      <point x="380" y="223"/>
      <point x="474" y="293"/>
      <point x="474" y="415" type="curve" smooth="yes"/>
      <point x="474" y="515"/>
      <point x="428" y="573"/>
      <point x="282" y="573" type="curve" smooth="yes"/>
      <point x="217" y="573"/>
      <point x="201" y="568"/>
      <point x="151" y="568" type="curve" smooth="yes"/>
      <point x="42" y="568" type="line"/>
      <point x="42" y="536" type="line"/>
      <point x="104" y="524" type="line" smooth="yes"/>
      <point x="114" y="521"/>
      <point x="120" y="512"/>
      <point x="120" y="502" type="curve" smooth="yes"/>
      <point x="120" y="65" type="line" smooth="yes"/>
      <point x="120" y="53"/>
      <point x="113" y="45"/>
      <point x="101" y="43" type="curve" smooth="yes"/>
      <point x="42" y="32" type="line"/>
      <point x="42" y="0" type="line"/>
      <point x="289" y="0" type="line"/>
      <point x="289" y="32" type="line"/>
      <point x="201" y="44" type="line" smooth="yes"/>
      <point x="190" y="45"/>
      <point x="182" y="54"/>
      <point x="182" y="65" type="curve" smooth="yes"/>
    </contour>
    <contour>
      <point x="263" y="0" type="move" name="btm"/>
    </contour>
    <contour>
      <point x="263" y="568" type="move" name="top"/>
    </contour>
  </outline>
</glyph>
<glyph name="Q" format="1">
  <advance width="583"/>
  <unicode hex="0051"/>
  <outline>
    <contour>
      <point x="505" y="-150" type="curve" smooth="yes"/>
      <point x="541" y="-150"/>
      <point x="573" y="-137"/>
      <point x="587" y="-128" type="curve"/>
      <point x="580" y="-97" type="line"/>
      <point x="572" y="-98"/>
      <point x="560" y="-98"/>
      <point x="549" y="-98" type="curve" smooth="yes"/>
      <point x="497" y="-98"/>
      <point x="464" y="-71"/>
      <point x="428" y="-42" type="curve" smooth="yes"/>
      <point x="388" y="-9"/>
      <point x="343" y="21"/>
      <point x="267" y="21" type="curve"/>
      <point x="243" y="-1" type="line"/>
      <point x="350" y="-1"/>
      <point x="387" y="-150"/>
    </contour>
    <contour>
      <point x="282" y="-8" type="curve" smooth="yes"/>
      <point x="432" y="-8"/>
      <point x="534" y="101"/>
      <point x="534" y="293" type="curve" smooth="yes"/>
      <point x="534" y="468"/>
      <point x="454" y="576"/>
      <point x="301" y="576" type="curve" smooth="yes"/>
      <point x="153" y="576"/>
      <point x="49" y="470"/>
      <point x="49" y="275" type="curve" smooth="yes"/>
      <point x="49" y="100"/>
      <point x="130" y="-8"/>
    </contour>
    <contour>
      <point x="292" y="538" type="curve" smooth="yes"/>
      <point x="408" y="538"/>
      <point x="465" y="449"/>
      <point x="465" y="285" type="curve" smooth="yes"/>
      <point x="465" y="113"/>
      <point x="400" y="31"/>
      <point x="290" y="31" type="curve" smooth="yes"/>
      <point x="174" y="31"/>
      <point x="117" y="120"/>
      <point x="117" y="284" type="curve" smooth="yes"/>
      <point x="117" y="456"/>
      <point x="182" y="538"/>
    </contour>
    <contour>
      <point x="286" y="0" type="move" name="btm"/>
    </contour>
    <contour>
      <point x="291" y="568" type="move" name="top"/>
    </contour>
  </outline>
</glyph>
<glyph name="R" format="1">
  <advance width="555"/>
  <unicode hex="0052"/>
  <outline>
    <contour>
      <point x="266" y="0" type="line"/>
      <point x="266" y="32" type="line"/>
      <point x="203" y="43" type="line" smooth="yes"/>
      <point x="189" y="46"/>
      <point x="182" y="52"/>
      <point x="182" y="66" type="curve" smooth="yes"/>
      <point x="182" y="532" type="line"/>
      <point x="195" y="533"/>
      <point x="228" y="537"/>
      <point x="261" y="537" type="curve" smooth="yes"/>
      <point x="372" y="537"/>
      <point x="401" y="491"/>
      <point x="401" y="419" type="curve" smooth="yes"/>
      <point x="401" y="330"/>
      <point x="356" y="290"/>
      <point x="290" y="289" type="curve" smooth="yes"/>
      <point x="271" y="289"/>
      <point x="201" y="289"/>
      <point x="168" y="291" type="curve"/>
      <point x="168" y="253" type="line"/>
      <point x="187" y="253"/>
      <point x="243" y="253"/>
      <point x="302" y="253" type="curve"/>
      <point x="335" y="260" type="line"/>
      <point x="380" y="268"/>
      <point x="468" y="299"/>
      <point x="468" y="424" type="curve" smooth="yes"/>
      <point x="468" y="523"/>
      <point x="415" y="574"/>
      <point x="275" y="574" type="curve" smooth="yes"/>
      <point x="227" y="574"/>
      <point x="195" y="568"/>
      <point x="152" y="568" type="curve" smooth="yes"/>
      <point x="42" y="568" type="line"/>
      <point x="42" y="536" type="line"/>
      <point x="100" y="524" type="line" smooth="yes"/>
      <point x="113" y="522"/>
      <point x="120" y="515"/>
      <point x="120" y="501" type="curve" smooth="yes"/>
      <point x="120" y="66" type="line" smooth="yes"/>
      <point x="120" y="52"/>
      <point x="113" y="45"/>
      <point x="100" y="43" type="curve" smooth="yes"/>
      <point x="42" y="32" type="line"/>
      <point x="42" y="0" type="line"/>
    </contour>
    <contour>
      <point x="542" y="0" type="line"/>
      <point x="542" y="32" type="line"/>
      <point x="500" y="41" type="line" smooth="yes"/>
      <point x="483" y="45"/>
      <point x="475" y="49"/>
      <point x="465" y="68" type="curve" smooth="yes"/>
      <point x="406" y="179" type="line" smooth="yes"/>
      <point x="380" y="227"/>
      <point x="360" y="256"/>
      <point x="325" y="275" type="curve"/>
      <point x="269" y="265" type="line"/>
      <point x="292" y="256"/>
      <point x="316" y="213"/>
      <point x="341" y="164" type="curve" smooth="yes"/>
      <point x="377" y="93" type="line" smooth="yes"/>
      <point x="405" y="36"/>
      <point x="422" y="0"/>
      <point x="445" y="0" type="curve" smooth="yes"/>
    </contour>
    <contour>
      <point x="307" y="0" type="move" name="btm"/>
    </contour>
    <contour>
      <point x="265" y="568" type="move" name="top"/>
    </contour>
  </outline>
</glyph>
<glyph name="S" format="1">
  <advance width="461"/>
  <unicode hex="0053"/>
  <outline>
    <contour>
      <point x="416" y="148" type="curve" smooth="yes"/>
      <point x="416" y="241"/>
      <point x="337" y="280"/>
      <point x="260" y="316" type="curve" smooth="yes"/>
      <point x="171" y="358"/>
      <point x="121" y="381"/>
      <point x="121" y="451" type="curve" smooth="yes"/>
      <point x="121" y="509"/>
      <point x="157" y="542"/>
      <point x="227" y="542" type="curve" smooth="yes"/>
      <point x="266" y="542"/>
      <point x="299" y="529"/>
      <point x="316" y="515" type="curve" smooth="yes"/>
      <point x="326" y="506"/>
      <point x="329" y="497"/>
      <point x="331" y="489" type="curve" smooth="yes"/>
      <point x="345" y="417" type="line"/>
      <point x="382" y="417" type="line"/>
      <point x="388" y="458"/>
      <point x="390" y="499"/>
      <point x="387" y="547" type="curve"/>
      <point x="350" y="566"/>
      <point x="294" y="577"/>
      <point x="243" y="577" type="curve" smooth="yes"/>
      <point x="125" y="577"/>
      <point x="63" y="517"/>
      <point x="63" y="434" type="curve" smooth="yes"/>
      <point x="63" y="334"/>
      <point x="152" y="293"/>
      <point x="221" y="263" type="curve" smooth="yes"/>
      <point x="301" y="227"/>
      <point x="352" y="204"/>
      <point x="352" y="130" type="curve" smooth="yes"/>
      <point x="352" y="64"/>
      <point x="311" y="24"/>
      <point x="232" y="24" type="curve" smooth="yes"/>
      <point x="183" y="24"/>
      <point x="142" y="44"/>
      <point x="122" y="66" type="curve" smooth="yes"/>
      <point x="113" y="75"/>
      <point x="111" y="84"/>
      <point x="109" y="91" type="curve" smooth="yes"/>
      <point x="96" y="173" type="line"/>
      <point x="58" y="173" type="line"/>
      <point x="52" y="125"/>
      <point x="50" y="81"/>
      <point x="52" y="36" type="curve"/>
      <point x="86" y="13"/>
      <point x="148" y="-12"/>
      <point x="225" y="-12" type="curve" smooth="yes"/>
      <point x="356" y="-12"/>
      <point x="416" y="67"/>
    </contour>
    <contour>
      <point x="220" y="0" type="move" name="btm"/>
    </contour>
    <contour>
      <point x="233" y="568" type="move" name="top"/>
    </contour>
  </outline>
</glyph>
<glyph name="T" format="1">
  <advance width="539"/>
  <unicode hex="0054"/>
  <outline>
    <contour>
      <point x="406" y="0" type="line"/>
      <point x="406" y="32" type="line"/>
      <point x="321" y="45" type="line" smooth="yes"/>
      <point x="307" y="47"/>
      <point x="300" y="54"/>
      <point x="300" y="68" type="curve" smooth="yes"/>
      <point x="300" y="532" type="line"/>
      <point x="349" y="532" type="line" smooth="yes"/>
      <point x="387" y="532"/>
      <point x="415" y="529"/>
      <point x="431" y="524" type="curve" smooth="yes"/>
      <point x="441" y="520"/>
      <point x="448" y="514"/>
      <point x="450" y="501" type="curve" smooth="yes"/>
      <point x="471" y="406" type="line"/>
      <point x="506" y="406" type="line"/>
      <point x="511" y="464"/>
      <point x="509" y="516"/>
      <point x="503" y="568" type="curve"/>
      <point x="37" y="568" type="line"/>
      <point x="31" y="516"/>
      <point x="28" y="464"/>
      <point x="31" y="406" type="curve"/>
      <point x="67" y="406" type="line"/>
      <point x="88" y="501" type="line" smooth="yes"/>
      <point x="91" y="514"/>
      <point x="97" y="520"/>
      <point x="109" y="524" type="curve" smooth="yes"/>
      <point x="123" y="529"/>
      <point x="155" y="532"/>
      <point x="192" y="532" type="curve" smooth="yes"/>
      <point x="239" y="532" type="line"/>
      <point x="239" y="68" type="line" smooth="yes"/>
      <point x="239" y="54"/>
      <point x="232" y="47"/>
      <point x="218" y="45" type="curve" smooth="yes"/>
      <point x="133" y="32" type="line"/>
      <point x="133" y="0" type="line"/>
    </contour>
    <contour>
      <point x="269" y="0" type="move" name="btm"/>
    </contour>
    <contour>
      <point x="271" y="568" type="move" name="top"/>
    </contour>
  </outline>
</glyph>
<glyph name="U" format="1">
  <advance width="610"/>
  <unicode hex="0055"/>
  <outline>
    <contour>
      <point x="378" y="568" type="line"/>
      <point x="378" y="536" type="line"/>
      <point x="442" y="524" type="line" smooth="yes"/>
      <point x="455" y="522"/>
      <point x="461" y="514"/>
      <point x="461" y="501" type="curve" smooth="yes"/>
      <point x="461" y="206" type="line" smooth="yes"/>
      <point x="461" y="89"/>
      <point x="417" y="29"/>
      <point x="312" y="29" type="curve" smooth="yes"/>
      <point x="227" y="29"/>
      <point x="165" y="71"/>
      <point x="165" y="212" type="curve" smooth="yes"/>
      <point x="165" y="500" type="line" smooth="yes"/>
      <point x="165" y="513"/>
      <point x="172" y="522"/>
      <point x="184" y="524" type="curve" smooth="yes"/>
      <point x="251" y="536" type="line"/>
      <point x="251" y="568" type="line"/>
      <point x="39" y="568" type="line"/>
      <point x="39" y="536" type="line"/>
      <point x="83" y="525" type="line" smooth="yes"/>
      <point x="95" y="522"/>
      <point x="101" y="514"/>
      <point x="101" y="501" type="curve" smooth="yes"/>
      <point x="101" y="219" type="line" smooth="yes"/>
      <point x="101" y="69"/>
      <point x="161" y="-7"/>
      <point x="300" y="-7" type="curve" smooth="yes"/>
      <point x="433" y="-7"/>
      <point x="509" y="59"/>
      <point x="509" y="209" type="curve" smooth="yes"/>
      <point x="509" y="501" type="line" smooth="yes"/>
      <point x="509" y="514"/>
      <point x="515" y="522"/>
      <point x="528" y="525" type="curve" smooth="yes"/>
      <point x="573" y="536" type="line"/>
      <point x="573" y="568" type="line"/>
    </contour>
    <contour>
      <point x="305" y="0" type="move" name="btm"/>
    </contour>
    <contour>
      <point x="313" y="568" type="move" name="top"/>
    </contour>
  </outline>
</glyph>
<glyph name="V" format="1">
  <advance width="553"/>
  <unicode hex="0056"/>
  <outline>
    <contour>
      <point x="253" y="-2" type="line"/>
      <point x="311" y="-2" type="line"/>
      <point x="484" y="505" type="line" smooth="yes"/>
      <point x="488" y="516"/>
      <point x="496" y="521"/>
      <point x="507" y="524" type="curve" smooth="yes"/>
      <point x="549" y="536" type="line"/>
      <point x="549" y="568" type="line"/>
      <point x="364" y="568" type="line"/>
      <point x="364" y="536" type="line"/>
      <point x="440" y="521" type="line"/>
      <point x="276" y="28" type="line"/>
      <point x="305" y="28" type="line"/>
      <point x="122" y="521" type="line"/>
      <point x="199" y="536" type="line"/>
      <point x="199" y="568" type="line"/>
      <point x="-2" y="568" type="line"/>
      <point x="-2" y="536" type="line"/>
      <point x="38" y="524" type="line" smooth="yes"/>
      <point x="50" y="521"/>
      <point x="56" y="516"/>
      <point x="61" y="505" type="curve" smooth="yes"/>
    </contour>
    <contour>
      <point x="285" y="0" type="move" name="btm"/>
    </contour>
    <contour>
      <point x="274" y="-65" type="move" name="bottom"/>
    </contour>
    <contour>
      <point x="232" y="568" type="move" name="top"/>
    </contour>
  </outline>
</glyph>
<glyph name="W" format="1">
  <advance width="805"/>
  <unicode hex="0057"/>
  <outline>
    <contour>
      <point x="389" y="488" type="line"/>
      <point x="257" y="46" type="line"/>
      <point x="272" y="46" type="line"/>
      <point x="126" y="521" type="line"/>
      <point x="202" y="536" type="line"/>
      <point x="202" y="568" type="line"/>
      <point x="0" y="568" type="line"/>
      <point x="0" y="536" type="line"/>
      <point x="42" y="524" type="line" smooth="yes"/>
      <point x="54" y="521"/>
      <point x="61" y="515"/>
      <point x="64" y="504" type="curve" smooth="yes"/>
      <point x="227" y="-4" type="line"/>
      <point x="287" y="-4" type="line"/>
      <point x="414" y="425" type="line"/>
    </contour>
    <contour>
      <point x="395" y="425" type="line"/>
      <point x="524" y="-4" type="line"/>
      <point x="585" y="-4" type="line"/>
      <point x="735" y="504" type="line" smooth="yes"/>
      <point x="739" y="517"/>
      <point x="746" y="521"/>
      <point x="757" y="524" type="curve" smooth="yes"/>
      <point x="800" y="536" type="line"/>
      <point x="800" y="568" type="line"/>
      <point x="616" y="568" type="line"/>
      <point x="616" y="536" type="line"/>
      <point x="692" y="521" type="line"/>
      <point x="555" y="44" type="line"/>
      <point x="571" y="44" type="line"/>
      <point x="428" y="521" type="line"/>
      <point x="503" y="536" type="line"/>
      <point x="503" y="568" type="line"/>
      <point x="307" y="568" type="line"/>
      <point x="307" y="536" type="line"/>
      <point x="345" y="524" type="line" smooth="yes"/>
      <point x="357" y="521"/>
      <point x="363" y="515"/>
      <point x="367" y="504" type="curve" smooth="yes"/>
    </contour>
    <contour>
      <point x="406" y="0" type="move" name="btm"/>
    </contour>
    <contour>
      <point x="400" y="568" type="move" name="top"/>
    </contour>
  </outline>
</glyph>
<glyph name="X" format="1">
  <advance width="540"/>
  <unicode hex="0058"/>
  <outline>
    <contour>
      <point x="529" y="0" type="line"/>
      <point x="529" y="32" type="line"/>
      <point x="486" y="43" type="line" smooth="yes"/>
      <point x="476" y="45"/>
      <point x="468" y="49"/>
      <point x="462" y="59" type="curve" smooth="yes"/>
      <point x="292" y="312" type="line"/>
      <point x="288" y="312" type="line"/>
      <point x="156" y="523" type="line"/>
      <point x="232" y="536" type="line"/>
      <point x="232" y="568" type="line"/>
      <point x="23" y="568" type="line"/>
      <point x="23" y="536" type="line"/>
      <point x="65" y="524" type="line" smooth="yes"/>
      <point x="76" y="521"/>
      <point x="83" y="516"/>
      <point x="89" y="507" type="curve" smooth="yes"/>
      <point x="247" y="268" type="line"/>
      <point x="252" y="267" type="line"/>
      <point x="395" y="44" type="line"/>
      <point x="322" y="32" type="line"/>
      <point x="322" y="0" type="line"/>
    </contour>
    <contour>
      <point x="206" y="0" type="line"/>
      <point x="206" y="32" type="line"/>
      <point x="129" y="44" type="line"/>
      <point x="277" y="269" type="line"/>
      <point x="283" y="269" type="line"/>
      <point x="449" y="508" type="line" smooth="yes"/>
      <point x="455" y="517"/>
      <point x="462" y="521"/>
      <point x="472" y="524" type="curve" smooth="yes"/>
      <point x="516" y="536" type="line"/>
      <point x="516" y="568" type="line"/>
      <point x="338" y="568" type="line"/>
      <point x="338" y="536" type="line"/>
      <point x="405" y="523" type="line"/>
      <point x="264" y="306" type="line"/>
      <point x="255" y="306" type="line"/>
      <point x="83" y="59" type="line" smooth="yes"/>
      <point x="76" y="49"/>
      <point x="70" y="45"/>
      <point x="59" y="43" type="curve" smooth="yes"/>
      <point x="10" y="32" type="line"/>
      <point x="10" y="0" type="line"/>
    </contour>
    <contour>
      <point x="268" y="0" type="move" name="btm"/>
    </contour>
    <contour>
      <point x="268" y="568" type="move" name="top"/>
    </contour>
  </outline>
</glyph>
<glyph name="Y" format="1">
  <advance width="529"/>
  <unicode hex="0059"/>
  <outline>
    <contour>
      <point x="288" y="196" type="line"/>
      <point x="452" y="508" type="line" smooth="yes"/>
      <point x="457" y="519"/>
      <point x="465" y="523"/>
      <point x="476" y="526" type="curve" smooth="yes"/>
      <point x="522" y="536" type="line"/>
      <point x="522" y="568" type="line"/>
      <point x="340" y="568" type="line"/>
      <point x="340" y="536" type="line"/>
      <point x="409" y="523" type="line"/>
      <point x="265" y="246" type="line"/>
      <point x="289" y="246" type="line"/>
      <point x="133" y="523" type="line"/>
      <point x="203" y="536" type="line"/>
      <point x="203" y="568" type="line"/>
      <point x="0" y="568" type="line"/>
      <point x="0" y="536" type="line"/>
      <point x="45" y="525" type="line" smooth="yes"/>
      <point x="56" y="522"/>
      <point x="64" y="517"/>
      <point x="69" y="507" type="curve" smooth="yes"/>
      <point x="248" y="196" type="line"/>
    </contour>
    <contour>
      <point x="389" y="0" type="line"/>
      <point x="389" y="32" type="line"/>
      <point x="319" y="45" type="line" smooth="yes"/>
      <point x="305" y="47"/>
      <point x="299" y="54"/>
      <point x="299" y="68" type="curve" smooth="yes"/>
      <point x="299" y="223" type="line"/>
      <point x="237" y="223" type="line"/>
      <point x="237" y="68" type="line" smooth="yes"/>
      <point x="237" y="54"/>
      <point x="230" y="47"/>
      <point x="216" y="45" type="curve" smooth="yes"/>
      <point x="146" y="32" type="line"/>
      <point x="146" y="0" type="line"/>
    </contour>
    <contour>
      <point x="268" y="0" type="move" name="btm"/>
    </contour>
    <contour>
      <point x="261" y="568" type="move" name="top"/>
    </contour>
  </outline>
</glyph>
<glyph name="Z" format="1">
  <advance width="1347"/>
  <unicode hex="005A"/>
  <outline>
    <contour>
      <point x="1189" y="0" type="line"/>
      <point x="1211" y="126"/>
      <point x="1224" y="306"/>
      <point x="1222" y="436" type="curve"/>
      <point x="1129" y="446" type="line"/>
      <point x="1054" y="189" type="line" smooth="yes"/>
      <point x="1045" y="160"/>
      <point x="1028" y="143"/>
      <point x="997" y="132" type="curve" smooth="yes"/>
      <point x="946" y="114"/>
      <point x="861" y="108"/>
      <point x="764" y="108" type="curve" smooth="yes"/>
      <point x="232" y="108" type="line"/>
      <point x="271" y="65" type="line"/>
      <point x="1217" y="1486" type="line"/>
      <point x="1173" y="1562" type="line"/>
      <point x="197" y="1562" type="line"/>
      <point x="180" y="1427"/>
      <point x="169" y="1273"/>
      <point x="175" y="1138" type="curve"/>
      <point x="269" y="1138" type="line"/>
      <point x="332" y="1379" type="line" smooth="yes"/>
      <point x="340" y="1408"/>
      <point x="358" y="1425"/>
      <point x="389" y="1436" type="curve" smooth="yes"/>
      <point x="440" y="1454"/>
      <point x="525" y="1458"/>
      <point x="622" y="1458" type="curve" smooth="yes"/>
      <point x="1054" y="1458" type="line"/>
      <point x="1020" y="1495" type="line"/>
      <point x="73" y="80" type="line"/>
      <point x="121" y="0" type="line"/>
    </contour>
    <contour>
      <point x="631" y="0" type="move" name="btm"/>
    </contour>
    <contour>
      <point x="707" y="1562" type="move" name="top"/>
    </contour>
  </outline>
</glyph>
<glyph name="bracketleft" format="1">
  <advance width="284"/>
  <unicode hex="005B"/>
  <outline>
    <contour>
      <point x="261" y="-136" type="curve"/>
      <point x="261" y="-104" type="line"/>
      <point x="164" y="-97" type="line" smooth="yes"/>
      <point x="150" y="-96"/>
      <point x="143" y="-89"/>
      <point x="143" y="-75" type="curve" smooth="yes"/>
      <point x="143" y="653" type="line" smooth="yes"/>
      <point x="143" y="668"/>
      <point x="150" y="674"/>
      <point x="164" y="675" type="curve" smooth="yes"/>
      <point x="261" y="683" type="line"/>
      <point x="261" y="714" type="line"/>
      <point x="212" y="720"/>
      <point x="141" y="724"/>
      <point x="96" y="723" type="curve"/>
      <point x="87" y="713" type="line"/>
      <point x="87" y="-135" type="line"/>
      <point x="96" y="-145" type="line"/>
      <point x="141" y="-146"/>
      <point x="212" y="-142"/>
    </contour>
  </outline>
</glyph>
<glyph name="backslash" format="1">
  <advance width="343"/>
  <unicode hex="005C"/>
  <outline>
    <contour>
      <point x="314" y="-105" type="line"/>
      <point x="84" y="633" type="line"/>
      <point x="28" y="633" type="line"/>
      <point x="258" y="-105" type="line"/>
    </contour>
  </outline>
</glyph>
<glyph name="bracketright" format="1">
  <advance width="284"/>
  <unicode hex="005D"/>
  <outline>
    <contour>
      <point x="197" y="-135" type="line"/>
      <point x="197" y="713" type="line"/>
      <point x="188" y="723" type="line"/>
      <point x="142" y="724"/>
      <point x="72" y="720"/>
      <point x="23" y="714" type="curve"/>
      <point x="23" y="683" type="line"/>
      <point x="119" y="675" type="line" smooth="yes"/>
      <point x="133" y="674"/>
      <point x="141" y="668"/>
      <point x="141" y="653" type="curve" smooth="yes"/>
      <point x="141" y="-75" type="line" smooth="yes"/>
      <point x="141" y="-89"/>
      <point x="133" y="-96"/>
      <point x="119" y="-97" type="curve" smooth="yes"/>
      <point x="23" y="-104" type="line"/>
      <point x="23" y="-136" type="line"/>
      <point x="72" y="-142"/>
      <point x="142" y="-146"/>
      <point x="188" y="-145" type="curve"/>
    </contour>
  </outline>
</glyph>
<glyph name="asciicircum" format="1">
  <advance width="437"/>
  <unicode hex="005E"/>
  <outline>
    <contour>
      <point x="41" y="317" type="line"/>
      <point x="70" y="297" type="line"/>
      <point x="236" y="517" type="line"/>
      <point x="193" y="517" type="line"/>
      <point x="365" y="297" type="line"/>
      <point x="396" y="317" type="line"/>
      <point x="244" y="557" type="line"/>
      <point x="187" y="553" type="line"/>
    </contour>
  </outline>
</glyph>
<glyph name="underscore" format="1">
  <advance width="637"/>
  <unicode hex="005F"/>
  <outline>
    <contour>
      <point x="0" y="-91" type="line"/>
      <point x="0" y="-132" type="line"/>
      <point x="637" y="-132" type="line"/>
      <point x="637" y="-91" type="line"/>
    </contour>
  </outline>
</glyph>
<glyph name="a" format="1">
  <advance width="433"/>
  <unicode hex="0061"/>
  <outline>
    <contour>
      <point x="154" y="-8" type="curve" smooth="yes"/>
      <point x="221" y="-8"/>
      <point x="282" y="29"/>
      <point x="309" y="78" type="curve"/>
      <point x="301" y="94" type="line"/>
      <point x="277" y="61"/>
      <point x="221" y="36"/>
      <point x="173" y="36" type="curve" smooth="yes"/>
      <point x="128" y="36"/>
      <point x="105" y="59"/>
      <point x="105" y="96" type="curve" smooth="yes"/>
      <point x="105" y="145"/>
      <point x="143" y="164"/>
      <point x="206" y="169" type="curve" smooth="yes"/>
      <point x="298" y="178" type="line"/>
      <point x="298" y="213" type="line"/>
      <point x="199" y="204" type="line" smooth="yes"/>
      <point x="128" y="198"/>
      <point x="39" y="178"/>
      <point x="39" y="91" type="curve" smooth="yes"/>
      <point x="39" y="25"/>
      <point x="90" y="-8"/>
    </contour>
    <contour>
      <point x="66" y="325" type="line"/>
      <point x="102" y="359"/>
      <point x="144" y="373"/>
      <point x="191" y="373" type="curve" smooth="yes"/>
      <point x="256" y="373"/>
      <point x="285" y="345"/>
      <point x="285" y="264" type="curve" smooth="yes"/>
      <point x="285" y="58" type="line"/>
      <point x="289" y="19"/>
      <point x="309" y="-6"/>
      <point x="346" y="-6" type="curve" smooth="yes"/>
      <point x="367" y="-6"/>
      <point x="400" y="3"/>
      <point x="410" y="7" type="curve"/>
      <point x="410" y="36" type="line"/>
      <point x="367" y="40" type="line" smooth="yes"/>
      <point x="352" y="41"/>
      <point x="345" y="48"/>
      <point x="345" y="64" type="curve" smooth="yes"/>
      <point x="345" y="278" type="line" smooth="yes"/>
      <point x="345" y="377"/>
      <point x="297" y="422"/>
      <point x="207" y="422" type="curve" smooth="yes"/>
      <point x="137" y="422"/>
      <point x="69" y="395"/>
      <point x="51" y="341" type="curve"/>
    </contour>
    <contour>
      <point x="189" y="0" type="move" name="btm"/>
    </contour>
    <contour>
      <point x="207" y="413" type="move" name="top"/>
    </contour>
  </outline>
</glyph>
<glyph name="b" format="1">
  <advance width="468"/>
  <unicode hex="0062"/>
  <outline>
    <contour>
      <point x="72" y="20" type="line"/>
      <point x="96" y="10"/>
      <point x="150" y="-8"/>
      <point x="211" y="-8" type="curve" smooth="yes"/>
      <point x="349" y="-8"/>
      <point x="423" y="84"/>
      <point x="423" y="227" type="curve" smooth="yes"/>
      <point x="423" y="368"/>
      <point x="351" y="425"/>
      <point x="258" y="425" type="curve" smooth="yes"/>
      <point x="189" y="425"/>
      <point x="146" y="393"/>
      <point x="115" y="353" type="curve"/>
      <point x="117" y="325" type="line"/>
      <point x="147" y="358"/>
      <point x="185" y="379"/>
      <point x="236" y="379" type="curve" smooth="yes"/>
      <point x="311" y="379"/>
      <point x="359" y="334"/>
      <point x="357" y="208" type="curve" smooth="yes"/>
      <point x="356" y="83"/>
      <point x="307" y="29"/>
      <point x="216" y="29" type="curve" smooth="yes"/>
      <point x="179" y="29"/>
      <point x="153" y="39"/>
      <point x="132" y="50" type="curve"/>
      <point x="132" y="644" type="line"/>
      <point x="123" y="653" type="line"/>
      <point x="83" y="652"/>
      <point x="36" y="645"/>
      <point x="-4" y="633" type="curve"/>
      <point x="-4" y="606" type="line"/>
      <point x="52" y="598" type="line" smooth="yes"/>
      <point x="65" y="596"/>
      <point x="72" y="589"/>
      <point x="72" y="576" type="curve" smooth="yes"/>
    </contour>
    <contour>
      <point x="230" y="0" type="move" name="btm"/>
    </contour>
    <contour>
      <point x="280" y="413" type="move" name="top"/>
    </contour>
  </outline>
</glyph>
<glyph name="c" format="1">
  <advance width="409"/>
  <unicode hex="0063"/>
  <outline>
    <contour>
      <point x="44" y="202" type="curve" smooth="yes"/>
      <point x="44" y="79"/>
      <point x="107" y="-8"/>
      <point x="224" y="-8" type="curve" smooth="yes"/>
      <point x="291" y="-8"/>
      <point x="343" y="19"/>
      <point x="368" y="67" type="curve"/>
      <point x="348" y="85" type="line"/>
      <point x="324" y="58"/>
      <point x="286" y="37"/>
      <point x="240" y="37" type="curve" smooth="yes"/>
      <point x="161" y="37"/>
      <point x="111" y="96"/>
      <point x="111" y="219" type="curve" smooth="yes"/>
      <point x="111" y="331"/>
      <point x="153" y="389"/>
      <point x="231" y="389" type="curve" smooth="yes"/>
      <point x="259" y="389"/>
      <point x="282" y="382"/>
      <point x="296" y="371" type="curve" smooth="yes"/>
      <point x="306" y="363"/>
      <point x="308" y="354"/>
      <point x="311" y="341" type="curve" smooth="yes"/>
      <point x="325" y="285" type="line"/>
      <point x="357" y="285" type="line"/>
      <point x="362" y="320"/>
      <point x="366" y="366"/>
      <point x="364" y="400" type="curve"/>
      <point x="336" y="414"/>
      <point x="285" y="425"/>
      <point x="241" y="425" type="curve" smooth="yes"/>
      <point x="106" y="425"/>
      <point x="44" y="325"/>
    </contour>
    <contour>
      <point x="213" y="0" type="move" name="btm"/>
    </contour>
    <contour>
      <point x="229" y="413" type="move" name="top"/>
    </contour>
  </outline>
</glyph>
<glyph name="d" format="1">
  <advance width="1348"/>
  <unicode hex="0064"/>
  <outline>
    <contour>
      <point x="573" y="-23" type="curve" smooth="yes"/>
      <point x="766" y="-23"/>
      <point x="897" y="82"/>
      <point x="972" y="190" type="curve"/>
      <point x="944" y="236" type="line"/>
      <point x="863" y="159"/>
      <point x="762" y="106"/>
      <point x="635" y="106" type="curve" smooth="yes"/>
      <point x="464" y="106"/>
      <point x="304" y="202"/>
      <point x="304" y="569" type="curve" smooth="yes"/>
      <point x="304" y="950"/>
      <point x="477" y="1064"/>
      <point x="679" y="1064" type="curve" smooth="yes"/>
      <point x="803" y="1064"/>
      <point x="919" y="1021"/>
      <point x="955" y="981" type="curve"/>
      <point x="1004" y="1117" type="line"/>
      <point x="945" y="1140"/>
      <point x="831" y="1168"/>
      <point x="704" y="1168" type="curve" smooth="yes"/>
      <point x="367" y="1168"/>
      <point x="123" y="970"/>
      <point x="123" y="539" type="curve" smooth="yes"/>
      <point x="123" y="139"/>
      <point x="333" y="-23"/>
    </contour>
    <contour>
      <point x="1064" y="1797" type="line"/>
      <point x="959" y="1793"/>
      <point x="814" y="1776"/>
      <point x="709" y="1742" type="curve"/>
      <point x="709" y="1667" type="line"/>
      <point x="868" y="1645" type="line" smooth="yes"/>
      <point x="904" y="1640"/>
      <point x="925" y="1620"/>
      <point x="925" y="1583" type="curve" smooth="yes"/>
      <point x="925" y="172" type="line"/>
      <point x="933" y="76"/>
      <point x="973" y="-16"/>
      <point x="1094" y="-16" type="curve" smooth="yes"/>
      <point x="1149" y="-16"/>
      <point x="1227" y="3"/>
      <point x="1270" y="19" type="curve"/>
      <point x="1270" y="100" type="line"/>
      <point x="1150" y="110" type="line" smooth="yes"/>
      <point x="1115" y="113"/>
      <point x="1090" y="127"/>
      <point x="1090" y="176" type="curve" smooth="yes"/>
      <point x="1090" y="1769" type="line"/>
    </contour>
    <contour>
      <point x="616" y="0" type="move" name="btm"/>
    </contour>
    <contour>
      <point x="1090" y="1136" type="move" name="topright"/>
    </contour>
  </outline>
</glyph>
<glyph name="e" format="1">
  <advance width="428"/>
  <unicode hex="0065"/>
  <outline>
    <contour>
      <point x="44" y="202" type="curve" smooth="yes"/>
      <point x="44" y="82"/>
      <point x="103" y="-8"/>
      <point x="224" y="-8" type="curve" smooth="yes"/>
      <point x="306" y="-8"/>
      <point x="363" y="33"/>
      <point x="381" y="90" type="curve"/>
      <point x="356" y="103" type="line"/>
      <point x="333" y="63"/>
      <point x="289" y="37"/>
      <point x="239" y="37" type="curve" smooth="yes"/>
      <point x="171" y="37"/>
      <point x="109" y="79"/>
      <point x="109" y="218" type="curve" smooth="yes"/>
      <point x="109" y="335"/>
      <point x="153" y="388"/>
      <point x="223" y="388" type="curve" smooth="yes"/>
      <point x="283" y="388"/>
      <point x="319" y="347"/>
      <point x="319" y="286" type="curve" smooth="yes"/>
      <point x="319" y="279"/>
      <point x="318" y="275"/>
      <point x="317" y="268" type="curve"/>
      <point x="90" y="268" type="line"/>
      <point x="90" y="233" type="line"/>
      <point x="379" y="233" type="line"/>
      <point x="381" y="248"/>
      <point x="382" y="269"/>
      <point x="382" y="281" type="curve" smooth="yes"/>
      <point x="382" y="379"/>
      <point x="316" y="425"/>
      <point x="235" y="425" type="curve" smooth="yes"/>
      <point x="121" y="425"/>
      <point x="44" y="340"/>
    </contour>
    <contour>
      <point x="231" y="0" type="move" name="btm"/>
    </contour>
    <contour>
      <point x="225" y="413" type="move" name="top"/>
    </contour>
  </outline>
</glyph>
<glyph name="f" format="1">
  <advance width="316"/>
  <unicode hex="0066"/>
  <outline>
    <contour>
      <point x="191" y="653"/>
      <point x="106" y="577"/>
      <point x="106" y="463" type="curve" smooth="yes"/>
      <point x="106" y="413" type="line"/>
      <point x="31" y="403" type="line"/>
      <point x="31" y="374" type="line"/>
      <point x="106" y="366" type="line"/>
      <point x="106" y="61" type="line" smooth="yes"/>
      <point x="106" y="48"/>
      <point x="99" y="41"/>
      <point x="85" y="39" type="curve" smooth="yes"/>
      <point x="39" y="32" type="line"/>
      <point x="39" y="0" type="line"/>
      <point x="265" y="0" type="line"/>
      <point x="265" y="32" type="line"/>
      <point x="187" y="39" type="line" smooth="yes"/>
      <point x="173" y="40"/>
      <point x="166" y="48"/>
      <point x="166" y="61" type="curve" smooth="yes"/>
      <point x="166" y="369" type="line"/>
      <point x="292" y="369" type="line"/>
      <point x="292" y="413" type="line"/>
      <point x="166" y="413" type="line"/>
      <point x="166" y="490" type="line" smooth="yes"/>
      <point x="166" y="566"/>
      <point x="193" y="593"/>
      <point x="263" y="593" type="curve" smooth="yes"/>
      <point x="287" y="593"/>
      <point x="320" y="591"/>
      <point x="348" y="585" type="curve"/>
      <point x="356" y="629" type="line"/>
      <point x="328" y="644"/>
      <point x="299" y="653"/>
      <point x="269" y="653" type="curve" smooth="yes"/>
    </contour>
    <contour>
      <point x="144" y="0" type="move" name="btm"/>
    </contour>
    <contour>
      <point x="154" y="413" type="move" name="top"/>
    </contour>
  </outline>
</glyph>
<glyph name="g" format="1">
  <advance width="458"/>
  <unicode hex="0067"/>
  <outline>
    <contour>
      <point x="427" y="-48" type="curve" smooth="yes"/>
      <point x="427" y="14"/>
      <point x="386" y="52"/>
      <point x="302" y="52" type="curve" smooth="yes"/>
      <point x="207" y="52" type="line"/>
      <point x="149" y="52"/>
      <point x="125" y="64"/>
      <point x="125" y="95" type="curve" smooth="yes"/>
      <point x="125" y="121"/>
      <point x="141" y="136"/>
      <point x="162" y="144" type="curve"/>
      <point x="149" y="162" type="line"/>
      <point x="112" y="147"/>
      <point x="71" y="124"/>
      <point x="71" y="73" type="curve" smooth="yes"/>
      <point x="71" y="19"/>
      <point x="116" y="0"/>
      <point x="187" y="0" type="curve" smooth="yes"/>
      <point x="287" y="0" type="line" smooth="yes"/>
      <point x="354" y="0"/>
      <point x="370" y="-24"/>
      <point x="370" y="-59" type="curve" smooth="yes"/>
      <point x="370" y="-130"/>
      <point x="307" y="-163"/>
      <point x="218" y="-163" type="curve" smooth="yes"/>
      <point x="124" y="-163"/>
      <point x="97" y="-126"/>
      <point x="97" y="-76" type="curve" smooth="yes"/>
      <point x="97" y="-29"/>
      <point x="121" y="-2"/>
      <point x="148" y="19" type="curve"/>
      <point x="130" y="28" type="line"/>
      <point x="80" y="9"/>
      <point x="37" y="-25"/>
      <point x="37" y="-85" type="curve" smooth="yes"/>
      <point x="37" y="-156"/>
      <point x="96" y="-201"/>
      <point x="206" y="-201" type="curve" smooth="yes"/>
      <point x="333" y="-201"/>
      <point x="427" y="-141"/>
    </contour>
    <contour>
      <point x="375" y="285" type="curve" smooth="yes"/>
      <point x="375" y="372"/>
      <point x="312" y="425"/>
      <point x="220" y="425" type="curve" smooth="yes"/>
      <point x="135" y="425"/>
      <point x="52" y="379"/>
      <point x="52" y="274" type="curve" smooth="yes"/>
      <point x="52" y="178"/>
      <point x="122" y="133"/>
      <point x="207" y="133" type="curve" smooth="yes"/>
      <point x="304" y="133"/>
      <point x="375" y="192"/>
    </contour>
    <contour>
      <point x="115" y="283" type="curve" smooth="yes"/>
      <point x="115" y="370"/>
      <point x="159" y="388"/>
      <point x="210" y="388" type="curve" smooth="yes"/>
      <point x="280" y="388"/>
      <point x="312" y="354"/>
      <point x="312" y="277" type="curve" smooth="yes"/>
      <point x="312" y="199"/>
      <point x="278" y="170"/>
      <point x="217" y="170" type="curve" smooth="yes"/>
      <point x="145" y="170"/>
      <point x="115" y="211"/>
    </contour>
    <contour>
      <point x="439" y="369" type="line"/>
      <point x="439" y="418" type="line"/>
      <point x="425" y="421"/>
      <point x="409" y="425"/>
      <point x="397" y="425" type="curve" smooth="yes"/>
      <point x="369" y="425"/>
      <point x="345" y="408"/>
      <point x="313" y="382" type="curve"/>
      <point x="329" y="369" type="line"/>
    </contour>
    <contour>
      <point x="219" y="413" type="move" name="top"/>
    </contour>
  </outline>
</glyph>
<glyph name="h" format="1">
  <advance width="514"/>
  <unicode hex="0068"/>
  <outline>
    <contour>
      <point x="220" y="0" type="line"/>
      <point x="220" y="32" type="line"/>
      <point x="176" y="39" type="line" smooth="yes"/>
      <point x="162" y="41"/>
      <point x="155" y="48"/>
      <point x="155" y="62" type="curve" smooth="yes"/>
      <point x="155" y="643" type="line"/>
      <point x="145" y="653" type="line"/>
      <point x="108" y="652"/>
      <point x="56" y="646"/>
      <point x="19" y="633" type="curve"/>
      <point x="19" y="606" type="line"/>
      <point x="74" y="598" type="line" smooth="yes"/>
      <point x="87" y="596"/>
      <point x="95" y="589"/>
      <point x="95" y="576" type="curve" smooth="yes"/>
      <point x="95" y="61" type="line" smooth="yes"/>
      <point x="95" y="48"/>
      <point x="88" y="41"/>
      <point x="74" y="39" type="curve" smooth="yes"/>
      <point x="28" y="32" type="line"/>
      <point x="28" y="0" type="line"/>
    </contour>
    <contour>
      <point x="492" y="0" type="line"/>
      <point x="492" y="32" type="line"/>
      <point x="446" y="39" type="line" smooth="yes"/>
      <point x="433" y="41"/>
      <point x="425" y="48"/>
      <point x="425" y="62" type="curve" smooth="yes"/>
      <point x="425" y="263" type="line" smooth="yes"/>
      <point x="425" y="364"/>
      <point x="397" y="423"/>
      <point x="301" y="423" type="curve" smooth="yes"/>
      <point x="243" y="423"/>
      <point x="182" y="405"/>
      <point x="137" y="345" type="curve"/>
      <point x="134" y="315" type="line"/>
      <point x="173" y="357"/>
      <point x="225" y="377"/>
      <point x="279" y="377" type="curve" smooth="yes"/>
      <point x="349" y="377"/>
      <point x="365" y="333"/>
      <point x="365" y="249" type="curve" smooth="yes"/>
      <point x="365" y="62" type="line" smooth="yes"/>
      <point x="365" y="47"/>
      <point x="356" y="41"/>
      <point x="344" y="39" type="curve" smooth="yes"/>
      <point x="300" y="32" type="line"/>
      <point x="300" y="0" type="line"/>
    </contour>
    <contour>
      <point x="144" y="0" type="move" name="btm"/>
    </contour>
    <contour>
      <point x="142" y="642" type="move" name="top"/>
    </contour>
  </outline>
</glyph>
<glyph name="j" format="1">
  <advance width="233"/>
  <unicode hex="006A"/>
  <outline>
    <contour>
      <point x="147" y="422" type="line"/>
      <point x="109" y="421"/>
      <point x="62" y="416"/>
      <point x="24" y="403" type="curve"/>
      <point x="24" y="373" type="line"/>
      <point x="76" y="367" type="line" smooth="yes"/>
      <point x="89" y="365"/>
      <point x="96" y="357"/>
      <point x="96" y="344" type="curve" smooth="yes"/>
      <point x="96" y="49" type="line" smooth="yes"/>
      <point x="96" y="-65"/>
      <point x="75" y="-104"/>
      <point x="-13" y="-164" type="curve"/>
      <point x="3" y="-193" type="line"/>
      <point x="37" y="-179"/>
      <point x="73" y="-163"/>
      <point x="101" y="-139" type="curve" smooth="yes"/>
      <point x="144" y="-102"/>
      <point x="156" y="-63"/>
      <point x="156" y="46" type="curve" smooth="yes"/>
      <point x="156" y="412" type="line"/>
    </contour>
    <contour>
      <point x="157" y="534" type="curve" smooth="yes"/>
      <point x="157" y="562"/>
      <point x="137" y="582"/>
      <point x="109" y="582" type="curve" smooth="yes"/>
      <point x="81" y="582"/>
      <point x="61" y="562"/>
      <point x="61" y="534" type="curve" smooth="yes"/>
      <point x="61" y="506"/>
      <point x="81" y="486"/>
      <point x="109" y="486" type="curve" smooth="yes"/>
      <point x="137" y="486"/>
      <point x="157" y="506"/>
    </contour>
    <contour>
      <point x="102" y="413" type="move" name="top"/>
    </contour>
  </outline>
</glyph>
<glyph name="k" format="1">
  <advance width="478"/>
  <unicode hex="006B"/>
  <outline>
    <contour>
      <point x="222" y="0" type="line"/>
      <point x="222" y="32" type="line"/>
      <point x="176" y="39" type="line" smooth="yes"/>
      <point x="163" y="41"/>
      <point x="155" y="48"/>
      <point x="155" y="62" type="curve" smooth="yes"/>
      <point x="155" y="644" type="line"/>
      <point x="145" y="653" type="line"/>
      <point x="107" y="652"/>
      <point x="57" y="645"/>
      <point x="19" y="633" type="curve"/>
      <point x="19" y="606" type="line"/>
      <point x="74" y="598" type="line" smooth="yes"/>
      <point x="88" y="596"/>
      <point x="95" y="589"/>
      <point x="95" y="576" type="curve" smooth="yes"/>
      <point x="95" y="62" type="line" smooth="yes"/>
      <point x="95" y="49"/>
      <point x="88" y="41"/>
      <point x="75" y="39" type="curve" smooth="yes"/>
      <point x="28" y="32" type="line"/>
      <point x="28" y="0" type="line"/>
    </contour>
    <contour>
      <point x="465" y="0" type="line"/>
      <point x="465" y="32" type="line"/>
      <point x="417" y="42" type="line" smooth="yes"/>
      <point x="407" y="44"/>
      <point x="397" y="51"/>
      <point x="389" y="65" type="curve" smooth="yes"/>
      <point x="307" y="197" type="line" smooth="yes"/>
      <point x="292" y="223"/>
      <point x="280" y="240"/>
      <point x="262" y="265" type="curve"/>
      <point x="221" y="225" type="line"/>
      <point x="237" y="202"/>
      <point x="252" y="174"/>
      <point x="271" y="140" type="curve" smooth="yes"/>
      <point x="315" y="60" type="line" smooth="yes"/>
      <point x="336" y="23"/>
      <point x="350" y="0"/>
      <point x="368" y="0" type="curve" smooth="yes"/>
    </contour>
    <contour>
      <point x="373" y="360" type="line" smooth="yes"/>
      <point x="381" y="368"/>
      <point x="389" y="371"/>
      <point x="402" y="373" type="curve" smooth="yes"/>
      <point x="446" y="383" type="line"/>
      <point x="446" y="413" type="line"/>
      <point x="254" y="413" type="line"/>
      <point x="254" y="383" type="line"/>
      <point x="347" y="368" type="line"/>
      <point x="340" y="384" type="line"/>
      <point x="140" y="163" type="line"/>
      <point x="144" y="117" type="line"/>
    </contour>
    <contour>
      <point x="261" y="0" type="move" name="btm"/>
    </contour>
    <contour>
      <point x="277" y="413" type="move" name="top"/>
    </contour>
  </outline>
</glyph>
<glyph name="l" format="1">
  <advance width="253"/>
  <unicode hex="006C"/>
  <outline>
    <contour>
      <point x="157" y="643" type="line"/>
      <point x="147" y="653" type="line"/>
      <point x="109" y="652"/>
      <point x="56" y="646"/>
      <point x="18" y="633" type="curve"/>
      <point x="18" y="606" type="line"/>
      <point x="76" y="598" type="line" smooth="yes"/>
      <point x="89" y="596"/>
      <point x="97" y="589"/>
      <point x="97" y="576" type="curve" smooth="yes"/>
      <point x="97" y="61" type="line" smooth="yes"/>
      <point x="97" y="48"/>
      <point x="89" y="41"/>
      <point x="76" y="39" type="curve" smooth="yes"/>
      <point x="20" y="32" type="line"/>
      <point x="20" y="0" type="line"/>
      <point x="233" y="0" type="line"/>
      <point x="233" y="31" type="line"/>
      <point x="177" y="39" type="line" smooth="yes"/>
      <point x="164" y="41"/>
      <point x="157" y="48"/>
      <point x="157" y="62" type="curve" smooth="yes"/>
    </contour>
    <contour>
      <point x="123" y="0" type="move" name="btm"/>
    </contour>
    <contour>
      <point x="113" y="648" type="move" name="top"/>
    </contour>
    <contour>
      <point x="157" y="413" type="move" name="topright"/>
    </contour>
  </outline>
</glyph>
<glyph name="m" format="1">
  <advance width="770"/>
  <unicode hex="006D"/>
  <outline>
    <contour>
      <point x="748" y="0" type="line"/>
      <point x="748" y="32" type="line"/>
      <point x="701" y="39" type="line" smooth="yes"/>
      <point x="688" y="41"/>
      <point x="681" y="48"/>
      <point x="681" y="62" type="curve" smooth="yes"/>
      <point x="681" y="259" type="line" smooth="yes"/>
      <point x="681" y="368"/>
      <point x="652" y="423"/>
      <point x="552" y="423" type="curve" smooth="yes"/>
      <point x="504" y="423"/>
      <point x="446" y="410"/>
      <point x="398" y="352" type="curve"/>
      <point x="399" y="321" type="line"/>
      <point x="439" y="362"/>
      <point x="486" y="377"/>
      <point x="530" y="377" type="curve" smooth="yes"/>
      <point x="603" y="377"/>
      <point x="621" y="337"/>
      <point x="621" y="249" type="curve" smooth="yes"/>
      <point x="621" y="62" type="line" smooth="yes"/>
      <point x="621" y="47"/>
      <point x="612" y="41"/>
      <point x="600" y="39" type="curve" smooth="yes"/>
      <point x="555" y="32" type="line"/>
      <point x="555" y="0" type="line"/>
    </contour>
    <contour>
      <point x="231" y="0" type="line"/>
      <point x="231" y="32" type="line"/>
      <point x="185" y="39" type="line" smooth="yes"/>
      <point x="172" y="41"/>
      <point x="165" y="48"/>
      <point x="165" y="62" type="curve" smooth="yes"/>
      <point x="165" y="340" type="line"/>
      <point x="159" y="411" type="line"/>
      <point x="147" y="422" type="line"/>
      <point x="112" y="421"/>
      <point x="68" y="415"/>
      <point x="32" y="403" type="curve"/>
      <point x="32" y="373" type="line"/>
      <point x="85" y="367" type="line" smooth="yes"/>
      <point x="98" y="365"/>
      <point x="105" y="357"/>
      <point x="105" y="344" type="curve" smooth="yes"/>
      <point x="105" y="62" type="line" smooth="yes"/>
      <point x="105" y="49"/>
      <point x="98" y="41"/>
      <point x="85" y="39" type="curve" smooth="yes"/>
      <point x="38" y="32" type="line"/>
      <point x="38" y="0" type="line"/>
    </contour>
    <contour>
      <point x="488" y="0" type="line"/>
      <point x="488" y="32" type="line"/>
      <point x="444" y="39" type="line" smooth="yes"/>
      <point x="431" y="41"/>
      <point x="423" y="48"/>
      <point x="423" y="62" type="curve" smooth="yes"/>
      <point x="423" y="263" type="line" smooth="yes"/>
      <point x="423" y="364"/>
      <point x="397" y="423"/>
      <point x="301" y="423" type="curve" smooth="yes"/>
      <point x="248" y="423"/>
      <point x="187" y="405"/>
      <point x="148" y="345" type="curve"/>
      <point x="144" y="317" type="line"/>
      <point x="178" y="357"/>
      <point x="236" y="377"/>
      <point x="283" y="377" type="curve" smooth="yes"/>
      <point x="353" y="377"/>
      <point x="363" y="333"/>
      <point x="363" y="249" type="curve" smooth="yes"/>
      <point x="363" y="62" type="line" smooth="yes"/>
      <point x="363" y="47"/>
      <point x="354" y="41"/>
      <point x="342" y="39" type="curve" smooth="yes"/>
      <point x="297" y="32" type="line"/>
      <point x="297" y="0" type="line"/>
    </contour>
    <contour>
      <point x="386" y="0" type="move" name="btm"/>
    </contour>
    <contour>
      <point x="386" y="413" type="move" name="top"/>
    </contour>
  </outline>
</glyph>
<glyph name="n" format="1">
  <advance width="1441"/>
  <unicode hex="006E"/>
  <outline>
    <contour>
      <point x="1381" y="0" type="line"/>
      <point x="1381" y="88" type="line"/>
      <point x="1253" y="107" type="line" smooth="yes"/>
      <point x="1217" y="112"/>
      <point x="1196" y="133"/>
      <point x="1196" y="170" type="curve" smooth="yes"/>
      <point x="1196" y="723" type="line" smooth="yes"/>
      <point x="1196" y="1002"/>
      <point x="1120" y="1164"/>
      <point x="855" y="1164" type="curve" smooth="yes"/>
      <point x="696" y="1164"/>
      <point x="527" y="1115"/>
      <point x="405" y="949" type="curve"/>
      <point x="396" y="867" type="line"/>
      <point x="502" y="981"/>
      <point x="644" y="1036"/>
      <point x="795" y="1036" type="curve" smooth="yes"/>
      <point x="987" y="1036"/>
      <point x="1031" y="916"/>
      <point x="1031" y="684" type="curve" smooth="yes"/>
      <point x="1031" y="170" type="line" smooth="yes"/>
      <point x="1031" y="130"/>
      <point x="1006" y="112"/>
      <point x="974" y="107" type="curve" smooth="yes"/>
      <point x="851" y="88" type="line"/>
      <point x="851" y="0" type="line"/>
    </contour>
    <contour>
      <point x="634" y="0" type="line"/>
      <point x="634" y="88" type="line"/>
      <point x="510" y="107" type="line" smooth="yes"/>
      <point x="474" y="113"/>
      <point x="454" y="134"/>
      <point x="454" y="171" type="curve" smooth="yes"/>
      <point x="454" y="935" type="line"/>
      <point x="436" y="1129" type="line"/>
      <point x="405" y="1161" type="line"/>
      <point x="307" y="1159"/>
      <point x="187" y="1141"/>
      <point x="89" y="1109" type="curve"/>
      <point x="89" y="1027" type="line"/>
      <point x="234" y="1009" type="line" smooth="yes"/>
      <point x="270" y="1005"/>
      <point x="289" y="982"/>
      <point x="289" y="945" type="curve" smooth="yes"/>
      <point x="289" y="171" type="line" smooth="yes"/>
      <point x="289" y="134"/>
      <point x="269" y="112"/>
      <point x="232" y="107" type="curve" smooth="yes"/>
      <point x="104" y="88" type="line"/>
      <point x="104" y="0" type="line"/>
    </contour>
    <contour>
      <point x="89" y="1136" type="move" name="apostrophe"/>
    </contour>
    <contour>
      <point x="743" y="0" type="move" name="btm"/>
    </contour>
    <contour>
      <point x="727" y="1136" type="move" name="top"/>
    </contour>
  </outline>
</glyph>
<glyph name="o" format="1">
  <advance width="465"/>
  <unicode hex="006F"/>
  <outline>
    <contour>
      <point x="352" y="203" type="curve" smooth="yes"/>
      <point x="352" y="83"/>
      <point x="315" y="29"/>
      <point x="236" y="29" type="curve" smooth="yes"/>
      <point x="140" y="29"/>
      <point x="112" y="108"/>
      <point x="112" y="213" type="curve" smooth="yes"/>
      <point x="112" y="333"/>
      <point x="149" y="388"/>
      <point x="229" y="388" type="curve" smooth="yes"/>
      <point x="324" y="388"/>
      <point x="352" y="309"/>
    </contour>
    <contour>
      <point x="45" y="206" type="curve" smooth="yes"/>
      <point x="45" y="83"/>
      <point x="95" y="-8"/>
      <point x="225" y="-8" type="curve" smooth="yes"/>
      <point x="332" y="-8"/>
      <point x="420" y="60"/>
      <point x="420" y="209" type="curve" smooth="yes"/>
      <point x="420" y="333"/>
      <point x="370" y="425"/>
      <point x="239" y="425" type="curve" smooth="yes"/>
      <point x="133" y="425"/>
      <point x="45" y="357"/>
    </contour>
    <contour>
      <point x="232" y="0" type="move" name="btm"/>
    </contour>
    <contour>
      <point x="232" y="413" type="move" name="top"/>
    </contour>
  </outline>
</glyph>
<glyph name="p" format="1">
  <advance width="1351"/>
  <unicode hex="0070"/>
  <outline>
    <contour>
      <point x="1228" y="624" type="curve" smooth="yes"/>
      <point x="1228" y="1007"/>
      <point x="1035" y="1168"/>
      <point x="778" y="1168" type="curve" smooth="yes"/>
      <point x="581" y="1168"/>
      <point x="466" y="1074"/>
      <point x="394" y="965" type="curve"/>
      <point x="420" y="917" type="line"/>
      <point x="480" y="980"/>
      <point x="578" y="1042"/>
      <point x="719" y="1042" type="curve" smooth="yes"/>
      <point x="948" y="1042"/>
      <point x="1053" y="879"/>
      <point x="1049" y="571" type="curve" smooth="yes"/>
      <point x="1044" y="212"/>
      <point x="895" y="81"/>
      <point x="664" y="81" type="curve" smooth="yes"/>
      <point x="546" y="81"/>
      <point x="452" y="115"/>
      <point x="409" y="154" type="curve"/>
      <point x="381" y="35" type="line"/>
      <point x="450" y="-8"/>
      <point x="568" y="-23"/>
      <point x="657" y="-23" type="curve" smooth="yes"/>
      <point x="1018" y="-23"/>
      <point x="1228" y="225"/>
    </contour>
    <contour>
      <point x="430" y="957" type="line"/>
      <point x="412" y="1129" type="line"/>
      <point x="381" y="1161" type="line"/>
      <point x="276" y="1159"/>
      <point x="170" y="1141"/>
      <point x="65" y="1109" type="curve"/>
      <point x="65" y="1027" type="line"/>
      <point x="212" y="1009" type="line" smooth="yes"/>
      <point x="247" y="1005"/>
      <point x="265" y="980"/>
      <point x="265" y="944" type="curve" smooth="yes"/>
      <point x="265" y="-326" type="line" smooth="yes"/>
      <point x="265" y="-363"/>
      <point x="246" y="-384"/>
      <point x="209" y="-389" type="curve" smooth="yes"/>
      <point x="80" y="-408" type="line"/>
      <point x="80" y="-496" type="line"/>
      <point x="657" y="-496" type="line"/>
      <point x="657" y="-408" type="line"/>
      <point x="487" y="-389" type="line" smooth="yes"/>
      <point x="450" y="-385"/>
      <point x="430" y="-364"/>
      <point x="430" y="-327" type="curve" smooth="yes"/>
    </contour>
    <contour>
      <point x="711" y="0" type="move" name="btm"/>
    </contour>
    <contour>
      <point x="762" y="1136" type="move" name="top"/>
    </contour>
  </outline>
</glyph>
<glyph name="q" format="1">
  <advance width="1297"/>
  <unicode hex="0071"/>
  <outline>
    <contour>
      <point x="579" y="-23" type="curve" smooth="yes"/>
      <point x="761" y="-23"/>
      <point x="899" y="84"/>
      <point x="971" y="190" type="curve"/>
      <point x="943" y="236" type="line"/>
      <point x="862" y="159"/>
      <point x="760" y="106"/>
      <point x="636" y="106" type="curve" smooth="yes"/>
      <point x="461" y="106"/>
      <point x="303" y="202"/>
      <point x="303" y="572" type="curve" smooth="yes"/>
      <point x="303" y="945"/>
      <point x="475" y="1065"/>
      <point x="689" y="1065" type="curve" smooth="yes"/>
      <point x="795" y="1065"/>
      <point x="901" y="1030"/>
      <point x="954" y="958" type="curve"/>
      <point x="1022" y="1073" type="line"/>
      <point x="950" y="1125"/>
      <point x="825" y="1168"/>
      <point x="691" y="1168" type="curve" smooth="yes"/>
      <point x="366" y="1168"/>
      <point x="122" y="955"/>
      <point x="122" y="540" type="curve" smooth="yes"/>
      <point x="122" y="139"/>
      <point x="328" y="-23"/>
    </contour>
    <contour>
      <point x="1086" y="1132" type="line"/>
      <point x="1051" y="1162" type="line"/>
      <point x="921" y="1089" type="line"/>
      <point x="921" y="-327" type="line" smooth="yes"/>
      <point x="921" y="-364"/>
      <point x="901" y="-385"/>
      <point x="864" y="-389" type="curve" smooth="yes"/>
      <point x="694" y="-408" type="line"/>
      <point x="694" y="-496" type="line"/>
      <point x="1230" y="-496" type="line"/>
      <point x="1230" y="-408" type="line"/>
      <point x="1142" y="-391" type="line" smooth="yes"/>
      <point x="1107" y="-384"/>
      <point x="1086" y="-364"/>
      <point x="1086" y="-327" type="curve" smooth="yes"/>
    </contour>
    <contour>
      <point x="652" y="0" type="move" name="btm"/>
    </contour>
    <contour>
      <point x="629" y="1136" type="move" name="top"/>
    </contour>
  </outline>
</glyph>
<glyph name="r" format="1">
  <advance width="1053"/>
  <unicode hex="0072"/>
  <outline>
    <contour>
      <point x="419" y="826" type="line"/>
      <point x="516" y="951"/>
      <point x="645" y="1006"/>
      <point x="769" y="1006" type="curve" smooth="yes"/>
      <point x="808" y="1006"/>
      <point x="826" y="989"/>
      <point x="833" y="947" type="curve" smooth="yes"/>
      <point x="860" y="779" type="line"/>
      <point x="947" y="779" type="line"/>
      <point x="968" y="885"/>
      <point x="978" y="1032"/>
      <point x="970" y="1142" type="curve"/>
      <point x="936" y="1159"/>
      <point x="881" y="1168"/>
      <point x="842" y="1168" type="curve" smooth="yes"/>
      <point x="662" y="1168"/>
      <point x="473" y="1010"/>
      <point x="414" y="904" type="curve"/>
    </contour>
    <contour>
      <point x="433" y="1133" type="line"/>
      <point x="406" y="1161" type="line"/>
      <point x="309" y="1159"/>
      <point x="187" y="1139"/>
      <point x="89" y="1109" type="curve"/>
      <point x="89" y="1027" type="line"/>
      <point x="232" y="1009" type="line" smooth="yes"/>
      <point x="274" y="1004"/>
      <point x="289" y="981"/>
      <point x="289" y="938" type="curve" smooth="yes"/>
      <point x="289" y="170" type="line" smooth="yes"/>
      <point x="289" y="133"/>
      <point x="269" y="113"/>
      <point x="232" y="107" type="curve" smooth="yes"/>
      <point x="104" y="88" type="line"/>
      <point x="104" y="0" type="line"/>
      <point x="726" y="0" type="line"/>
      <point x="726" y="84" type="line"/>
      <point x="513" y="107" type="line" smooth="yes"/>
      <point x="475" y="111"/>
      <point x="454" y="132"/>
      <point x="454" y="170" type="curve" smooth="yes"/>
      <point x="454" y="902" type="line"/>
    </contour>
    <contour>
      <point x="393" y="0" type="move" name="btm"/>
    </contour>
    <contour>
      <point x="594" y="1136" type="move" name="top"/>
    </contour>
  </outline>
</glyph>
<glyph name="s" format="1">
  <advance width="383"/>
  <unicode hex="0073"/>
  <outline>
    <contour>
      <point x="50" y="23" type="curve"/>
      <point x="79" y="9"/>
      <point x="129" y="-8"/>
      <point x="185" y="-8" type="curve" smooth="yes"/>
      <point x="278" y="-8"/>
      <point x="340" y="36"/>
      <point x="340" y="111" type="curve" smooth="yes"/>
      <point x="340" y="186"/>
      <point x="276" y="216"/>
      <point x="210" y="241" type="curve" smooth="yes"/>
      <point x="161" y="259"/>
      <point x="112" y="273"/>
      <point x="112" y="326" type="curve" smooth="yes"/>
      <point x="112" y="372"/>
      <point x="147" y="392"/>
      <point x="193" y="391" type="curve" smooth="yes"/>
      <point x="219" y="390"/>
      <point x="237" y="383"/>
      <point x="247" y="377" type="curve" smooth="yes"/>
      <point x="261" y="369"/>
      <point x="265" y="360"/>
      <point x="268" y="347" type="curve" smooth="yes"/>
      <point x="279" y="297" type="line"/>
      <point x="311" y="297" type="line"/>
      <point x="317" y="332"/>
      <point x="320" y="366"/>
      <point x="319" y="402" type="curve"/>
      <point x="291" y="414"/>
      <point x="244" y="425"/>
      <point x="203" y="425" type="curve" smooth="yes"/>
      <point x="122" y="425"/>
      <point x="56" y="388"/>
      <point x="56" y="308" type="curve" smooth="yes"/>
      <point x="56" y="240"/>
      <point x="104" y="214"/>
      <point x="171" y="188" type="curve" smooth="yes"/>
      <point x="247" y="159"/>
      <point x="284" y="144"/>
      <point x="284" y="95" type="curve" smooth="yes"/>
      <point x="284" y="52"/>
      <point x="255" y="26"/>
      <point x="199" y="26" type="curve" smooth="yes"/>
      <point x="161" y="26"/>
      <point x="131" y="38"/>
      <point x="117" y="47" type="curve" smooth="yes"/>
      <point x="107" y="53"/>
      <point x="103" y="60"/>
      <point x="99" y="77" type="curve" smooth="yes"/>
      <point x="85" y="132" type="line"/>
      <point x="51" y="132" type="line"/>
      <point x="47" y="101"/>
      <point x="45" y="63"/>
    </contour>
    <contour>
      <point x="182" y="0" type="move" name="btm"/>
    </contour>
    <contour>
      <point x="190" y="413" type="move" name="top"/>
    </contour>
  </outline>
</glyph>
<glyph name="t" format="1">
  <advance width="329"/>
  <unicode hex="0074"/>
  <outline>
    <contour>
      <point x="90" y="97" type="line" smooth="yes"/>
      <point x="90" y="13"/>
      <point x="143" y="-8"/>
      <point x="198" y="-8" type="curve" smooth="yes"/>
      <point x="249" y="-8"/>
      <point x="295" y="15"/>
      <point x="316" y="57" type="curve"/>
      <point x="295" y="75" type="line"/>
      <point x="276" y="53"/>
      <point x="249" y="40"/>
      <point x="214" y="40" type="curve" smooth="yes"/>
      <point x="175" y="40"/>
      <point x="151" y="55"/>
      <point x="151" y="121" type="curve" smooth="yes"/>
      <point x="151" y="369" type="line"/>
      <point x="294" y="369" type="line"/>
      <point x="294" y="413" type="line"/>
      <point x="151" y="413" type="line"/>
      <point x="151" y="534" type="line"/>
      <point x="115" y="534" type="line"/>
      <point x="93" y="429" type="line" smooth="yes"/>
      <point x="91" y="417"/>
      <point x="84" y="410"/>
      <point x="71" y="409" type="curve" smooth="yes"/>
      <point x="25" y="403" type="line"/>
      <point x="25" y="373" type="line"/>
      <point x="90" y="366" type="line"/>
    </contour>
    <contour>
      <point x="177" y="0" type="move" name="btm"/>
    </contour>
    <contour>
      <point x="151" y="414" type="move" name="topright"/>
    </contour>
  </outline>
</glyph>
<glyph name="u" format="1">
  <advance width="1377"/>
  <unicode hex="0075"/>
  <outline>
    <contour>
      <point x="1001" y="180" type="curve"/>
      <point x="981" y="245" type="line"/>
      <point x="887" y="147"/>
      <point x="774" y="103"/>
      <point x="649" y="103" type="curve" smooth="yes"/>
      <point x="460" y="103"/>
      <point x="411" y="212"/>
      <point x="411" y="436" type="curve" smooth="yes"/>
      <point x="411" y="1133" type="line"/>
      <point x="385" y="1161" type="line"/>
      <point x="284" y="1157"/>
      <point x="162" y="1144"/>
      <point x="61" y="1113" type="curve"/>
      <point x="61" y="1031" type="line"/>
      <point x="191" y="1011" type="line" smooth="yes"/>
      <point x="229" y="1005"/>
      <point x="246" y="983"/>
      <point x="246" y="947" type="curve" smooth="yes"/>
      <point x="246" y="402" type="line" smooth="yes"/>
      <point x="246" y="116"/>
      <point x="347" y="-23"/>
      <point x="602" y="-23" type="curve" smooth="yes"/>
      <point x="782" y="-23"/>
      <point x="904" y="69"/>
    </contour>
    <contour>
      <point x="1300" y="19" type="curve"/>
      <point x="1300" y="100" type="line"/>
      <point x="1180" y="110" type="line" smooth="yes"/>
      <point x="1145" y="113"/>
      <point x="1120" y="127"/>
      <point x="1120" y="176" type="curve" smooth="yes"/>
      <point x="1120" y="1133" type="line"/>
      <point x="1094" y="1161" type="line"/>
      <point x="989" y="1161"/>
      <point x="844" y="1143"/>
      <point x="739" y="1116" type="curve"/>
      <point x="739" y="1034" type="line"/>
      <point x="900" y="1011" type="line" smooth="yes"/>
      <point x="936" y="1006"/>
      <point x="955" y="984"/>
      <point x="955" y="947" type="curve" smooth="yes"/>
      <point x="955" y="172" type="line"/>
      <point x="963" y="74"/>
      <point x="1005" y="-16"/>
      <point x="1123" y="-16" type="curve" smooth="yes"/>
      <point x="1179" y="-16"/>
      <point x="1257" y="3"/>
    </contour>
    <contour>
      <point x="709" y="0" type="move" name="btm"/>
    </contour>
    <contour>
      <point x="638" y="1136" type="move" name="top"/>
    </contour>
  </outline>
</glyph>
<glyph name="v" format="1">
  <advance width="445"/>
  <unicode hex="0076"/>
  <outline>
    <contour>
      <point x="212" y="-6" type="line"/>
      <point x="252" y="-6" type="line"/>
      <point x="383" y="356" type="line" smooth="yes"/>
      <point x="387" y="367"/>
      <point x="395" y="372"/>
      <point x="406" y="375" type="curve" smooth="yes"/>
      <point x="433" y="383" type="line"/>
      <point x="433" y="413" type="line"/>
      <point x="277" y="413" type="line"/>
      <point x="277" y="383" type="line"/>
      <point x="343" y="372" type="line"/>
    </contour>
    <contour>
      <point x="250" y="21" type="line"/>
      <point x="121" y="372" type="line"/>
      <point x="188" y="383" type="line"/>
      <point x="188" y="413" type="line"/>
      <point x="8" y="413" type="line"/>
      <point x="8" y="383" type="line"/>
      <point x="35" y="375" type="line" smooth="yes"/>
      <point x="47" y="372"/>
      <point x="53" y="365"/>
      <point x="57" y="355" type="curve" smooth="yes"/>
      <point x="199" y="-6" type="line"/>
      <point x="239" y="-6" type="line"/>
    </contour>
    <contour>
      <point x="223" y="0" type="move" name="btm"/>
    </contour>
    <contour>
      <point x="223" y="413" type="move" name="top"/>
    </contour>
  </outline>
</glyph>
<glyph name="w" format="1">
  <advance width="652"/>
  <unicode hex="0077"/>
  <outline>
    <contour>
      <point x="445" y="-6" type="line"/>
      <point x="484" y="-6" type="line"/>
      <point x="594" y="356" type="line" smooth="yes"/>
      <point x="597" y="367"/>
      <point x="605" y="373"/>
      <point x="616" y="376" type="curve" smooth="yes"/>
      <point x="640" y="383" type="line"/>
      <point x="640" y="413" type="line"/>
      <point x="495" y="413" type="line"/>
      <point x="495" y="383" type="line"/>
      <point x="553" y="372" type="line"/>
    </contour>
    <contour>
      <point x="220" y="14" type="line"/>
      <point x="116" y="372" type="line"/>
      <point x="174" y="383" type="line"/>
      <point x="174" y="413" type="line"/>
      <point x="12" y="413" type="line"/>
      <point x="12" y="383" type="line"/>
      <point x="34" y="376" type="line" smooth="yes"/>
      <point x="45" y="373"/>
      <point x="52" y="368"/>
      <point x="56" y="356" type="curve" smooth="yes"/>
      <point x="171" y="-6" type="line"/>
      <point x="215" y="-6" type="line"/>
    </contour>
    <contour>
      <point x="313" y="384" type="line"/>
      <point x="429" y="-6" type="line"/>
      <point x="472" y="-6" type="line"/>
      <point x="477" y="14" type="line"/>
      <point x="368" y="413" type="line"/>
      <point x="321" y="413" type="line"/>
    </contour>
    <contour>
      <point x="348" y="413" type="line"/>
      <point x="306" y="413" type="line"/>
      <point x="188" y="-6" type="line"/>
      <point x="227" y="-6" type="line"/>
    </contour>
    <contour>
      <point x="327" y="0" type="move" name="btm"/>
    </contour>
    <contour>
      <point x="333" y="413" type="move" name="top"/>
    </contour>
  </outline>
</glyph>
<glyph name="x" format="1">
  <advance width="458"/>
  <unicode hex="0078"/>
  <outline>
    <contour>
      <point x="189" y="0" type="line"/>
      <point x="189" y="32" type="line"/>
      <point x="124" y="38" type="line"/>
      <point x="237" y="197" type="line"/>
      <point x="249" y="197" type="line"/>
      <point x="376" y="362" type="line" smooth="yes"/>
      <point x="382" y="370"/>
      <point x="390" y="375"/>
      <point x="400" y="377" type="curve" smooth="yes"/>
      <point x="432" y="383" type="line"/>
      <point x="432" y="413" type="line"/>
      <point x="275" y="413" type="line"/>
      <point x="275" y="383" type="line"/>
      <point x="333" y="374" type="line"/>
      <point x="223" y="224" type="line"/>
      <point x="210" y="224" type="line"/>
      <point x="79" y="50" type="line" smooth="yes"/>
      <point x="72" y="41"/>
      <point x="64" y="37"/>
      <point x="53" y="36" type="curve" smooth="yes"/>
      <point x="18" y="32" type="line"/>
      <point x="18" y="0" type="line"/>
    </contour>
    <contour>
      <point x="437" y="0" type="line"/>
      <point x="437" y="32" type="line"/>
      <point x="407" y="35" type="line" smooth="yes"/>
      <point x="396" y="37"/>
      <point x="389" y="41"/>
      <point x="382" y="50" type="curve" smooth="yes"/>
      <point x="254" y="225" type="line"/>
      <point x="251" y="225" type="line"/>
      <point x="148" y="374" type="line"/>
      <point x="202" y="383" type="line"/>
      <point x="202" y="413" type="line"/>
      <point x="30" y="413" type="line"/>
      <point x="30" y="383" type="line"/>
      <point x="59" y="377" type="line" smooth="yes"/>
      <point x="69" y="375"/>
      <point x="77" y="370"/>
      <point x="83" y="361" type="curve" smooth="yes"/>
      <point x="207" y="190" type="line"/>
      <point x="210" y="190" type="line"/>
      <point x="313" y="38" type="line"/>
      <point x="260" y="32" type="line"/>
      <point x="260" y="0" type="line"/>
    </contour>
    <contour>
      <point x="238" y="0" type="move" name="btm"/>
    </contour>
    <contour>
      <point x="238" y="413" type="move" name="top"/>
    </contour>
  </outline>
</glyph>
<glyph name="y" format="1">
  <advance width="450"/>
  <unicode hex="0079"/>
  <outline>
    <contour>
      <point x="16" y="-141" type="curve"/>
      <point x="16" y="-182" type="line"/>
      <point x="44" y="-186"/>
      <point x="71" y="-188"/>
      <point x="96" y="-188" type="curve" smooth="yes"/>
      <point x="180" y="-188"/>
      <point x="223" y="-136"/>
      <point x="263" y="-19" type="curve" smooth="yes"/>
      <point x="388" y="353" type="line" smooth="yes"/>
      <point x="392" y="366"/>
      <point x="399" y="371"/>
      <point x="410" y="374" type="curve" smooth="yes"/>
      <point x="441" y="383" type="line"/>
      <point x="441" y="413" type="line"/>
      <point x="285" y="413" type="line"/>
      <point x="285" y="383" type="line"/>
      <point x="347" y="372" type="line"/>
      <point x="241" y="37" type="line" smooth="yes"/>
      <point x="196" y="-107"/>
      <point x="143" y="-133"/>
    </contour>
    <contour>
      <point x="259" y="13" type="line"/>
      <point x="128" y="372" type="line"/>
      <point x="193" y="383" type="line"/>
      <point x="193" y="413" type="line"/>
      <point x="11" y="413" type="line"/>
      <point x="11" y="383" type="line"/>
      <point x="42" y="374" type="line" smooth="yes"/>
      <point x="53" y="371"/>
      <point x="60" y="365"/>
      <point x="64" y="355" type="curve" smooth="yes"/>
      <point x="197" y="0" type="line"/>
      <point x="252" y="0" type="line"/>
    </contour>
    <contour>
      <point x="236" y="413" type="move" name="top"/>
    </contour>
  </outline>
</glyph>
<glyph name="z" format="1">
  <advance width="420"/>
  <unicode hex="007A"/>
  <outline>
    <contour>
      <point x="34" y="28" type="line"/>
      <point x="47" y="0" type="line"/>
      <point x="367" y="0" type="line"/>
      <point x="373" y="40"/>
      <point x="375" y="87"/>
      <point x="373" y="127" type="curve"/>
      <point x="340" y="132" type="line"/>
      <point x="320" y="62" type="line" smooth="yes"/>
      <point x="316" y="48"/>
      <point x="307" y="43"/>
      <point x="293" y="41" type="curve" smooth="yes"/>
      <point x="268" y="37"/>
      <point x="243" y="37"/>
      <point x="213" y="37" type="curve" smooth="yes"/>
      <point x="99" y="37" type="line"/>
      <point x="106" y="24" type="line"/>
      <point x="374" y="385" type="line"/>
      <point x="361" y="413" type="line"/>
      <point x="61" y="413" type="line"/>
      <point x="56" y="375"/>
      <point x="56" y="330"/>
      <point x="59" y="286" type="curve"/>
      <point x="94" y="286" type="line"/>
      <point x="109" y="351" type="line" smooth="yes"/>
      <point x="112" y="365"/>
      <point x="117" y="371"/>
      <point x="134" y="374" type="curve" smooth="yes"/>
      <point x="153" y="377"/>
      <point x="178" y="379"/>
      <point x="203" y="379" type="curve" smooth="yes"/>
      <point x="311" y="379" type="line"/>
      <point x="304" y="392" type="line"/>
    </contour>
    <contour>
      <point x="205" y="0" type="move" name="btm"/>
    </contour>
    <contour>
      <point x="208" y="413" type="move" name="top"/>
    </contour>
  </outline>
</glyph>
<glyph name="braceleft" format="1">
  <advance width="317"/>
  <unicode hex="007B"/>
  <outline>
    <contour>
      <point x="300" y="-112" type="line"/>
      <point x="249" y="-104" type="line" smooth="yes"/>
      <point x="194" y="-94"/>
      <point x="165" y="-71"/>
      <point x="165" y="-7" type="curve" smooth="yes"/>
      <point x="165" y="52"/>
      <point x="171" y="123"/>
      <point x="171" y="183" type="curve" smooth="yes"/>
      <point x="171" y="238"/>
      <point x="144" y="274"/>
      <point x="75" y="291" type="curve"/>
      <point x="144" y="308"/>
      <point x="171" y="340"/>
      <point x="171" y="395" type="curve" smooth="yes"/>
      <point x="171" y="455"/>
      <point x="165" y="526"/>
      <point x="165" y="585" type="curve" smooth="yes"/>
      <point x="165" y="649"/>
      <point x="194" y="672"/>
      <point x="249" y="682" type="curve" smooth="yes"/>
      <point x="300" y="691" type="line"/>
      <point x="296" y="723" type="line"/>
      <point x="278" y="723"/>
      <point x="262" y="723"/>
      <point x="236" y="721" type="curve" smooth="yes"/>
      <point x="148" y="717"/>
      <point x="107" y="677"/>
      <point x="107" y="597" type="curve" smooth="yes"/>
      <point x="107" y="519"/>
      <point x="117" y="461"/>
      <point x="117" y="407" type="curve" smooth="yes"/>
      <point x="117" y="365"/>
      <point x="111" y="326"/>
      <point x="15" y="319" type="curve"/>
      <point x="15" y="259" type="line"/>
      <point x="111" y="252"/>
      <point x="117" y="213"/>
      <point x="117" y="172" type="curve" smooth="yes"/>
      <point x="117" y="117"/>
      <point x="107" y="59"/>
      <point x="107" y="-19" type="curve" smooth="yes"/>
      <point x="107" y="-99"/>
      <point x="148" y="-139"/>
      <point x="236" y="-143" type="curve" smooth="yes"/>
      <point x="262" y="-145"/>
      <point x="278" y="-145"/>
      <point x="296" y="-145" type="curve"/>
    </contour>
  </outline>
</glyph>
<glyph name="bar" format="1">
  <advance width="227"/>
  <unicode hex="007C"/>
  <outline>
    <contour>
      <point x="87" y="-108" type="line"/>
      <point x="140" y="-108" type="line"/>
      <point x="140" y="687" type="line"/>
      <point x="87" y="687" type="line"/>
    </contour>
  </outline>
</glyph>
<glyph name="braceright" format="1">
  <advance width="873"/>
  <unicode hex="007D"/>
  <outline>
    <contour>
      <point x="226" y="-394" type="curve" smooth="yes"/>
      <point x="466" y="-381"/>
      <point x="579" y="-273"/>
      <point x="579" y="-52" type="curve" smooth="yes"/>
      <point x="579" y="163"/>
      <point x="548" y="321"/>
      <point x="548" y="472" type="curve" smooth="yes"/>
      <point x="548" y="585"/>
      <point x="563" y="693"/>
      <point x="833" y="713" type="curve"/>
      <point x="833" y="877" type="line"/>
      <point x="563" y="897"/>
      <point x="548" y="1005"/>
      <point x="548" y="1118" type="curve" smooth="yes"/>
      <point x="548" y="1269"/>
      <point x="579" y="1427"/>
      <point x="579" y="1642" type="curve" smooth="yes"/>
      <point x="579" y="1863"/>
      <point x="466" y="1971"/>
      <point x="226" y="1984" type="curve" smooth="yes"/>
      <point x="154" y="1988"/>
      <point x="109" y="1988"/>
      <point x="59" y="1988" type="curve"/>
      <point x="50" y="1899" type="line"/>
      <point x="190" y="1875" type="line" smooth="yes"/>
      <point x="341" y="1849"/>
      <point x="419" y="1784"/>
      <point x="419" y="1608" type="curve" smooth="yes"/>
      <point x="419" y="1446"/>
      <point x="398" y="1252"/>
      <point x="398" y="1086" type="curve" smooth="yes"/>
      <point x="398" y="935"/>
      <point x="473" y="836"/>
      <point x="664" y="791" type="curve"/>
      <point x="473" y="744"/>
      <point x="398" y="655"/>
      <point x="398" y="504" type="curve" smooth="yes"/>
      <point x="398" y="338"/>
      <point x="419" y="144"/>
      <point x="419" y="-18" type="curve" smooth="yes"/>
      <point x="419" y="-194"/>
      <point x="341" y="-259"/>
      <point x="190" y="-285" type="curve" smooth="yes"/>
      <point x="50" y="-309" type="line"/>
      <point x="59" y="-398" type="line"/>
      <point x="109" y="-398"/>
      <point x="154" y="-398"/>
    </contour>
  </outline>
</glyph>
<glyph name="asciitilde" format="1">
  <advance width="480"/>
  <unicode hex="007E"/>
  <outline>
    <contour>
      <point x="357" y="173"/>
      <point x="396" y="210"/>
      <point x="416" y="250" type="curve"/>
      <point x="393" y="269" type="line"/>
      <point x="375" y="244"/>
      <point x="348" y="225"/>
      <point x="320" y="225" type="curve" smooth="yes"/>
      <point x="276" y="225"/>
      <point x="228" y="274"/>
      <point x="172" y="274" type="curve" smooth="yes"/>
      <point x="123" y="274"/>
      <point x="84" y="237"/>
      <point x="64" y="197" type="curve"/>
      <point x="87" y="178" type="line"/>
      <point x="105" y="203"/>
      <point x="132" y="222"/>
      <point x="160" y="222" type="curve" smooth="yes"/>
      <point x="204" y="222"/>
      <point x="252" y="173"/>
      <point x="308" y="173" type="curve" smooth="yes"/>
    </contour>
  </outline>
</glyph>
<glyph name="exclamdown" format="1">
  <advance width="220"/>
  <unicode hex="00A1"/>
  <outline>
    <contour>
      <point x="145" y="-206" type="line"/>
      <point x="145" y="-151" type="line"/>
      <point x="128" y="254" type="line"/>
      <point x="92" y="254" type="line"/>
      <point x="76" y="-151" type="line"/>
      <point x="76" y="-206" type="line"/>
    </contour>
    <contour>
      <point x="136" y="339"/>
      <point x="153" y="356"/>
      <point x="153" y="382" type="curve" smooth="yes"/>
      <point x="153" y="407"/>
      <point x="136" y="425"/>
      <point x="110" y="425" type="curve" smooth="yes"/>
      <point x="85" y="425"/>
      <point x="67" y="407"/>
      <point x="67" y="382" type="curve" smooth="yes"/>
      <point x="67" y="356"/>
      <point x="85" y="339"/>
      <point x="110" y="339" type="curve" smooth="yes"/>
    </contour>
  </outline>
</glyph>
<glyph name="cent" format="1">
  <advance width="1182"/>
  <unicode hex="00A2"/>
  <outline>
    <contour>
      <point x="539" y="65" type="line"/>
      <point x="539" y="-210" type="line"/>
      <point x="668" y="-210" type="line"/>
      <point x="668" y="65" type="line"/>
    </contour>
    <contour>
      <point x="635" y="1135" type="line"/>
      <point x="764" y="1135" type="line"/>
      <point x="764" y="1408" type="line"/>
      <point x="635" y="1408" type="line"/>
    </contour>
    <contour>
      <point x="126" y="592" type="curve" smooth="yes"/>
      <point x="126" y="244"/>
      <point x="317" y="10"/>
      <point x="623" y="10" type="curve" smooth="yes"/>
      <point x="795" y="10"/>
      <point x="972" y="84"/>
      <point x="1043" y="226" type="curve"/>
      <point x="988" y="278" type="line"/>
      <point x="918" y="193"/>
      <point x="795" y="135"/>
      <point x="667" y="135" type="curve" smooth="yes"/>
      <point x="446" y="135"/>
      <point x="311" y="307"/>
      <point x="311" y="621" type="curve" smooth="yes"/>
      <point x="311" y="926"/>
      <point x="439" y="1104"/>
      <point x="666" y="1104" type="curve" smooth="yes"/>
      <point x="744" y="1104"/>
      <point x="818" y="1083"/>
      <point x="854" y="1054" type="curve" smooth="yes"/>
      <point x="882" y="1032"/>
      <point x="890" y="1006"/>
      <point x="898" y="971" type="curve" smooth="yes"/>
      <point x="935" y="816" type="line"/>
      <point x="1023" y="816" type="line"/>
      <point x="1038" y="913"/>
      <point x="1048" y="1040"/>
      <point x="1042" y="1134" type="curve"/>
      <point x="969" y="1170"/>
      <point x="829" y="1201"/>
      <point x="697" y="1201" type="curve" smooth="yes"/>
      <point x="312" y="1201"/>
      <point x="126" y="936"/>
    </contour>
  </outline>
</glyph>
<glyph name="sterling" format="1">
  <advance width="476"/>
  <unicode hex="00A3"/>
  <outline>
    <contour>
      <point x="433" y="87" type="curve" smooth="yes"/>
      <point x="433" y="114"/>
      <point x="428" y="143"/>
      <point x="424" y="159" type="curve"/>
      <point x="390" y="159" type="line"/>
      <point x="388" y="142"/>
      <point x="384" y="113"/>
      <point x="381" y="99" type="curve" smooth="yes"/>
      <point x="375" y="72"/>
      <point x="357" y="45"/>
      <point x="318" y="45" type="curve" smooth="yes"/>
      <point x="273" y="45"/>
      <point x="220" y="73"/>
      <point x="153" y="73" type="curve"/>
      <point x="170" y="93"/>
      <point x="186" y="138"/>
      <point x="186" y="199" type="curve" smooth="yes"/>
      <point x="186" y="335" type="line" smooth="yes"/>
      <point x="186" y="445"/>
      <point x="229" y="470"/>
      <point x="264" y="470" type="curve" smooth="yes"/>
      <point x="283" y="470"/>
      <point x="304" y="467"/>
      <point x="319" y="457" type="curve" smooth="yes"/>
      <point x="330" y="450"/>
      <point x="333" y="442"/>
      <point x="335" y="431" type="curve" smooth="yes"/>
      <point x="347" y="363" type="line"/>
      <point x="381" y="363" type="line"/>
      <point x="387" y="402"/>
      <point x="390" y="447"/>
      <point x="388" y="485" type="curve"/>
      <point x="354" y="501"/>
      <point x="320" y="509"/>
      <point x="291" y="509" type="curve" smooth="yes"/>
      <point x="199" y="509"/>
      <point x="123" y="439"/>
      <point x="123" y="321" type="curve" smooth="yes"/>
      <point x="123" y="199" type="line" smooth="yes"/>
      <point x="123" y="95"/>
      <point x="73" y="61"/>
      <point x="38" y="31" type="curve"/>
      <point x="59" y="-4" type="line"/>
      <point x="76" y="5"/>
      <point x="105" y="21"/>
      <point x="130" y="47" type="curve"/>
      <point x="206" y="47"/>
      <point x="261" y="-9"/>
      <point x="337" y="-9" type="curve" smooth="yes"/>
      <point x="393" y="-9"/>
      <point x="433" y="21"/>
    </contour>
    <contour>
      <point x="319" y="235" type="line"/>
      <point x="319" y="273" type="line"/>
      <point x="47" y="273" type="line"/>
      <point x="47" y="235" type="line"/>
    </contour>
  </outline>
</glyph>
<glyph name="currency" format="1">
  <advance width="513"/>
  <unicode hex="00A4"/>
  <outline>
    <contour>
      <point x="100" y="277" type="curve" smooth="yes"/>
      <point x="100" y="188"/>
      <point x="167" y="120"/>
      <point x="256" y="120" type="curve" smooth="yes"/>
      <point x="345" y="120"/>
      <point x="416" y="195"/>
      <point x="416" y="285" type="curve" smooth="yes"/>
      <point x="416" y="375"/>
      <point x="345" y="442"/>
      <point x="256" y="442" type="curve" smooth="yes"/>
      <point x="167" y="442"/>
      <point x="100" y="367"/>
    </contour>
    <contour>
      <point x="256" y="165" type="curve" smooth="yes"/>
      <point x="196" y="165"/>
      <point x="148" y="215"/>
      <point x="148" y="279" type="curve" smooth="yes"/>
      <point x="148" y="340"/>
      <point x="184" y="397"/>
      <point x="254" y="397" type="curve" smooth="yes"/>
      <point x="315" y="397"/>
      <point x="364" y="343"/>
      <point x="364" y="280" type="curve" smooth="yes"/>
      <point x="364" y="217"/>
      <point x="329" y="165"/>
    </contour>
    <contour>
      <point x="54" y="107" type="line"/>
      <point x="91" y="69" type="line"/>
      <point x="173" y="151" type="line"/>
      <point x="135" y="189" type="line"/>
    </contour>
    <contour>
      <point x="136" y="372" type="line"/>
      <point x="173" y="410" type="line"/>
      <point x="91" y="492" type="line"/>
      <point x="54" y="455" type="line"/>
    </contour>
    <contour>
      <point x="339" y="152" type="line"/>
      <point x="421" y="71" type="line"/>
      <point x="459" y="108" type="line"/>
      <point x="377" y="191" type="line"/>
    </contour>
    <contour>
      <point x="377" y="372" type="line"/>
      <point x="460" y="455" type="line"/>
      <point x="422" y="493" type="line"/>
      <point x="339" y="411" type="line"/>
    </contour>
  </outline>
</glyph>
<glyph name="yen" format="1">
  <advance width="540"/>
  <unicode hex="00A5"/>
  <outline>
    <contour>
      <point x="100" y="123" type="line"/>
      <point x="448" y="123" type="line"/>
      <point x="448" y="159" type="line"/>
      <point x="100" y="159" type="line"/>
    </contour>
    <contour>
      <point x="100" y="218" type="line"/>
      <point x="448" y="218" type="line"/>
      <point x="448" y="254" type="line"/>
      <point x="100" y="254" type="line"/>
    </contour>
    <contour>
      <point x="294" y="220" type="line"/>
      <point x="436" y="445" type="line" smooth="yes"/>
      <point x="442" y="455"/>
      <point x="448" y="459"/>
      <point x="459" y="462" type="curve" smooth="yes"/>
      <point x="504" y="472" type="line"/>
      <point x="504" y="503" type="line"/>
      <point x="325" y="503" type="line"/>
      <point x="325" y="472" type="line"/>
      <point x="393" y="459" type="line"/>
      <point x="271" y="259" type="line"/>
      <point x="297" y="259" type="line"/>
      <point x="167" y="455" type="line"/>
      <point x="235" y="468" type="line"/>
      <point x="235" y="499" type="line"/>
      <point x="35" y="499" type="line"/>
      <point x="35" y="468" type="line"/>
      <point x="79" y="457" type="line" smooth="yes"/>
      <point x="90" y="454"/>
      <point x="96" y="449"/>
      <point x="102" y="440" type="curve" smooth="yes"/>
      <point x="255" y="220" type="line"/>
    </contour>
    <contour>
      <point x="393" y="0" type="line"/>
      <point x="393" y="31" type="line"/>
      <point x="324" y="44" type="line" smooth="yes"/>
      <point x="311" y="46"/>
      <point x="304" y="53"/>
      <point x="304" y="66" type="curve" smooth="yes"/>
      <point x="304" y="257" type="line"/>
      <point x="244" y="257" type="line"/>
      <point x="244" y="66" type="line" smooth="yes"/>
      <point x="244" y="53"/>
      <point x="237" y="46"/>
      <point x="224" y="44" type="curve" smooth="yes"/>
      <point x="155" y="31" type="line"/>
      <point x="155" y="0" type="line"/>
    </contour>
  </outline>
</glyph>
<glyph name="brokenbar" format="1">
  <advance width="225"/>
  <unicode hex="00A6"/>
  <outline>
    <contour>
      <point x="86" y="345" type="line"/>
      <point x="139" y="345" type="line"/>
      <point x="139" y="687" type="line"/>
      <point x="86" y="687" type="line"/>
    </contour>
    <contour>
      <point x="86" y="-108" type="line"/>
      <point x="139" y="-108" type="line"/>
      <point x="139" y="233" type="line"/>
      <point x="86" y="233" type="line"/>
    </contour>
  </outline>
</glyph>
<glyph name="section" format="1">
  <advance width="466"/>
  <unicode hex="00A7"/>
  <outline>
    <contour>
      <point x="65" y="-60" type="curve"/>
      <point x="97" y="-79"/>
      <point x="158" y="-103"/>
      <point x="235" y="-103" type="curve" smooth="yes"/>
      <point x="346" y="-103"/>
      <point x="403" y="-49"/>
      <point x="403" y="23" type="curve" smooth="yes"/>
      <point x="403" y="95"/>
      <point x="347" y="120"/>
      <point x="261" y="157" type="curve" smooth="yes"/>
      <point x="158" y="202"/>
      <point x="104" y="227"/>
      <point x="104" y="281" type="curve" smooth="yes"/>
      <point x="104" y="318"/>
      <point x="130" y="357"/>
      <point x="166" y="376" type="curve"/>
      <point x="148" y="390" type="line"/>
      <point x="95" y="373"/>
      <point x="48" y="328"/>
      <point x="48" y="263" type="curve" smooth="yes"/>
      <point x="48" y="193"/>
      <point x="103" y="159"/>
      <point x="198" y="116" type="curve" smooth="yes"/>
      <point x="288" y="76"/>
      <point x="344" y="60"/>
      <point x="344" y="7" type="curve" smooth="yes"/>
      <point x="344" y="-36"/>
      <point x="309" y="-66"/>
      <point x="244" y="-66" type="curve" smooth="yes"/>
      <point x="200" y="-66"/>
      <point x="161" y="-54"/>
      <point x="139" y="-36" type="curve" smooth="yes"/>
      <point x="128" y="-28"/>
      <point x="124" y="-20"/>
      <point x="123" y="-11" type="curve" smooth="yes"/>
      <point x="110" y="61" type="line"/>
      <point x="72" y="61" type="line"/>
      <point x="65" y="20"/>
      <point x="63" y="-20"/>
    </contour>
    <contour>
      <point x="392" y="563" type="curve"/>
      <point x="364" y="581"/>
      <point x="300" y="598"/>
      <point x="236" y="598" type="curve" smooth="yes"/>
      <point x="123" y="598"/>
      <point x="71" y="544"/>
      <point x="71" y="476" type="curve" smooth="yes"/>
      <point x="71" y="403"/>
      <point x="131" y="371"/>
      <point x="208" y="337" type="curve" smooth="yes"/>
      <point x="310" y="292"/>
      <point x="362" y="268"/>
      <point x="362" y="215" type="curve" smooth="yes"/>
      <point x="362" y="177"/>
      <point x="336" y="138"/>
      <point x="300" y="120" type="curve"/>
      <point x="318" y="105" type="line"/>
      <point x="373" y="123"/>
      <point x="418" y="168"/>
      <point x="418" y="232" type="curve" smooth="yes"/>
      <point x="418" y="304"/>
      <point x="362" y="337"/>
      <point x="271" y="378" type="curve" smooth="yes"/>
      <point x="188" y="415"/>
      <point x="129" y="436"/>
      <point x="129" y="491" type="curve" smooth="yes"/>
      <point x="129" y="531"/>
      <point x="160" y="561"/>
      <point x="225" y="561" type="curve" smooth="yes"/>
      <point x="263" y="561"/>
      <point x="300" y="551"/>
      <point x="318" y="539" type="curve" smooth="yes"/>
      <point x="328" y="531"/>
      <point x="333" y="524"/>
      <point x="335" y="513" type="curve" smooth="yes"/>
      <point x="347" y="442" type="line"/>
      <point x="385" y="442" type="line"/>
      <point x="392" y="482"/>
      <point x="395" y="523"/>
    </contour>
  </outline>
</glyph>
<glyph name="copyright" format="1">
  <advance width="2001"/>
  <unicode hex="00A9"/>
  <outline>
    <contour>
      <point x="995" y="295" type="curve" smooth="yes"/>
      <point x="1165" y="295"/>
      <point x="1287" y="372"/>
      <point x="1345" y="470" type="curve"/>
      <point x="1295" y="522" type="line"/>
      <point x="1239" y="460"/>
      <point x="1140" y="422"/>
      <point x="1035" y="422" type="curve" smooth="yes"/>
      <point x="836" y="422"/>
      <point x="732" y="560"/>
      <point x="732" y="806" type="curve" smooth="yes"/>
      <point x="732" y="1033"/>
      <point x="820" y="1182"/>
      <point x="1003" y="1182" type="curve" smooth="yes"/>
      <point x="1059" y="1182"/>
      <point x="1115" y="1168"/>
      <point x="1152" y="1144" type="curve" smooth="yes"/>
      <point x="1186" y="1121"/>
      <point x="1192" y="1099"/>
      <point x="1197" y="1077" type="curve" smooth="yes"/>
      <point x="1229" y="943" type="line"/>
      <point x="1320" y="943" type="line"/>
      <point x="1336" y="1033"/>
      <point x="1342" y="1128"/>
      <point x="1339" y="1208" type="curve"/>
      <point x="1292" y="1241"/>
      <point x="1166" y="1280"/>
      <point x="1039" y="1280" type="curve" smooth="yes"/>
      <point x="757" y="1280"/>
      <point x="570" y="1088"/>
      <point x="570" y="776" type="curve" smooth="yes"/>
      <point x="570" y="495"/>
      <point x="722" y="295"/>
    </contour>
    <contour>
      <point x="238" y="785" type="curve" smooth="yes"/>
      <point x="238" y="1240"/>
      <point x="558" y="1570"/>
      <point x="1000" y="1570" type="curve" smooth="yes"/>
      <point x="1442" y="1570"/>
      <point x="1762" y="1240"/>
      <point x="1762" y="785" type="curve" smooth="yes"/>
      <point x="1762" y="330"/>
      <point x="1442" y="0"/>
      <point x="1000" y="0" type="curve" smooth="yes"/>
      <point x="558" y="0"/>
      <point x="238" y="330"/>
    </contour>
    <contour>
      <point x="125" y="784" type="curve" smooth="yes"/>
      <point x="125" y="280"/>
      <point x="501" y="-101"/>
      <point x="1000" y="-101" type="curve" smooth="yes"/>
      <point x="1499" y="-101"/>
      <point x="1876" y="280"/>
      <point x="1876" y="784" type="curve" smooth="yes"/>
      <point x="1876" y="1288"/>
      <point x="1499" y="1667"/>
      <point x="1000" y="1667" type="curve" smooth="yes"/>
      <point x="501" y="1667"/>
      <point x="125" y="1288"/>
    </contour>
  </outline>
</glyph>
<glyph name="ordfeminine" format="1">
  <advance width="396"/>
  <unicode hex="00AA"/>
  <outline>
    <contour>
      <point x="143" y="247" type="curve" smooth="yes"/>
      <point x="196" y="247"/>
      <point x="244" y="273"/>
      <point x="265" y="311" type="curve"/>
      <point x="259" y="325" type="line"/>
      <point x="240" y="302"/>
      <point x="199" y="285"/>
      <point x="163" y="285" type="curve" smooth="yes"/>
      <point x="129" y="285"/>
      <point x="113" y="301"/>
      <point x="113" y="328" type="curve" smooth="yes"/>
      <point x="113" y="363"/>
      <point x="140" y="377"/>
      <point x="188" y="381" type="curve" smooth="yes"/>
      <point x="257" y="387" type="line"/>
      <point x="257" y="416" type="line"/>
      <point x="178" y="410" type="line" smooth="yes"/>
      <point x="120" y="406"/>
      <point x="50" y="387"/>
      <point x="50" y="322" type="curve" smooth="yes"/>
      <point x="50" y="273"/>
      <point x="90" y="247"/>
    </contour>
    <contour>
      <point x="74" y="495" type="line"/>
      <point x="102" y="520"/>
      <point x="135" y="531"/>
      <point x="172" y="531" type="curve" smooth="yes"/>
      <point x="222" y="531"/>
      <point x="245" y="511"/>
      <point x="245" y="453" type="curve" smooth="yes"/>
      <point x="245" y="299" type="line"/>
      <point x="249" y="266"/>
      <point x="268" y="248"/>
      <point x="299" y="248" type="curve" smooth="yes"/>
      <point x="317" y="248"/>
      <point x="344" y="255"/>
      <point x="353" y="258" type="curve"/>
      <point x="353" y="284" type="line"/>
      <point x="320" y="287" type="line" smooth="yes"/>
      <point x="309" y="288"/>
      <point x="303" y="292"/>
      <point x="303" y="304" type="curve" smooth="yes"/>
      <point x="303" y="461" type="line" smooth="yes"/>
      <point x="303" y="538"/>
      <point x="265" y="574"/>
      <point x="188" y="574" type="curve" smooth="yes"/>
      <point x="129" y="574"/>
      <point x="75" y="551"/>
      <point x="60" y="509" type="curve"/>
    </contour>
  </outline>
</glyph>
<glyph name="logicalnot" format="1">
  <advance width="481"/>
  <unicode hex="00AC"/>
  <outline>
    <contour>
      <point x="64" y="200" type="line"/>
      <point x="367" y="200" type="line"/>
      <point x="367" y="39" type="line"/>
      <point x="417" y="39" type="line"/>
      <point x="417" y="247" type="line"/>
      <point x="64" y="247" type="line"/>
    </contour>
  </outline>
</glyph>
<glyph name="softhyphen" format="1">
  <advance width="411"/>
  <unicode hex="00AD"/>
  <outline>
    <contour>
      <point x="63" y="194" type="line"/>
      <point x="348" y="194" type="line"/>
      <point x="348" y="239" type="line"/>
      <point x="63" y="239" type="line"/>
    </contour>
  </outline>
</glyph>
<glyph name="registered" format="1">
  <advance width="653"/>
  <unicode hex="00AE"/>
  <outline>
    <contour>
      <point x="319" y="384" type="line"/>
      <point x="339" y="376"/>
      <point x="351" y="353"/>
      <point x="361" y="332" type="curve" smooth="yes"/>
      <point x="389" y="272" type="line" smooth="yes"/>
      <point x="399" y="252"/>
      <point x="405" y="244"/>
      <point x="422" y="244" type="curve" smooth="yes"/>
      <point x="476" y="244" type="line"/>
      <point x="476" y="272" type="line"/>
      <point x="449" y="278"/>
      <point x="444" y="282"/>
      <point x="436" y="295" type="curve" smooth="yes"/>
      <point x="406" y="349" type="line" smooth="yes"/>
      <point x="394" y="371"/>
      <point x="383" y="379"/>
      <point x="362" y="386" type="curve"/>
    </contour>
    <contour>
      <point x="85" y="397" type="curve" smooth="yes"/>
      <point x="85" y="541"/>
      <point x="186" y="645"/>
      <point x="326" y="645" type="curve" smooth="yes"/>
      <point x="466" y="645"/>
      <point x="568" y="541"/>
      <point x="568" y="397" type="curve" smooth="yes"/>
      <point x="568" y="253"/>
      <point x="466" y="149"/>
      <point x="326" y="149" type="curve" smooth="yes"/>
      <point x="186" y="149"/>
      <point x="85" y="253"/>
    </contour>
    <contour>
      <point x="47" y="397" type="curve" smooth="yes"/>
      <point x="47" y="236"/>
      <point x="167" y="115"/>
      <point x="326" y="115" type="curve" smooth="yes"/>
      <point x="485" y="115"/>
      <point x="605" y="236"/>
      <point x="605" y="397" type="curve" smooth="yes"/>
      <point x="605" y="557"/>
      <point x="485" y="678"/>
      <point x="326" y="678" type="curve" smooth="yes"/>
      <point x="167" y="678"/>
      <point x="47" y="558"/>
    </contour>
    <contour>
      <point x="365" y="378" type="line"/>
      <point x="414" y="384"/>
      <point x="449" y="415"/>
      <point x="449" y="470" type="curve" smooth="yes"/>
      <point x="449" y="527"/>
      <point x="408" y="553"/>
      <point x="336" y="553" type="curve" smooth="yes"/>
      <point x="318" y="553"/>
      <point x="283" y="552"/>
      <point x="249" y="552" type="curve" smooth="yes"/>
      <point x="188" y="552" type="line"/>
      <point x="188" y="525" type="line"/>
      <point x="213" y="520" type="line" smooth="yes"/>
      <point x="222" y="518"/>
      <point x="227" y="513"/>
      <point x="227" y="504" type="curve" smooth="yes"/>
      <point x="227" y="290" type="line" smooth="yes"/>
      <point x="227" y="281"/>
      <point x="222" y="276"/>
      <point x="214" y="274" type="curve" smooth="yes"/>
      <point x="188" y="268" type="line"/>
      <point x="188" y="244" type="line"/>
      <point x="318" y="244" type="line"/>
      <point x="318" y="268" type="line"/>
      <point x="289" y="273" type="line" smooth="yes"/>
      <point x="280" y="275"/>
      <point x="276" y="280"/>
      <point x="276" y="289" type="curve" smooth="yes"/>
      <point x="276" y="520" type="line"/>
      <point x="293" y="523"/>
      <point x="303" y="524"/>
      <point x="316" y="524" type="curve" smooth="yes"/>
      <point x="372" y="524"/>
      <point x="395" y="508"/>
      <point x="395" y="467" type="curve" smooth="yes"/>
      <point x="395" y="423"/>
      <point x="370" y="403"/>
      <point x="327" y="403" type="curve" smooth="yes"/>
      <point x="305" y="403"/>
      <point x="284" y="403"/>
      <point x="262" y="405" type="curve"/>
      <point x="262" y="371" type="line"/>
      <point x="347" y="371" type="line"/>
    </contour>
  </outline>
</glyph>
<glyph name="degree" format="1">
  <advance width="338"/>
  <unicode hex="00B0"/>
  <outline>
    <contour>
      <point x="168" y="346" type="curve" smooth="yes"/>
      <point x="238" y="346"/>
      <point x="294" y="399"/>
      <point x="294" y="470" type="curve" smooth="yes"/>
      <point x="294" y="538"/>
      <point x="241" y="594"/>
      <point x="168" y="594" type="curve" smooth="yes"/>
      <point x="100" y="594"/>
      <point x="44" y="541"/>
      <point x="44" y="470" type="curve" smooth="yes"/>
      <point x="44" y="402"/>
      <point x="100" y="346"/>
    </contour>
    <contour>
      <point x="169" y="387" type="curve" smooth="yes"/>
      <point x="124" y="387"/>
      <point x="87" y="425"/>
      <point x="87" y="470" type="curve" smooth="yes"/>
      <point x="87" y="518"/>
      <point x="121" y="553"/>
      <point x="168" y="553" type="curve" smooth="yes"/>
      <point x="215" y="553"/>
      <point x="250" y="516"/>
      <point x="250" y="470" type="curve" smooth="yes"/>
      <point x="250" y="421"/>
      <point x="217" y="387"/>
    </contour>
  </outline>
</glyph>
<glyph name="plusminus" format="1">
  <advance width="1221"/>
  <unicode hex="00B1"/>
  <outline>
    <contour>
      <point x="678" y="273" type="line"/>
      <point x="678" y="472" type="line"/>
      <point x="672" y="647" type="line"/>
      <point x="846" y="641" type="line"/>
      <point x="1063" y="641" type="line"/>
      <point x="1063" y="768" type="line"/>
      <point x="846" y="768" type="line"/>
      <point x="672" y="762" type="line"/>
      <point x="678" y="937" type="line"/>
      <point x="678" y="1136" type="line"/>
      <point x="543" y="1136" type="line"/>
      <point x="543" y="937" type="line"/>
      <point x="549" y="762" type="line"/>
      <point x="375" y="768" type="line"/>
      <point x="158" y="768" type="line"/>
      <point x="158" y="641" type="line"/>
      <point x="375" y="641" type="line"/>
      <point x="549" y="647" type="line"/>
      <point x="543" y="472" type="line"/>
      <point x="543" y="273" type="line"/>
    </contour>
    <contour>
      <point x="1053" y="0" type="line"/>
      <point x="1053" y="129" type="line"/>
      <point x="168" y="129" type="line"/>
      <point x="168" y="0" type="line"/>
    </contour>
  </outline>
</glyph>
<glyph name="twosuperior" format="1">
  <advance width="368"/>
  <unicode hex="00B2"/>
  <outline>
    <contour>
      <point x="62" y="228" type="line"/>
      <point x="302" y="228" type="line"/>
      <point x="312" y="257"/>
      <point x="316" y="292"/>
      <point x="318" y="323" type="curve"/>
      <point x="290" y="327" type="line"/>
      <point x="275" y="292" type="line" smooth="yes"/>
      <point x="268" y="275"/>
      <point x="248" y="267"/>
      <point x="208" y="267" type="curve" smooth="yes"/>
      <point x="91" y="267" type="line"/>
      <point x="95" y="249" type="line"/>
      <point x="192" y="317"/>
      <point x="293" y="384"/>
      <point x="293" y="471" type="curve" smooth="yes"/>
      <point x="293" y="528"/>
      <point x="249" y="576"/>
      <point x="177" y="576" type="curve" smooth="yes"/>
      <point x="112" y="576"/>
      <point x="69" y="538"/>
      <point x="59" y="499" type="curve"/>
      <point x="74" y="487" type="line"/>
      <point x="91" y="508"/>
      <point x="121" y="534"/>
      <point x="163" y="534" type="curve" smooth="yes"/>
      <point x="208" y="534"/>
      <point x="236" y="508"/>
      <point x="236" y="463" type="curve" smooth="yes"/>
      <point x="236" y="405"/>
      <point x="188" y="360"/>
      <point x="53" y="255" type="curve"/>
    </contour>
  </outline>
</glyph>
<glyph name="threesuperior" format="1">
  <advance width="356"/>
  <unicode hex="00B3"/>
  <outline>
    <contour>
      <point x="46" y="272" type="line"/>
      <point x="69" y="245"/>
      <point x="119" y="223"/>
      <point x="176" y="223" type="curve" smooth="yes"/>
      <point x="256" y="223"/>
      <point x="311" y="266"/>
      <point x="311" y="323" type="curve" smooth="yes"/>
      <point x="311" y="373"/>
      <point x="269" y="406"/>
      <point x="208" y="406" type="curve"/>
      <point x="249" y="413"/>
      <point x="287" y="445"/>
      <point x="287" y="491" type="curve" smooth="yes"/>
      <point x="287" y="541"/>
      <point x="238" y="576"/>
      <point x="172" y="576" type="curve" smooth="yes"/>
      <point x="123" y="576"/>
      <point x="76" y="557"/>
      <point x="59" y="512" type="curve"/>
      <point x="73" y="499" type="line"/>
      <point x="100" y="526"/>
      <point x="129" y="536"/>
      <point x="159" y="536" type="curve" smooth="yes"/>
      <point x="203" y="536"/>
      <point x="232" y="515"/>
      <point x="232" y="479" type="curve" smooth="yes"/>
      <point x="232" y="441"/>
      <point x="199" y="417"/>
      <point x="141" y="417" type="curve" smooth="yes"/>
      <point x="125" y="417" type="line"/>
      <point x="125" y="380" type="line"/>
      <point x="164" y="380" type="line" smooth="yes"/>
      <point x="220" y="380"/>
      <point x="254" y="364"/>
      <point x="254" y="324" type="curve" smooth="yes"/>
      <point x="254" y="281"/>
      <point x="216" y="261"/>
      <point x="168" y="261" type="curve" smooth="yes"/>
      <point x="127" y="261"/>
      <point x="88" y="276"/>
      <point x="63" y="296" type="curve"/>
    </contour>
  </outline>
</glyph>
<glyph name="paragraph" format="1">
  <advance width="509"/>
  <unicode hex="00B6"/>
  <outline>
    <contour>
      <point x="103" y="-119" type="line"/>
      <point x="221" y="-77"/>
      <point x="252" y="-33"/>
      <point x="252" y="91" type="curve" smooth="yes"/>
      <point x="252" y="529" type="line"/>
      <point x="281" y="529"/>
      <point x="313" y="527"/>
      <point x="337" y="525" type="curve"/>
      <point x="337" y="0" type="line"/>
      <point x="470" y="0" type="line"/>
      <point x="470" y="32" type="line"/>
      <point x="411" y="43" type="line" smooth="yes"/>
      <point x="400" y="45"/>
      <point x="392" y="53"/>
      <point x="392" y="64" type="curve" smooth="yes"/>
      <point x="392" y="503" type="line" smooth="yes"/>
      <point x="392" y="514"/>
      <point x="399" y="522"/>
      <point x="412" y="524" type="curve" smooth="yes"/>
      <point x="466" y="536" type="line"/>
      <point x="466" y="568" type="line"/>
      <point x="387" y="568" type="line" smooth="yes"/>
      <point x="320" y="568"/>
      <point x="265" y="575"/>
      <point x="222" y="575" type="curve" smooth="yes"/>
      <point x="88" y="575"/>
      <point x="28" y="505"/>
      <point x="28" y="417" type="curve" smooth="yes"/>
      <point x="28" y="310"/>
      <point x="116" y="255"/>
      <point x="197" y="252" type="curve"/>
      <point x="197" y="120" type="line" smooth="yes"/>
      <point x="197" y="16"/>
      <point x="183" y="-33"/>
      <point x="87" y="-88" type="curve"/>
    </contour>
  </outline>
</glyph>
<glyph name="onesuperior" format="1">
  <advance width="327"/>
  <unicode hex="00B9"/>
  <outline>
    <contour>
      <point x="207" y="568" type="line"/>
      <point x="176" y="573" type="line"/>
      <point x="135" y="542"/>
      <point x="92" y="527"/>
      <point x="54" y="516" type="curve"/>
      <point x="61" y="486" type="line"/>
      <point x="91" y="490"/>
      <point x="126" y="498"/>
      <point x="156" y="511" type="curve"/>
      <point x="156" y="284" type="line" smooth="yes"/>
      <point x="156" y="271"/>
      <point x="152" y="267"/>
      <point x="139" y="265" type="curve" smooth="yes"/>
      <point x="63" y="257" type="line"/>
      <point x="63" y="228" type="line"/>
      <point x="287" y="228" type="line"/>
      <point x="287" y="257" type="line"/>
      <point x="224" y="265" type="line" smooth="yes"/>
      <point x="211" y="267"/>
      <point x="207" y="271"/>
      <point x="207" y="284" type="curve" smooth="yes"/>
    </contour>
  </outline>
</glyph>
<glyph name="ordmasculine" format="1">
  <advance width="1102"/>
  <unicode hex="00BA"/>
  <outline>
    <contour>
      <point x="794" y="1114" type="curve" smooth="yes"/>
      <point x="794" y="866"/>
      <point x="719" y="761"/>
      <point x="558" y="761" type="curve" smooth="yes"/>
      <point x="365" y="761"/>
      <point x="308" y="910"/>
      <point x="308" y="1135" type="curve" smooth="yes"/>
      <point x="308" y="1384"/>
      <point x="384" y="1488"/>
      <point x="545" y="1488" type="curve" smooth="yes"/>
      <point x="737" y="1488"/>
      <point x="794" y="1342"/>
    </contour>
    <contour>
      <point x="130" y="1119" type="curve" smooth="yes"/>
      <point x="130" y="850"/>
      <point x="250" y="672"/>
      <point x="536" y="672" type="curve" smooth="yes"/>
      <point x="777" y="672"/>
      <point x="973" y="809"/>
      <point x="973" y="1129" type="curve" smooth="yes"/>
      <point x="973" y="1399"/>
      <point x="852" y="1578"/>
      <point x="566" y="1578" type="curve" smooth="yes"/>
      <point x="326" y="1578"/>
      <point x="130" y="1440"/>
    </contour>
    <contour>
      <point x="537" y="561" type="move" name="btm"/>
    </contour>
    <contour>
      <point x="556" y="1982" type="move" name="top"/>
    </contour>
  </outline>
</glyph>
<glyph name="questiondown" format="1">
  <advance width="1026"/>
  <unicode hex="00BF"/>
  <outline>
    <contour>
      <point x="551" y="699" type="line"/>
      <point x="533" y="523" type="line" smooth="yes"/>
      <point x="522" y="410"/>
      <point x="491" y="381"/>
      <point x="375" y="283" type="curve" smooth="yes"/>
      <point x="221" y="153"/>
      <point x="71" y="31"/>
      <point x="71" y="-169" type="curve" smooth="yes"/>
      <point x="71" y="-389"/>
      <point x="251" y="-600"/>
      <point x="547" y="-600" type="curve" smooth="yes"/>
      <point x="716" y="-600"/>
      <point x="865" y="-532"/>
      <point x="951" y="-461" type="curve"/>
      <point x="951" y="-350"/>
      <point x="933" y="-227"/>
      <point x="904" y="-126" type="curve"/>
      <point x="803" y="-126" type="line"/>
      <point x="786" y="-313" type="line" smooth="yes"/>
      <point x="782" y="-354"/>
      <point x="774" y="-383"/>
      <point x="744" y="-412" type="curve" smooth="yes"/>
      <point x="703" y="-452"/>
      <point x="617" y="-491"/>
      <point x="521" y="-491" type="curve" smooth="yes"/>
      <point x="347" y="-491"/>
      <point x="259" y="-369"/>
      <point x="259" y="-206" type="curve" smooth="yes"/>
      <point x="259" y="-51"/>
      <point x="339" y="36"/>
      <point x="519" y="201" type="curve" smooth="yes"/>
      <point x="623" y="296"/>
      <point x="681" y="344"/>
      <point x="681" y="455" type="curve" smooth="yes"/>
      <point x="681" y="523"/>
      <point x="659" y="621"/>
      <point x="639" y="699" type="curve"/>
    </contour>
    <contour>
      <point x="510" y="1168"/>
      <point x="462" y="1119"/>
      <point x="462" y="1050" type="curve" smooth="yes"/>
      <point x="462" y="980"/>
      <point x="510" y="932"/>
      <point x="580" y="932" type="curve" smooth="yes"/>
      <point x="650" y="932"/>
      <point x="698" y="980"/>
      <point x="698" y="1050" type="curve" smooth="yes"/>
      <point x="698" y="1119"/>
      <point x="650" y="1168"/>
      <point x="580" y="1168" type="curve" smooth="yes"/>
    </contour>
  </outline>
</glyph>
<glyph name="AE" format="1">
  <advance width="752"/>
  <unicode hex="00C6"/>
  <outline>
    <contour>
      <point x="700" y="0" type="line"/>
      <point x="709" y="47"/>
      <point x="715" y="96"/>
      <point x="716" y="140" type="curve"/>
      <point x="684" y="144" type="line"/>
      <point x="658" y="69" type="line" smooth="yes"/>
      <point x="654" y="59"/>
      <point x="649" y="52"/>
      <point x="637" y="48" type="curve" smooth="yes"/>
      <point x="619" y="41"/>
      <point x="587" y="39"/>
      <point x="552" y="39" type="curve" smooth="yes"/>
      <point x="429" y="39" type="line"/>
      <point x="429" y="272" type="line"/>
      <point x="613" y="268" type="line"/>
      <point x="613" y="317" type="line"/>
      <point x="429" y="311" type="line"/>
      <point x="429" y="532" type="line"/>
      <point x="530" y="532" type="line" smooth="yes"/>
      <point x="564" y="532"/>
      <point x="593" y="530"/>
      <point x="611" y="524" type="curve" smooth="yes"/>
      <point x="623" y="519"/>
      <point x="629" y="513"/>
      <point x="632" y="503" type="curve" smooth="yes"/>
      <point x="647" y="433" type="line"/>
      <point x="680" y="433" type="line"/>
      <point x="684" y="482"/>
      <point x="684" y="524"/>
      <point x="681" y="568" type="curve"/>
      <point x="369" y="568" type="line"/>
      <point x="369" y="66" type="line" smooth="yes"/>
      <point x="369" y="53"/>
      <point x="363" y="45"/>
      <point x="349" y="43" type="curve" smooth="yes"/>
      <point x="291" y="32" type="line"/>
      <point x="291" y="0" type="line"/>
    </contour>
    <contour>
      <point x="185" y="0" type="line"/>
      <point x="185" y="32" type="line"/>
      <point x="113" y="43" type="line"/>
      <point x="320" y="528" type="line"/>
      <point x="376" y="528" type="line"/>
      <point x="394" y="568" type="line"/>
      <point x="287" y="568" type="line"/>
      <point x="69" y="60" type="line" smooth="yes"/>
      <point x="64" y="50"/>
      <point x="57" y="44"/>
      <point x="46" y="42" type="curve" smooth="yes"/>
      <point x="0" y="32" type="line"/>
      <point x="0" y="0" type="line"/>
    </contour>
    <contour>
      <point x="397" y="212" type="line"/>
      <point x="397" y="251" type="line"/>
      <point x="172" y="251" type="line"/>
      <point x="160" y="212" type="line"/>
    </contour>
    <contour>
      <point x="308" y="568" type="line"/>
      <point x="172" y="568" type="line"/>
      <point x="172" y="536" type="line"/>
      <point x="278" y="518" type="line"/>
    </contour>
    <contour>
      <point x="393" y="0" type="move" name="btm"/>
    </contour>
    <contour>
      <point x="419" y="568" type="move" name="top"/>
    </contour>
  </outline>
</glyph>
<glyph name="multiply" format="1">
  <advance width="406"/>
  <unicode hex="00D7"/>
  <outline>
    <contour>
      <point x="92" y="76" type="line"/>
      <point x="203" y="194" type="line"/>
      <point x="314" y="76" type="line"/>
      <point x="348" y="112" type="line"/>
      <point x="233" y="224" type="line"/>
      <point x="348" y="336" type="line"/>
      <point x="314" y="373" type="line"/>
      <point x="203" y="255" type="line"/>
      <point x="92" y="373" type="line"/>
      <point x="57" y="336" type="line"/>
      <point x="172" y="224" type="line"/>
      <point x="57" y="112" type="line"/>
    </contour>
  </outline>
</glyph>
<glyph name="Oslash" format="1">
  <advance width="1603"/>
  <unicode hex="00D8"/>
  <outline>
    <contour>
      <point x="1187" y="-23"/>
      <point x="1468" y="277"/>
      <point x="1468" y="807" type="curve" smooth="yes"/>
      <point x="1468" y="1288"/>
      <point x="1248" y="1585"/>
      <point x="829" y="1585" type="curve" smooth="yes"/>
      <point x="421" y="1585"/>
      <point x="135" y="1293"/>
      <point x="135" y="757" type="curve" smooth="yes"/>
      <point x="135" y="276"/>
      <point x="357" y="-23"/>
      <point x="775" y="-23" type="curve" smooth="yes"/>
    </contour>
    <contour>
      <point x="507" y="80" type="line"/>
      <point x="523" y="118" type="line"/>
      <point x="1175" y="1401" type="line"/>
      <point x="1196" y="1430" type="line"/>
      <point x="1305" y="1640" type="line"/>
      <point x="1207" y="1692" type="line"/>
      <point x="1096" y="1481" type="line"/>
      <point x="1079" y="1444" type="line"/>
      <point x="428" y="160" type="line"/>
      <point x="407" y="131" type="line"/>
      <point x="278" y="-118" type="line"/>
      <point x="376" y="-170" type="line"/>
    </contour>
    <contour>
      <point x="477" y="78"/>
      <point x="319" y="330"/>
      <point x="319" y="782" type="curve" smooth="yes"/>
      <point x="319" y="1253"/>
      <point x="498" y="1484"/>
      <point x="804" y="1484" type="curve" smooth="yes"/>
      <point x="1127" y="1484"/>
      <point x="1284" y="1235"/>
      <point x="1284" y="784" type="curve" smooth="yes"/>
      <point x="1284" y="312"/>
      <point x="1104" y="78"/>
      <point x="799" y="78" type="curve" smooth="yes"/>
    </contour>
    <contour>
      <point x="792" y="-170" type="move" name="btm"/>
    </contour>
    <contour>
      <point x="806" y="1700" type="move" name="top"/>
    </contour>
  </outline>
</glyph>
<glyph name="Thorn" format="1">
  <advance width="503"/>
  <unicode hex="00DE"/>
  <outline>
    <contour>
      <point x="262" y="0" type="line"/>
      <point x="262" y="32" type="line"/>
      <point x="200" y="43" type="line" smooth="yes"/>
      <point x="187" y="45"/>
      <point x="180" y="53"/>
      <point x="180" y="66" type="curve" smooth="yes"/>
      <point x="180" y="501" type="line" smooth="yes"/>
      <point x="180" y="514"/>
      <point x="187" y="522"/>
      <point x="200" y="524" type="curve" smooth="yes"/>
      <point x="262" y="536" type="line"/>
      <point x="262" y="568" type="line"/>
      <point x="48" y="568" type="line"/>
      <point x="48" y="536" type="line"/>
      <point x="100" y="524" type="line" smooth="yes"/>
      <point x="112" y="521"/>
      <point x="119" y="513"/>
      <point x="119" y="501" type="curve" smooth="yes"/>
      <point x="119" y="66" type="line" smooth="yes"/>
      <point x="119" y="53"/>
      <point x="113" y="45"/>
      <point x="100" y="43" type="curve" smooth="yes"/>
      <point x="48" y="32" type="line"/>
      <point x="48" y="0" type="line"/>
    </contour>
    <contour>
      <point x="398" y="122"/>
      <point x="469" y="174"/>
      <point x="469" y="292" type="curve" smooth="yes"/>
      <point x="469" y="398"/>
      <point x="405" y="447"/>
      <point x="288" y="447" type="curve" smooth="yes"/>
      <point x="247" y="447"/>
      <point x="210" y="444"/>
      <point x="166" y="439" type="curve"/>
      <point x="166" y="403" type="line"/>
      <point x="195" y="406"/>
      <point x="231" y="410"/>
      <point x="267" y="410" type="curve" smooth="yes"/>
      <point x="366" y="410"/>
      <point x="401" y="370"/>
      <point x="401" y="289" type="curve" smooth="yes"/>
      <point x="401" y="188"/>
      <point x="349" y="156"/>
      <point x="272" y="156" type="curve" smooth="yes"/>
      <point x="237" y="156"/>
      <point x="205" y="159"/>
      <point x="166" y="163" type="curve"/>
      <point x="166" y="126" type="line"/>
      <point x="198" y="124"/>
      <point x="227" y="122"/>
      <point x="274" y="122" type="curve" smooth="yes"/>
    </contour>
  </outline>
</glyph>
<glyph name="germandbls" format="1">
  <advance width="1469"/>
  <unicode hex="00DF"/>
  <outline>
    <contour>
      <point x="1386" y="310" type="curve" smooth="yes"/>
      <point x="1386" y="492"/>
      <point x="1254" y="577"/>
      <point x="1097" y="656" type="curve" smooth="yes"/>
      <point x="962" y="724"/>
      <point x="854" y="769"/>
      <point x="854" y="884" type="curve" smooth="yes"/>
      <point x="854" y="997"/>
      <point x="958" y="1085"/>
      <point x="1141" y="1127" type="curve"/>
      <point x="1165" y="1192"/>
      <point x="1186" y="1298"/>
      <point x="1186" y="1386" type="curve" smooth="yes"/>
      <point x="1186" y="1618"/>
      <point x="1041" y="1795"/>
      <point x="808" y="1795" type="curve" smooth="yes"/>
      <point x="540" y="1795"/>
      <point x="290" y="1562"/>
      <point x="290" y="1213" type="curve" smooth="yes"/>
      <point x="290" y="169" type="line" smooth="yes"/>
      <point x="290" y="132"/>
      <point x="270" y="112"/>
      <point x="233" y="107" type="curve" smooth="yes"/>
      <point x="105" y="88" type="line"/>
      <point x="105" y="0" type="line"/>
      <point x="455" y="0" type="line"/>
      <point x="455" y="1258" type="line" smooth="yes"/>
      <point x="455" y="1553"/>
      <point x="559" y="1656"/>
      <point x="730" y="1656" type="curve" smooth="yes"/>
      <point x="924" y="1656"/>
      <point x="1010" y="1522"/>
      <point x="1010" y="1350" type="curve" smooth="yes"/>
      <point x="1010" y="1305"/>
      <point x="1004" y="1232"/>
      <point x="979" y="1169" type="curve"/>
      <point x="844" y="1118"/>
      <point x="701" y="1017"/>
      <point x="701" y="839" type="curve" smooth="yes"/>
      <point x="701" y="662"/>
      <point x="841" y="588"/>
      <point x="976" y="517" type="curve" smooth="yes"/>
      <point x="1130" y="436"/>
      <point x="1233" y="386"/>
      <point x="1233" y="261" type="curve" smooth="yes"/>
      <point x="1233" y="142"/>
      <point x="1141" y="69"/>
      <point x="1009" y="69" type="curve" smooth="yes"/>
      <point x="917" y="69"/>
      <point x="847" y="104"/>
      <point x="814" y="127" type="curve" smooth="yes"/>
      <point x="783" y="149"/>
      <point x="775" y="164"/>
      <point x="763" y="211" type="curve" smooth="yes"/>
      <point x="726" y="353" type="line"/>
      <point x="633" y="353" type="line"/>
      <point x="626" y="304"/>
      <point x="622" y="252"/>
      <point x="622" y="195" type="curve" smooth="yes"/>
      <point x="622" y="154"/>
      <point x="624" y="110"/>
      <point x="630" y="63" type="curve"/>
      <point x="698" y="25"/>
      <point x="816" y="-26"/>
      <point x="969" y="-26" type="curve" smooth="yes"/>
      <point x="1205" y="-26"/>
      <point x="1386" y="96"/>
    </contour>
    <contour>
      <point x="376" y="1006" type="line"/>
      <point x="376" y="1135" type="line"/>
      <point x="294" y="1135" type="line"/>
      <point x="86" y="1109" type="line"/>
      <point x="86" y="1028" type="line"/>
      <point x="294" y="1006" type="line"/>
    </contour>
  </outline>
</glyph>
<glyph name="ae" format="1">
  <advance width="668"/>
  <unicode hex="00E6"/>
  <outline>
    <contour>
      <point x="621" y="90" type="curve"/>
      <point x="596" y="103" type="line"/>
      <point x="572" y="63"/>
      <point x="525" y="37"/>
      <point x="477" y="37" type="curve" smooth="yes"/>
      <point x="411" y="37"/>
      <point x="348" y="79"/>
      <point x="348" y="218" type="curve" smooth="yes"/>
      <point x="348" y="335"/>
      <point x="393" y="386"/>
      <point x="462" y="386" type="curve" smooth="yes"/>
      <point x="523" y="386"/>
      <point x="558" y="347"/>
      <point x="558" y="285" type="curve" smooth="yes"/>
      <point x="558" y="279"/>
      <point x="558" y="275"/>
      <point x="557" y="268" type="curve"/>
      <point x="329" y="268" type="line"/>
      <point x="329" y="233" type="line"/>
      <point x="618" y="233" type="line"/>
      <point x="621" y="248"/>
      <point x="622" y="269"/>
      <point x="622" y="281" type="curve" smooth="yes"/>
      <point x="622" y="379"/>
      <point x="556" y="425"/>
      <point x="473" y="425" type="curve" smooth="yes"/>
      <point x="361" y="425"/>
      <point x="285" y="340"/>
      <point x="285" y="202" type="curve" smooth="yes"/>
      <point x="285" y="82"/>
      <point x="343" y="-8"/>
      <point x="464" y="-8" type="curve" smooth="yes"/>
      <point x="542" y="-8"/>
      <point x="602" y="33"/>
    </contour>
    <contour>
      <point x="332" y="92" type="curve"/>
      <point x="323" y="112" type="line"/>
      <point x="286" y="58"/>
      <point x="219" y="36"/>
      <point x="173" y="36" type="curve" smooth="yes"/>
      <point x="128" y="36"/>
      <point x="105" y="59"/>
      <point x="105" y="96" type="curve" smooth="yes"/>
      <point x="105" y="145"/>
      <point x="143" y="164"/>
      <point x="206" y="169" type="curve" smooth="yes"/>
      <point x="305" y="178" type="line"/>
      <point x="305" y="213" type="line"/>
      <point x="199" y="204" type="line" smooth="yes"/>
      <point x="127" y="199"/>
      <point x="39" y="177"/>
      <point x="39" y="90" type="curve" smooth="yes"/>
      <point x="39" y="25"/>
      <point x="88" y="-8"/>
      <point x="157" y="-8" type="curve" smooth="yes"/>
      <point x="229" y="-8"/>
      <point x="302" y="28"/>
    </contour>
    <contour>
      <point x="341" y="278" type="line"/>
      <point x="340" y="371"/>
      <point x="296" y="422"/>
      <point x="204" y="422" type="curve" smooth="yes"/>
      <point x="140" y="422"/>
      <point x="68" y="395"/>
      <point x="51" y="341" type="curve"/>
      <point x="66" y="325" type="line"/>
      <point x="103" y="360"/>
      <point x="149" y="373"/>
      <point x="188" y="373" type="curve" smooth="yes"/>
      <point x="252" y="373"/>
      <point x="285" y="344"/>
      <point x="285" y="264" type="curve" smooth="yes"/>
      <point x="285" y="193" type="line"/>
    </contour>
    <contour>
      <point x="352" y="413" type="move" name="top"/>
    </contour>
  </outline>
</glyph>
<glyph name="eth" format="1">
  <advance width="1267"/>
  <unicode hex="00F0"/>
  <outline>
    <contour>
      <point x="1125" y="641" type="curve" smooth="yes"/>
      <point x="1125" y="1122"/>
      <point x="830" y="1594"/>
      <point x="237" y="1793" type="curve"/>
      <point x="202" y="1708" type="line"/>
      <point x="664" y="1502"/>
      <point x="944" y="1132"/>
      <point x="944" y="615" type="curve" smooth="yes"/>
      <point x="944" y="277"/>
      <point x="852" y="76"/>
      <point x="622" y="76" type="curve" smooth="yes"/>
      <point x="381" y="76"/>
      <point x="306" y="296"/>
      <point x="306" y="543" type="curve" smooth="yes"/>
      <point x="306" y="876"/>
      <point x="443" y="1001"/>
      <point x="625" y="1001" type="curve" smooth="yes"/>
      <point x="751" y="1001"/>
      <point x="874" y="945"/>
      <point x="951" y="835" type="curve"/>
      <point x="972" y="845" type="line"/>
      <point x="939" y="1034"/>
      <point x="757" y="1118"/>
      <point x="591" y="1118" type="curve" smooth="yes"/>
      <point x="376" y="1118"/>
      <point x="124" y="971"/>
      <point x="124" y="544" type="curve" smooth="yes"/>
      <point x="124" y="197"/>
      <point x="290" y="-23"/>
      <point x="597" y="-23" type="curve" smooth="yes"/>
      <point x="925" y="-23"/>
      <point x="1125" y="226"/>
    </contour>
    <contour>
      <point x="668" y="1473" type="line"/>
      <point x="974" y="1684" type="line"/>
      <point x="899" y="1783" type="line"/>
      <point x="592" y="1547" type="line"/>
      <point x="249" y="1309" type="line"/>
      <point x="324" y="1210" type="line"/>
    </contour>
  </outline>
</glyph>
<glyph name="divide" format="1">
  <advance width="455"/>
  <unicode hex="00F7"/>
  <outline>
    <contour>
      <point x="392" y="200" type="line"/>
      <point x="392" y="247" type="line"/>
      <point x="63" y="247" type="line"/>
      <point x="63" y="200" type="line"/>
    </contour>
    <contour>
      <point x="268" y="96" type="curve" smooth="yes"/>
      <point x="268" y="120"/>
      <point x="251" y="137"/>
      <point x="227" y="137" type="curve" smooth="yes"/>
      <point x="203" y="137"/>
      <point x="187" y="120"/>
      <point x="187" y="96" type="curve" smooth="yes"/>
      <point x="187" y="73"/>
      <point x="203" y="56"/>
      <point x="227" y="56" type="curve" smooth="yes"/>
      <point x="251" y="56"/>
      <point x="268" y="73"/>
    </contour>
    <contour>
      <point x="268" y="351" type="curve" smooth="yes"/>
      <point x="268" y="375"/>
      <point x="251" y="391"/>
      <point x="227" y="391" type="curve" smooth="yes"/>
      <point x="203" y="391"/>
      <point x="187" y="375"/>
      <point x="187" y="351" type="curve" smooth="yes"/>
      <point x="187" y="327"/>
      <point x="203" y="310"/>
      <point x="227" y="310" type="curve" smooth="yes"/>
      <point x="251" y="310"/>
      <point x="268" y="327"/>
    </contour>
  </outline>
</glyph>
